<svg width="36" height="55" viewBox="0 0 36 55" fill="none" xmlns="http://www.w3.org/2000/svg">
<path d="M34.2832 40.7222C34.2832 41.0681 34.5651 41.35 34.911 41.35C35.257 41.35 35.5389 41.0681 35.5389 40.7222C35.5389 40.3762 35.257 40.0944 34.911 40.0944C34.5651 40.0944 34.2832 40.3762 34.2832 40.7222Z" fill="white"/>
<path d="M33.1201 31.4906C33.1201 31.8366 33.402 32.1184 33.7479 32.1184C34.0939 32.1184 34.3758 31.8366 34.3758 31.4906C34.3758 31.1447 34.0939 30.8628 33.7479 30.8628C33.402 30.8628 33.1201 31.1415 33.1201 31.4906Z" fill="white"/>
<path d="M32.7738 33.8706C32.5304 33.8706 32.335 34.0692 32.335 34.3094C32.335 34.5529 32.5336 34.7483 32.7738 34.7483C33.014 34.7483 33.2126 34.5497 33.2126 34.3094C33.2126 34.066 33.0172 33.8706 32.7738 33.8706Z" fill="white"/>
<path d="M36 37.7849C36 37.5639 35.8206 37.3845 35.5996 37.3845C35.3786 37.3845 35.1992 37.5639 35.1992 37.7849C35.1992 38.0059 35.3786 38.1853 35.5996 38.1853C35.8174 38.1853 36 38.0059 36 37.7849Z" fill="white"/>
<path d="M34.2061 28.3964C33.985 28.3964 33.8057 28.5757 33.8057 28.7968C33.8057 29.0178 33.985 29.1972 34.2061 29.1972C34.4271 29.1972 34.6065 29.0178 34.6065 28.7968C34.6065 28.5757 34.4271 28.3964 34.2061 28.3964Z" fill="white"/>
<path d="M33.7481 26.0164C33.527 26.0164 33.3477 26.1957 33.3477 26.4168C33.3477 26.6378 33.527 26.8172 33.7481 26.8172C33.9691 26.8172 34.1485 26.6378 34.1485 26.4168C34.1485 26.1957 33.9691 26.0164 33.7481 26.0164Z" fill="white"/>
<path d="M7.44033 39.4954C7.44353 39.489 7.44354 39.4826 7.44674 39.4794C7.57807 39.0662 6.16225 37.6472 5.75865 37.3941C5.57607 37.2788 5.52162 37.2244 5.48639 37.1827C5.35826 37.045 5.26856 37.0066 4.69839 36.8528C4.33002 36.7535 4.07698 36.7055 3.8912 36.6702C3.60291 36.619 3.57087 36.6062 3.51641 36.5389C3.48118 36.4972 3.45556 36.4556 3.42994 36.4204C3.31142 36.2474 3.18008 36.052 2.74445 36.052C2.2928 36.052 2.11981 36.3307 1.99169 36.5325C1.96926 36.5709 1.94364 36.6094 1.91802 36.6446C1.76747 36.8592 1.70982 37.0866 1.74826 37.266C1.74185 37.266 1.7034 37.266 1.69379 37.266C1.54644 37.1923 1.02433 36.8208 0.918623 36.6222C0.880184 36.5517 0.841751 36.4812 0.803312 36.4108C0.729639 36.2794 0.633534 36.1032 0.614315 36.0392C0.604705 35.8726 0.486184 35.7861 0.370869 35.7861C0.300399 35.7861 0.226736 35.8214 0.181891 35.879C0.137046 35.9367 0.0857898 36.0424 0.15626 36.3243C0.23634 36.651 0.297209 37.0418 0.284396 37.1251L0.277983 37.1539C0.210716 37.4358 0.146647 37.7529 0.172272 37.9771C0.178679 38.0284 0.185087 38.0892 0.194697 38.1533C0.217119 38.3135 0.258762 38.6146 0.23634 38.7042C0.223527 38.7491 0.213925 38.8067 0.204316 38.8676C0.1883 38.9541 0.159458 39.1335 0.130629 39.1687C-0.0391404 39.3096 -0.000697327 39.4634 0.0153187 39.5082C0.053757 39.614 0.156259 39.6844 0.274777 39.6844C0.383686 39.6844 0.495805 39.63 0.582291 39.5307C0.6912 39.4089 1.15245 38.8772 1.2966 38.701C1.33504 38.653 1.42793 38.5345 1.45996 38.5345H1.46317C1.43754 38.7491 1.44394 39.0278 1.46956 39.1463L1.48239 39.2039C1.54645 39.505 1.59771 39.6972 1.74826 39.7837C1.7931 39.8093 1.85395 39.8414 1.93403 39.8414C2.06857 39.8414 2.16146 39.7613 2.27998 39.6588C2.51061 39.457 2.61951 39.4089 2.67076 39.4025C2.75725 39.3929 2.82133 39.3673 2.86938 39.3417C2.88539 39.3513 2.9014 39.3577 2.91741 39.3705C3.14484 39.4986 3.56767 39.7357 3.88799 39.835L3.95525 39.8542C3.94243 40.0047 3.92643 40.2738 4.10901 40.5076L4.16026 40.5749C4.28518 40.7383 4.38447 40.8696 4.55424 40.8696C4.6119 40.8696 4.72082 40.8504 4.80731 40.7287C4.9002 40.5973 5.08918 40.2194 5.17887 40.0015C5.19168 40.0015 5.2045 40.0015 5.22051 40.0015C5.24614 40.0015 5.27818 40.0015 5.31021 39.9983C5.34865 39.9951 5.41272 39.9951 5.4928 39.9951H5.84514C6.25515 39.9951 6.47938 39.9823 6.61392 39.9503C6.73884 39.9247 7.32501 39.7773 7.44033 39.4954Z" fill="white"/>
<path d="M3.80557 23.9951C3.45962 23.9951 3.17773 24.277 3.17773 24.6229C3.17773 24.9689 3.45962 25.2508 3.80557 25.2508C4.15151 25.2508 4.43338 24.9689 4.43338 24.6229C4.43338 24.277 4.15151 23.9951 3.80557 23.9951Z" fill="white"/>
<path d="M4.74609 47.2632C4.74609 47.6092 5.02796 47.891 5.37391 47.891C5.71985 47.891 6.00174 47.6092 6.00174 47.2632C6.00174 46.9173 5.71985 46.6354 5.37391 46.6354C5.02796 46.6354 4.74609 46.9173 4.74609 47.2632Z" fill="white"/>
<path d="M31.4199 42.9933C31.4199 43.3393 31.7018 43.6211 32.0478 43.6211C32.3937 43.6211 32.6756 43.3393 32.6756 42.9933C32.6756 42.6474 32.3937 42.3655 32.0478 42.3655C31.705 42.3655 31.4199 42.6474 31.4199 42.9933Z" fill="white"/>
<path d="M5.79333 26.452C6.03677 26.452 6.23218 26.2534 6.23218 26.0132C6.23218 25.7697 6.03357 25.5743 5.79333 25.5743C5.54989 25.5743 5.35449 25.7729 5.35449 26.0132C5.35449 26.2566 5.55309 26.452 5.79333 26.452Z" fill="white"/>
<path d="M6.5017 44.6205C6.5017 44.377 6.3031 44.1816 6.06286 44.1816C5.81942 44.1816 5.62402 44.3802 5.62402 44.6205C5.62402 44.8639 5.82262 45.0593 6.06286 45.0593C6.3031 45.0593 6.5017 44.8639 6.5017 44.6205Z" fill="white"/>
<path d="M3.89454 27.3041C3.67352 27.3041 3.49414 27.4835 3.49414 27.7045C3.49414 27.9255 3.67352 28.1049 3.89454 28.1049C4.11556 28.1049 4.29494 27.9255 4.29494 27.7045C4.29494 27.4835 4.11556 27.3041 3.89454 27.3041Z" fill="white"/>
<path d="M4.69141 31.1896C4.69141 31.4266 4.88359 31.6188 5.12062 31.6188C5.35766 31.6188 5.54986 31.4266 5.54986 31.1896C5.54986 30.9526 5.35766 30.7604 5.12062 30.7604C4.88359 30.7604 4.69141 30.9558 4.69141 31.1896Z" fill="white"/>
<path d="M3.57423 33.2139C3.79525 33.2139 3.97463 33.0345 3.97463 32.8135C3.97463 32.5925 3.79525 32.4131 3.57423 32.4131C3.35321 32.4131 3.17383 32.5925 3.17383 32.8135C3.17383 33.0345 3.35641 33.2139 3.57423 33.2139Z" fill="white"/>
<path d="M25.5699 22.7555C25.461 22.7555 25.4129 22.7939 25.3841 22.8228C25.2047 23.0246 25.272 23.6492 25.336 24.2001C25.3713 24.514 25.4065 24.8376 25.4065 25.1291C25.4065 25.3661 25.4225 25.6416 25.4385 25.9299C25.5026 26.9933 25.5667 28.092 24.9581 28.3194C24.468 28.502 24.1957 29.2452 24.1957 30.4175C24.1957 31.2023 23.7889 31.481 23.4397 31.481C23.1579 31.481 22.8952 31.3016 22.7863 31.0358C22.5717 30.5136 22.4371 28.3995 22.4371 27.6468C22.4371 27.2368 22.4564 26.295 22.4756 25.4462C22.4916 24.7543 22.5044 24.1265 22.5044 23.9022C22.5044 23.7645 22.3987 23.6107 22.2482 23.6107C22.0464 23.6107 21.7453 23.8798 21.4986 24.6358C21.3801 25.0009 21.284 25.2796 21.2071 25.5038C20.9445 26.2662 20.9252 26.3271 20.9701 26.9837C21.0053 27.4866 20.6369 27.8614 20.2782 28.2233C19.929 28.5789 19.5991 28.912 19.6664 29.3317C19.7497 29.8506 19.724 31.1254 19.6888 32.7431C19.66 34.2069 19.6247 35.863 19.6664 37.3012C19.6856 37.897 19.7112 38.3999 19.7368 38.8355C19.8329 40.5941 19.8714 41.254 18.8944 42.1444C17.8181 43.1278 17.674 44.2553 17.6067 45.527C17.5747 46.1132 17.3312 46.5841 17.1166 46.9973C16.8412 47.5258 16.6041 47.9839 16.8059 48.5925C16.9533 49.0377 17.0686 49.6143 17.1935 50.2229C17.3921 51.1967 17.6163 52.2986 17.9783 52.7887C18.0071 52.8271 18.0391 52.8687 18.0712 52.9104C18.0808 52.9264 18.0936 52.9392 18.1064 52.9552C18.132 52.9905 18.1609 53.0257 18.1897 53.0577C18.3306 53.2275 18.4876 53.3877 18.667 53.5318C18.6702 53.535 18.6734 53.5382 18.6798 53.5414C18.7631 53.6055 18.8496 53.6663 18.9425 53.724C18.9809 53.7464 19.0225 53.7688 19.0642 53.7913C19.0898 53.8073 19.1218 53.8201 19.1475 53.8329C19.6504 54.0764 20.3326 54.2045 21.3224 54.1148C21.5915 54.0892 21.8413 54.0731 22.072 54.0571C23.2572 53.9771 23.7889 53.9162 23.9522 53.3044C24.2053 52.3626 25.461 51.4337 26.3899 51.5266L26.4347 51.5298C27.1394 51.5298 28.52 50.1492 28.8595 49.4061C28.9813 49.137 29.087 48.4419 29.1991 47.702C29.4457 46.078 29.6539 44.9088 30.1056 44.6173C30.3683 44.4507 30.1921 43.9991 29.8814 43.2752C29.6571 42.7595 29.4073 42.1733 29.3336 41.5711C29.2439 40.8343 29.5322 40.104 29.7853 39.4634C30.0287 38.8419 30.2401 38.307 30.0832 37.913C29.686 36.9328 29.3368 33.0826 29.3144 31.8173C29.3048 31.2376 29.3625 30.2446 29.4297 29.0914C29.5194 27.5507 29.6315 25.632 29.6315 23.9022C29.6315 23.3 29.6411 22.7555 29.6507 22.259C29.6892 20.273 29.7116 19.1775 29.0133 18.5401C28.1901 17.7873 28.315 15.67 28.3887 14.4015C28.4047 14.1229 28.4175 13.8858 28.4175 13.7225C28.4175 12.9569 27.7224 11.2784 27.5815 10.9453C27.5398 10.9293 27.4694 10.9069 27.3861 10.9069C27.0722 10.9069 26.896 11.2528 26.8031 11.5411C26.3835 12.8512 26.5597 15.7597 26.7006 18.098C26.7583 19.0686 26.8095 19.9078 26.8095 20.4972C26.8159 22.4896 26.5661 22.7555 25.5699 22.7555Z" fill="white"/>
<path d="M9.56725 23.6588C9.44233 24.402 9.18928 24.8792 8.98747 25.2604C8.78888 25.6384 8.64154 25.9139 8.69599 26.2918C8.72802 26.5065 8.78567 26.7691 8.84653 27.0542C9.03232 27.9127 9.26616 28.9793 9.07076 29.889C8.94904 30.4528 9.05474 31.0614 9.16685 31.7084C9.27896 32.3523 9.40388 33.0826 9.3206 33.8802C9.25333 34.5177 9.26614 35.7317 9.27896 37.0161C9.30458 39.316 9.30139 40.7415 9.08677 41.1258C8.89778 41.4654 9.02912 42.0163 9.34944 42.5128C9.42631 42.3399 9.5096 42.1765 9.58968 42.0259C9.75624 41.7184 9.9228 41.4013 10.0445 40.9561C10.0637 40.8888 10.0766 40.8344 10.083 40.7895C9.58006 40.2994 9.84914 39.6107 9.99649 39.2328C10.4642 38.0348 10.6403 37.3269 10.5154 36.0328C10.3745 34.5625 10.5763 32.868 10.8325 32.0224C10.8581 31.9359 10.8582 31.7373 10.8582 31.5803C10.8582 31.1575 10.8549 30.5777 11.2681 30.1645C11.6718 29.7577 12.2739 29.668 13.1837 29.905C14.4906 30.2446 14.6219 31.3497 14.7052 32.08C14.734 32.3267 14.7628 32.5605 14.8205 32.7591C14.8942 33.0089 14.939 33.1147 14.971 33.1883C15.1216 33.5279 15.1184 33.6079 15.096 34.6202V34.6842C15.0928 34.7867 15.0992 34.8636 15.1056 34.9213C15.1728 34.8988 15.2657 34.8572 15.3907 34.7867C15.4707 34.4536 15.5604 33.2588 15.1248 28.9857L15.096 28.7135C14.9807 27.5443 14.7692 25.4142 14.7692 24.072C14.7692 23.1655 15.1184 22.5793 15.4291 22.1085C15.4483 21.9003 15.4707 21.7273 15.49 21.5831C15.5572 21.0802 15.5829 20.8945 15.2465 20.3307C14.8781 19.7157 14.4842 18.3896 14.4842 17.403C14.4842 17.3293 14.4842 17.1083 14.1478 17.1083C13.8531 17.1083 13.4912 17.2877 13.2862 17.5343C13.1805 17.6624 13.0651 17.8674 13.1164 18.1269C13.1997 18.5657 13.1292 18.9213 12.905 19.1904C12.6295 19.5235 12.2099 19.5972 12.0722 19.5972C11.9312 19.5972 11.4956 19.5972 11.4956 17.403V13.0402C11.4956 12.7551 11.3034 12.5021 11.0856 12.5021C10.8838 12.5021 10.6916 12.7199 10.5602 13.0947C10.1438 14.2831 10.1727 15.4106 10.2271 15.9775C10.2591 16.3139 10.0766 16.5894 9.87795 16.8808C9.61849 17.2652 9.29499 17.7425 9.31421 18.5753C9.32702 19.1135 9.39428 19.7189 9.46475 20.3627C9.59928 21.5127 9.73062 22.7011 9.56725 23.6588Z" fill="white"/>
<path d="M16.256 12.1818C16.256 12.8224 16.5058 13.431 16.7268 13.9691C17.0151 14.6674 17.2618 15.2728 16.8582 15.7245C16.525 16.0993 16.6339 18.1301 16.7076 19.4722C16.7589 20.4364 16.8005 21.1988 16.7332 21.5287C16.6564 21.8971 16.461 22.1885 16.256 22.4961C15.9677 22.9253 15.673 23.3673 15.673 24.0752C15.673 25.3789 15.8844 27.4898 15.9965 28.627L16.0221 28.896C16.4674 33.2812 16.4642 35.1871 16.0093 35.469C15.2854 35.9175 14.7793 35.9687 14.475 35.658C14.2828 35.4626 14.1963 35.1391 14.2059 34.6682V34.6073C14.2251 33.7104 14.2251 33.7104 14.1547 33.5535C14.113 33.4606 14.0489 33.3165 13.9625 33.0057C13.8856 32.7335 13.8504 32.4548 13.8215 32.1825C13.7415 31.497 13.6774 30.9557 12.9663 30.7699C12.4185 30.629 12.0662 30.6386 11.9092 30.7955C11.7587 30.9461 11.7587 31.2664 11.7587 31.5771C11.7587 31.8174 11.7619 32.0704 11.6946 32.285C11.4608 33.0506 11.2814 34.5945 11.4127 35.9463C11.5537 37.4133 11.3487 38.2462 10.8362 39.5595C10.6279 40.0944 10.6952 40.1425 10.7561 40.1841C10.9931 40.3443 11.086 40.5525 10.9162 41.1931C10.7689 41.7377 10.5671 42.1156 10.3877 42.452C10.1346 42.926 9.93285 43.3008 10.0097 43.9575C10.061 44.4219 10.3012 44.7198 10.5318 45.0049C10.8618 45.4085 11.1981 45.8281 10.9418 46.6353C10.5318 47.9166 11.8035 49.1274 12.5947 49.736C12.9214 49.9859 13.2802 50.0371 13.7543 50.0371L14.1611 50.0339C14.7761 50.0339 15.4135 50.1044 15.8267 50.9629C16.0541 51.4337 16.32 51.4946 16.525 51.4946C16.5346 51.4946 16.5475 51.4914 16.5571 51.4914C16.4738 51.1358 16.3937 50.7675 16.32 50.4023C16.2015 49.8161 16.0894 49.2684 15.9581 48.8712C15.6409 47.907 16.0221 47.1735 16.3264 46.5873C16.5154 46.2221 16.6948 45.873 16.7172 45.4822C16.7909 44.0664 16.9703 42.6954 18.2964 41.4878C18.9338 40.908 18.9434 40.6582 18.8473 38.89C18.8217 38.4224 18.7929 37.9291 18.7769 37.3365C18.732 35.8662 18.7673 34.2005 18.7993 32.7335C18.8281 31.276 18.857 29.9147 18.7865 29.4822C18.6456 28.6142 19.2478 28.0056 19.6449 27.602C19.8019 27.445 20.087 27.1535 20.0806 27.0542C20.0229 26.2406 20.0774 26.058 20.3657 25.2188C20.4425 25.001 20.5354 24.7255 20.6539 24.3667C21.096 23.0086 21.7687 22.7235 22.2555 22.7235C22.5022 22.7235 22.7264 22.8036 22.9154 22.9381C22.9699 22.9765 23.0211 23.0214 23.0692 23.0694C23.2806 23.284 23.4087 23.5819 23.4087 23.9119C23.4087 24.1425 23.3959 24.7607 23.3799 25.475C23.3606 26.3079 23.3414 27.2528 23.3414 27.6564C23.3414 28.0408 23.3735 28.6366 23.4183 29.2068C23.6297 28.1913 24.1038 27.7365 24.5362 27.5379C24.6227 27.256 24.5683 26.3175 24.549 25.9939C24.5298 25.6672 24.5138 25.3917 24.5138 25.1387C24.5138 24.8953 24.4818 24.5974 24.4465 24.3091C24.3568 23.4987 24.2736 22.7331 24.7188 22.2366C24.8694 22.07 25.1384 21.8682 25.5709 21.8682C25.7022 21.8682 25.7791 21.865 25.8239 21.8618C25.8559 21.7593 25.9232 21.4326 25.9232 20.5069C25.9232 19.9399 25.8719 19.1167 25.8143 18.1621C25.6798 15.9711 25.5228 13.3061 25.8431 11.7333C25.7791 11.0831 25.667 10.5257 25.4684 10.4008C25.1705 10.2118 25.1576 9.6128 25.1576 8.65184C25.1576 7.98557 25.1576 7.15594 24.9558 6.95094C24.6483 6.64023 24.4786 6.59538 24.4081 6.59538C24.28 6.59538 23.9853 6.79398 23.9853 8.62621V9.07146C23.9885 10.8044 23.9885 11.4514 23.4856 11.9639C23.2838 12.1721 23.335 12.5053 23.4407 13.037C23.5176 13.4374 23.6073 13.8891 23.5336 14.3535C23.4952 14.5938 23.4792 14.8724 23.4632 15.1415C23.4119 16.0032 23.3542 16.9801 22.5342 16.9801C22.2395 16.9801 22.0185 16.9033 21.8648 16.7495C21.5508 16.4356 21.554 15.8654 21.5572 15.0038V14.7347V10.1093C21.5572 9.41099 20.907 6.97336 20.7629 6.56335C20.6668 6.29749 20.686 5.40059 20.7244 4.06165C20.7372 3.56836 20.7532 3.09429 20.7532 2.73553C20.7532 2.13333 20.1286 1.52152 19.6802 1.52152C19.331 1.52152 19.2574 1.93793 19.2574 2.28708C19.2574 2.58818 19.2606 2.86046 19.2606 3.1103C19.2702 4.28588 19.2734 4.82081 19.0555 5.03863C18.9915 5.1059 18.9082 5.13793 18.8153 5.13793C18.4726 5.13793 18.463 4.67667 18.4437 3.75735C18.4309 3.24164 18.4181 2.601 18.3348 1.98598C18.133 0.518918 17.8992 0 17.4444 0C17.0568 0 16.7973 0.288288 16.7973 1.68809V5.89388C16.7973 6.39999 16.8806 6.77797 16.9575 7.1079C17.0824 7.66525 17.1817 8.10409 16.7653 8.7127C16.2463 9.47186 16.2496 10.4873 16.256 11.7718V12.1818Z" fill="white"/>
</svg>
