<svg width="91" height="133" viewBox="0 0 91 133" fill="none" xmlns="http://www.w3.org/2000/svg">
<path opacity="0.5" d="M62.9303 132.77C78.4328 132.77 91.0002 120.184 91.0002 104.658C91.0002 89.1318 78.4328 76.5455 62.9303 76.5455C47.4277 76.5455 34.8604 89.1318 34.8604 104.658C34.8604 120.184 47.4277 132.77 62.9303 132.77Z" fill="url(#paint0_linear)"/>
<path d="M72.6904 87.4248C72.6904 87.9661 73.1315 88.4071 73.6727 88.4071C74.214 88.4071 74.655 87.9661 74.655 87.4248C74.655 86.8835 74.214 86.4425 73.6727 86.4425C73.1315 86.4425 72.6904 86.8835 72.6904 87.4248Z" fill="#07324A"/>
<path d="M70.7256 67.7788C70.7256 68.3201 71.1666 68.7611 71.7079 68.7611C72.2492 68.7611 72.6902 68.3201 72.6902 67.7788C72.6902 67.2376 72.2492 66.7966 71.7079 66.7966C71.1666 66.7915 70.7256 67.2326 70.7256 67.7788Z" fill="#07324A"/>
<path d="M69.744 72.6902C69.1991 72.6902 68.7617 73.1348 68.7617 73.6725C68.7617 74.2175 69.2062 74.6548 69.744 74.6548C70.2889 74.6548 70.7262 74.2103 70.7262 73.6725C70.7334 73.1276 70.2889 72.6902 69.744 72.6902Z" fill="#07324A"/>
<path d="M76.6189 81.5309C76.6189 80.9887 76.1788 80.5486 75.6366 80.5486C75.0944 80.5486 74.6543 80.9887 74.6543 81.5309C74.6543 82.0732 75.0944 82.5132 75.6366 82.5132C76.1788 82.5132 76.6189 82.0732 76.6189 81.5309Z" fill="#07324A"/>
<path d="M71.7079 55.0089C71.1657 55.0089 70.7256 55.4489 70.7256 55.9912C70.7256 56.5334 71.1657 56.9735 71.7079 56.9735C72.2501 56.9735 72.6902 56.5334 72.6902 55.9912C72.6902 55.4489 72.2501 55.0089 71.7079 55.0089Z" fill="#07324A"/>
<path d="M15.6853 85.2261C15.692 85.2112 15.692 85.1964 15.6988 85.1889C15.9755 84.2302 12.9921 80.9377 12.1416 80.3505C11.7568 80.083 11.6421 79.9566 11.5678 79.86C11.2978 79.5404 11.1088 79.4512 9.90736 79.0945C9.13112 78.8641 8.59788 78.7526 8.20639 78.6708C7.5989 78.5519 7.5314 78.5222 7.41665 78.3661C7.3424 78.2695 7.2884 78.1729 7.23441 78.0911C6.98466 77.6898 6.70791 77.2364 5.78993 77.2364C4.8382 77.2364 4.4737 77.883 4.20371 78.3512C4.15646 78.4404 4.10246 78.5296 4.04846 78.6114C3.73121 79.1093 3.60972 79.637 3.69072 80.0532C3.67722 80.0532 3.59622 80.0532 3.57597 80.0532C3.26547 79.8823 2.16524 79.0201 1.94249 78.5593C1.8615 78.3958 1.7805 78.2323 1.6995 78.0688C1.54425 77.7641 1.34175 77.3553 1.30126 77.2067C1.28101 76.8202 1.03126 76.6195 0.788264 76.6195C0.639767 76.6195 0.484519 76.7013 0.390021 76.835C0.295522 76.9688 0.187524 77.2141 0.336022 77.8681C0.504769 78.6262 0.633017 79.533 0.606017 79.7262L0.585768 79.7857C0.44402 80.4397 0.309022 81.1755 0.363021 81.6958C0.376521 81.8147 0.390021 81.9559 0.41027 82.1045C0.45752 82.4762 0.545268 83.1748 0.498019 83.3829C0.471019 83.4869 0.45077 83.6207 0.43052 83.7619C0.396771 83.9626 0.336022 84.3788 0.275273 84.4606C-0.0824712 84.7876 -0.0014726 85.1443 0.0322768 85.2484C0.113275 85.4937 0.329272 85.6572 0.579018 85.6572C0.808514 85.6572 1.04476 85.5308 1.22701 85.3004C1.4565 85.018 2.42849 83.7842 2.73223 83.3755C2.81323 83.264 3.00898 82.989 3.07648 82.989H3.08323C3.02923 83.4869 3.04273 84.1336 3.09673 84.4086L3.12372 84.5423C3.25872 85.241 3.36672 85.6869 3.68397 85.8876C3.77846 85.947 3.90671 86.0214 4.07546 86.0214C4.35895 86.0214 4.5547 85.8355 4.80445 85.5977C5.29044 85.1295 5.51993 85.018 5.62793 85.0031C5.81018 84.9808 5.94518 84.9214 6.04643 84.8619C6.08017 84.8842 6.11392 84.8991 6.14767 84.9288C6.62692 85.2261 7.5179 85.7761 8.19289 86.0065L8.33464 86.0511C8.30764 86.4004 8.27389 87.0247 8.65863 87.5673L8.76663 87.7234C9.02987 88.1024 9.23912 88.4071 9.59687 88.4071C9.71836 88.4071 9.94786 88.3625 10.1301 88.0801C10.3259 87.7754 10.7241 86.8984 10.9131 86.393C10.9401 86.393 10.9671 86.393 11.0008 86.393C11.0548 86.393 11.1223 86.393 11.1898 86.3855C11.2708 86.3781 11.4058 86.3781 11.5746 86.3781H12.3171C13.1811 86.3781 13.6535 86.3484 13.937 86.2741C14.2003 86.222 15.4355 85.8801 15.6853 85.2261Z" fill="#07324A"/>
<path d="M6.87586 51.0797C6.33459 51.0797 5.89355 51.9617 5.89355 53.0443C5.89355 54.1268 6.33459 55.0089 6.87586 55.0089C7.41712 55.0089 7.85816 54.1268 7.85816 53.0443C7.85816 51.9617 7.42214 51.0797 6.87586 51.0797Z" fill="#07324A"/>
<path d="M9.82227 101.177C9.82227 101.718 10.2633 102.159 10.8046 102.159C11.3458 102.159 11.7869 101.718 11.7869 101.177C11.7869 100.636 11.3458 100.195 10.8046 100.195C10.2633 100.195 9.82227 100.636 9.82227 101.177Z" fill="#07324A"/>
<path d="M66.7959 92.3363C66.7959 93.4188 67.2369 94.3008 67.7782 94.3008C68.3195 94.3008 68.7605 93.4188 68.7605 92.3363C68.7605 91.2537 68.3195 90.3716 67.7782 90.3716C67.2369 90.3716 66.7959 91.2537 66.7959 92.3363Z" fill="#07324A"/>
<path d="M10.8046 56.9735C11.3495 56.9735 11.7869 56.5289 11.7869 55.9912C11.7869 55.4462 11.3423 55.0089 10.8046 55.0089C10.2597 55.0089 9.82235 55.4534 9.82235 55.9912C9.81518 56.5361 10.2597 56.9735 10.8046 56.9735Z" fill="#07324A"/>
<path d="M13.7527 95.2832C13.7527 94.7383 13.3081 94.3009 12.7704 94.3009C12.2255 94.3009 11.7881 94.7455 11.7881 95.2832C11.7881 95.8281 12.2326 96.2655 12.7704 96.2655C13.3081 96.2655 13.7527 95.8281 13.7527 95.2832Z" fill="#07324A"/>
<path d="M6.87586 58.9381C6.33363 58.9381 5.89355 59.3782 5.89355 59.9204C5.89355 60.4626 6.33363 60.9027 6.87586 60.9027C7.41809 60.9027 7.85816 60.4626 7.85816 59.9204C7.85816 59.3782 7.41809 58.9381 6.87586 58.9381Z" fill="#07324A"/>
<path d="M9.82227 67.7788C9.82227 68.3213 10.2621 68.7611 10.8046 68.7611C11.347 68.7611 11.7869 68.3213 11.7869 67.7788C11.7869 67.2363 11.347 66.7965 10.8046 66.7965C10.2621 66.8038 9.82227 67.2437 9.82227 67.7788Z" fill="#07324A"/>
<path d="M6.87586 70.7257C7.41809 70.7257 7.85816 70.2856 7.85816 69.7434C7.85816 69.2012 7.41809 68.7611 6.87586 68.7611C6.33363 68.7611 5.89355 69.2012 5.89355 69.7434C5.89355 70.2856 6.33363 70.7257 6.87586 70.7257Z" fill="#07324A"/>
<path d="M54.6537 48.8792C54.416 48.8792 54.3112 48.9613 54.2483 49.0229C53.8568 49.4539 54.0036 50.7878 54.1434 51.9644C54.2203 52.6348 54.2972 53.3257 54.2972 53.9483C54.2972 54.4545 54.3322 55.0428 54.3671 55.6584C54.5069 57.9296 54.6467 60.276 53.3185 60.7617C52.2489 61.1516 51.6547 62.7386 51.6547 65.2424C51.6547 66.9184 50.7669 67.5135 50.0049 67.5135C49.3897 67.5135 48.8164 67.1304 48.5787 66.5626C48.1104 65.4476 47.8168 60.9327 47.8168 59.3251C47.8168 58.4495 47.8587 56.4383 47.9006 54.6255C47.9356 53.1479 47.9636 51.8071 47.9636 51.3282C47.9636 51.0341 47.7329 50.7057 47.4043 50.7057C46.9639 50.7057 46.3067 51.2804 45.7685 52.8948C45.5098 53.6746 45.3001 54.2698 45.1323 54.7486C44.559 56.3767 44.5171 56.5067 44.615 57.9091C44.6919 58.9831 43.8879 59.7834 43.105 60.5564C42.343 61.3158 41.6229 62.0272 41.7697 62.9233C41.9515 64.0315 41.8956 66.7542 41.8187 70.2088C41.7557 73.335 41.6788 76.8717 41.7697 79.9432C41.8117 81.2155 41.8676 82.2895 41.9235 83.2199C42.1332 86.9755 42.2171 88.3847 40.085 90.2864C37.736 92.3865 37.4215 94.7945 37.2747 97.5102C37.2048 98.7621 36.6734 99.7677 36.2051 100.65C35.6039 101.779 35.0865 102.757 35.527 104.057C35.8485 105.008 36.1002 106.239 36.3728 107.539C36.8063 109.618 37.2956 111.972 38.0856 113.018C38.1485 113.1 38.2184 113.189 38.2883 113.278C38.3093 113.312 38.3373 113.34 38.3652 113.374C38.4211 113.449 38.4841 113.524 38.547 113.593C38.8546 113.955 39.1971 114.297 39.5886 114.605C39.5956 114.612 39.6026 114.619 39.6166 114.626C39.7983 114.763 39.9871 114.893 40.1898 115.016C40.2737 115.064 40.3646 115.112 40.4555 115.159C40.5114 115.194 40.5813 115.221 40.6372 115.248C41.7348 115.768 43.2238 116.042 45.384 115.85C45.9712 115.796 46.5165 115.761 47.0198 115.727C49.6064 115.556 50.7669 115.426 51.1234 114.12C51.6757 112.108 54.416 110.125 56.4434 110.323L56.5412 110.33C58.0792 110.33 61.0922 107.381 61.8333 105.794C62.0989 105.22 62.3296 103.735 62.5743 102.155C63.1126 98.6869 63.567 96.19 64.5527 95.5675C65.1259 95.2118 64.7414 94.2472 64.0633 92.7012C63.574 91.5998 63.0287 90.348 62.8679 89.0619C62.6722 87.4885 63.3013 85.9288 63.8536 84.5607C64.3849 83.2336 64.8463 82.0912 64.5037 81.2497C63.6369 79.1565 62.8749 70.9339 62.8259 68.2318C62.805 66.9936 62.9308 64.873 63.0776 62.4103C63.2734 59.1199 63.518 55.0223 63.518 51.3282C63.518 50.0422 63.539 48.8792 63.56 47.8189C63.6439 43.5777 63.6928 41.2381 62.1688 39.8768C60.3722 38.2692 60.6448 33.7475 60.8056 31.0385C60.8406 30.4434 60.8685 29.9372 60.8685 29.5883C60.8685 27.9533 59.3515 24.3688 59.0439 23.6573C58.9531 23.6231 58.7993 23.5753 58.6175 23.5753C57.9324 23.5753 57.5479 24.3141 57.3452 24.9297C56.4294 27.7276 56.8139 33.939 57.1215 38.9328C57.2473 41.0055 57.3592 42.7978 57.3592 44.0565C57.3801 48.3115 56.8279 48.8792 54.6537 48.8792Z" fill="#07324A"/>
<path d="M19.7078 51.6062C19.421 53.2116 18.8402 54.2426 18.377 55.0661C17.9211 55.8826 17.5829 56.4777 17.7079 57.2943C17.7814 57.7579 17.9137 58.3253 18.0534 58.9412C18.4799 60.7957 19.0166 63.1 18.5681 65.0652C18.2887 66.2831 18.5314 67.5979 18.7887 68.9957C19.0461 70.3866 19.3328 71.9643 19.1416 73.6873C18.9872 75.0644 19.0166 77.687 19.0461 80.4618C19.1049 85.4303 19.0975 88.5096 18.6049 89.34C18.1711 90.0735 18.4725 91.2637 19.2078 92.3363C19.3843 91.9626 19.5754 91.6097 19.7593 91.2844C20.1416 90.6201 20.5239 89.9351 20.8034 88.9732C20.8475 88.8279 20.8769 88.7103 20.8916 88.6134C19.7372 87.5547 20.3548 86.0669 20.6931 85.2504C21.7666 82.6623 22.171 81.1331 21.8842 78.3375C21.5607 75.1613 22.0239 71.5007 22.6121 69.6738C22.6709 69.487 22.6709 69.058 22.6709 68.7189C22.6709 67.8055 22.6636 66.553 23.6121 65.6603C24.5385 64.7815 25.9208 64.5878 28.009 65.0998C31.0089 65.8333 31.3104 68.2207 31.5016 69.7984C31.5677 70.3312 31.6339 70.8364 31.7663 71.2654C31.9354 71.8051 32.0383 72.0335 32.1118 72.1926C32.4574 72.9261 32.4501 73.0991 32.3986 75.2858V75.4242C32.3912 75.6456 32.4059 75.8117 32.4206 75.9363C32.575 75.8878 32.7883 75.7979 33.075 75.6456C33.2589 74.926 33.4647 72.3449 32.4648 63.1138L32.3986 62.5256C32.1339 59.9999 31.6486 55.3982 31.6486 52.4988C31.6486 50.5405 32.4501 49.2742 33.1633 48.257C33.2074 47.8072 33.2589 47.4335 33.303 47.1221C33.4574 46.0357 33.5162 45.6343 32.7442 44.4165C31.8986 43.0878 30.9942 40.223 30.9942 38.0917C30.9942 37.9326 30.9942 37.4551 30.2222 37.4551C29.5457 37.4551 28.7149 37.8426 28.2443 38.3754C28.0017 38.6522 27.737 39.0951 27.8546 39.6556C28.0458 40.6036 27.884 41.3717 27.3693 41.953C26.737 42.6727 25.7738 42.8318 25.4576 42.8318C25.1341 42.8318 24.1341 42.8318 24.1341 38.0917V28.6669C24.1341 28.0511 23.693 27.5044 23.193 27.5044C22.7298 27.5044 22.2886 27.9749 21.9871 28.7846C21.0313 31.3518 21.0975 33.7876 21.2225 35.0124C21.296 35.739 20.8769 36.3341 20.421 36.9638C19.8254 37.7942 19.0828 38.8252 19.1269 40.6244C19.1563 41.7869 19.3107 43.0948 19.4725 44.4857C19.774 46.9699 20.0754 49.5371 19.7078 51.6062Z" fill="#07324A"/>
<path d="M34.7407 26.0367C34.7407 27.4052 35.2645 28.7053 35.7279 29.8549C36.3323 31.3466 36.8494 32.6399 36.0032 33.6047C35.3048 34.4053 35.5331 38.7436 35.6876 41.6108C35.795 43.6704 35.8823 45.299 35.7413 46.0038C35.5801 46.7907 35.1705 47.4134 34.7407 48.0703C34.1362 48.9872 33.5184 49.9315 33.5184 51.4438C33.5184 54.2288 33.9616 58.7382 34.1967 61.1673L34.2504 61.7421C35.1839 71.1098 35.1772 75.1813 34.2235 75.7834C32.7058 76.7414 31.6447 76.8509 31.0067 76.1872C30.6038 75.7698 30.4225 75.0786 30.4426 74.0728V73.9427C30.4829 72.0268 30.4829 72.0268 30.3352 71.6915C30.2479 71.493 30.1135 71.1851 29.9322 70.5214C29.771 69.9397 29.6972 69.3444 29.6367 68.7628C29.4688 67.2984 29.3345 66.142 27.8436 65.7451C26.6953 65.4441 25.9565 65.4646 25.6275 65.7999C25.3118 66.1215 25.3118 66.8058 25.3118 67.4695C25.3118 67.9827 25.3185 68.5233 25.1775 68.9818C24.6873 70.6172 24.3112 73.9154 24.5865 76.803C24.882 79.937 24.4522 81.7161 23.3777 84.5216C22.9412 85.6644 23.0822 85.767 23.2098 85.856C23.7068 86.1981 23.9015 86.6429 23.5456 88.0114C23.2367 89.1747 22.8136 89.9822 22.4375 90.7006C21.907 91.7134 21.4839 92.514 21.6451 93.9167C21.7525 94.9089 22.2562 95.5453 22.7397 96.1543C23.4314 97.0165 24.1366 97.9129 23.5993 99.6373C22.7397 102.374 25.4059 104.961 27.0646 106.261C27.7496 106.795 28.5018 106.904 29.4957 106.904L30.3486 106.897C31.638 106.897 32.9744 107.048 33.8408 108.882C34.3176 109.888 34.875 110.018 35.3048 110.018C35.3249 110.018 35.3518 110.011 35.3719 110.011C35.1973 109.251 35.0294 108.464 34.875 107.684C34.6265 106.432 34.3914 105.262 34.1161 104.414C33.4512 102.354 34.2504 100.787 34.8884 99.5346C35.2846 98.7546 35.6607 98.0087 35.7077 97.1739C35.8622 94.1494 36.2383 91.2207 39.0185 88.641C40.355 87.4024 40.3751 86.8687 40.1736 83.0915C40.1199 82.0925 40.0595 81.0387 40.0259 79.7728C39.9319 76.632 40.0058 73.0737 40.0729 69.9397C40.1333 66.8263 40.1938 63.9181 40.046 62.9943C39.7506 61.14 41.0131 59.8398 41.8458 58.9777C42.1749 58.6424 42.7726 58.0197 42.7592 57.8075C42.6383 56.0695 42.7525 55.6795 43.3569 53.8867C43.5181 53.4213 43.7128 52.8329 43.9613 52.0665C44.8881 49.1651 46.2983 48.5561 47.3191 48.5561C47.8362 48.5561 48.3063 48.7272 48.7026 49.0146C48.8167 49.0967 48.9242 49.1925 49.0249 49.2952C49.4681 49.7536 49.7368 50.39 49.7368 51.0948C49.7368 51.5875 49.7099 52.9081 49.6763 54.4341C49.636 56.2132 49.5958 58.2318 49.5958 59.094C49.5958 59.9151 49.6629 61.1879 49.7569 62.4059C50.2002 60.2367 51.1941 59.265 52.1007 58.8408C52.282 58.2386 52.1679 56.2337 52.1276 55.5426C52.0873 54.8446 52.0537 54.2562 52.0537 53.7156C52.0537 53.1955 51.9865 52.5592 51.9127 51.9433C51.7246 50.2121 51.55 48.5767 52.4835 47.5161C52.7991 47.1602 53.3632 46.7291 54.2699 46.7291C54.5452 46.7291 54.7064 46.7223 54.8004 46.7154C54.8676 46.4965 55.0086 45.7985 55.0086 43.821C55.0086 42.6098 54.9011 40.8512 54.7803 38.8121C54.4982 34.1316 54.1691 28.4385 54.8407 25.0787C54.7064 23.6896 54.4713 22.499 54.055 22.2321C53.4304 21.8078 53.4035 20.5282 53.4035 18.4754C53.4035 17.0521 53.4035 15.2799 52.9805 14.8419C52.3358 14.1782 51.9798 14.0824 51.8321 14.0824C51.5634 14.0824 50.9456 14.5066 50.9456 18.4207V19.3718C50.9523 23.0737 50.9523 24.456 49.898 25.5508C49.4749 25.9956 49.5823 26.7072 49.8039 27.8431C49.9651 28.6985 50.1532 29.6633 49.9987 30.6555C49.9181 31.1687 49.8845 31.764 49.8509 32.3388C49.7435 34.1795 49.6226 36.2666 47.9034 36.2666C47.2856 36.2666 46.8222 36.1023 46.4998 35.7739C45.8417 35.1033 45.8484 33.8853 45.8551 32.0446V31.4698V21.5889C45.8551 20.0972 44.4918 14.8898 44.1896 14.014C43.9882 13.446 44.0284 11.53 44.109 8.66976C44.1359 7.61598 44.1695 6.60325 44.1695 5.83686C44.1695 4.55043 42.8599 3.24346 41.9197 3.24346C41.1877 3.24346 41.0333 4.13302 41.0333 4.87888C41.0333 5.5221 41.04 6.10373 41.04 6.63747C41.0601 9.14876 41.0668 10.2915 40.6102 10.7568C40.4758 10.9005 40.3012 10.9689 40.1065 10.9689C39.3879 10.9689 39.3678 9.98357 39.3275 8.0197C39.3006 6.91802 39.2737 5.54947 39.0991 4.23566C38.6693 1.10853 38.1858 0 37.2255 0C36.4129 0 35.8689 0.615847 35.8689 3.60613V12.6043C35.8689 13.6855 36.0435 14.4929 36.2047 15.1977C36.4666 16.3884 36.6748 17.3258 35.8017 18.626C34.7138 20.2477 34.7205 22.4168 34.7339 25.1608L34.7407 26.0367Z" fill="#07324A"/>
<defs>
<linearGradient id="paint0_linear" x1="41.0629" y1="96.5846" x2="93.3821" y2="115.844" gradientUnits="userSpaceOnUse">
<stop stop-color="#CA9AC7"/>
<stop offset="0.501" stop-color="#F04B23"/>
<stop offset="1" stop-color="#5F63AD"/>
</linearGradient>
</defs>
</svg>
