<svg width="211" height="146" viewBox="0 0 211 146" fill="none" xmlns="http://www.w3.org/2000/svg">
<path d="M65.9301 115.763C66.5698 113.564 67.3098 113.376 67.9746 109.457C68.6394 105.537 65.8047 104.997 65.6542 100.198C65.5037 95.3998 69.3794 96.1661 69.4296 95.1737C69.4797 94.1814 69.2665 89.9355 65.2654 85.4383C64.0613 84.0816 64.4375 81.205 63.6473 78.6047C62.8697 76.0044 62.1547 70.2259 60.6747 67.4623C59.1821 64.6987 59.9848 65.2138 56.9369 62.9526C53.8765 60.6915 50.1889 57.6264 50.1889 57.6264C49.5617 57.0988 49.2983 57.5008 49.2983 57.5008C49.5617 60.993 52.9358 67.0603 54.4534 70.6279C55.9711 74.208 56.4854 80.0618 55.8833 83.5164C55.2938 86.9834 52.4215 90.6766 50.4272 94.1814C48.4454 97.6861 50.1512 102.284 50.9791 106.429C51.8069 110.575 51.0543 114.393 51.6188 115.825C52.1832 117.257 54.5663 120.122 56.1843 121.667C57.1752 122.546 60.9381 122.069 62.2175 120.938C63.4968 119.82 65.2905 117.948 65.9301 115.763Z" fill="#07324A"/>
<path d="M154.018 103.163C152.413 96.643 155.9 97.0952 150.481 96.756C145.828 96.4671 145.614 96.0903 141.124 96.756C136.634 97.4218 137.775 96.6932 133.322 97.045C129.447 97.3464 125.082 96.5299 126.135 98.1504C128.092 101.178 134.125 109.707 135.643 113.3C137.161 116.893 136.822 124.543 135.104 125.799C133.398 127.055 126.186 125.937 124.078 129.882C121.971 133.826 122.962 133.675 125.859 135.66C128.757 137.645 130.764 137.645 133.724 136.552C136.684 135.459 139.569 138.449 142.667 136.715C145.765 134.982 146.242 132.419 149.515 130.02C152.789 127.633 152.162 125.171 154.796 124.807C157.417 124.43 159.688 121.252 159.286 117.445C158.86 113.639 155.636 109.695 154.018 103.163Z" fill="#07324A"/>
<path d="M20.6878 8.28306C20.299 8.29562 19.6718 8.63479 19.3457 8.86091C19.5088 9.27545 19.7972 9.52669 20.2112 9.63975C21.34 9.94123 22.4312 10.1673 23.0082 10.1297C23.1085 9.92867 23.1462 9.46388 23.0709 9.27545C22.3936 8.87347 21.34 8.23281 20.6878 8.28306Z" fill="#07324A"/>
<path d="M4.80873 16.599C5.2101 16.913 5.34807 16.9758 5.54875 16.9256C5.54875 16.7623 5.59892 16.5739 5.72435 16.3729C6.16335 15.6192 6.10064 15.3554 6.10064 15.3428C5.14738 15.0664 4.04361 14.2876 3.47918 13.8479C3.14053 13.5841 2.82695 13.6218 2.1998 13.7223C1.88623 13.7726 1.57265 13.8228 1.234 13.8228C0.958051 13.8228 0.531597 13.8479 0.0424239 13.8856C0.029881 13.9484 0.00479676 14.0238 0.00479676 14.0866C-0.0830035 15.3302 1.0584 16.1593 1.47231 17.5034C1.72317 18.3325 2.08691 19.0988 2.58863 19.7394C2.76423 19.639 2.97747 19.4631 2.91476 19.1867C2.38796 16.8 2.91475 16.3729 3.10289 16.2096C3.36629 15.9835 3.71749 15.9458 4.05615 16.0965C4.34463 16.2473 4.58296 16.4357 4.80873 16.599Z" fill="#07324A"/>
<path d="M202.86 108.841C198.445 101.919 196.037 95.927 193.766 88.0381C191.672 84.7469 190.882 80.8905 190.869 77.0088C189.853 72.9262 188.724 68.3537 187.37 63.0275C181.625 40.5795 171.954 35.7809 154.871 26.8997C137.788 18.0184 132.169 20.1665 119.124 21.8121C106.079 23.4577 97.2744 22.7291 93.1603 21.3725C89.0463 20.0158 86.2743 14.5263 77.0302 15.192C68.6391 15.7824 66.3187 15.5689 59.4703 11.5742C59.6208 11.4486 59.7713 11.3355 59.9218 11.2099C59.0689 10.5944 58.2787 9.9035 57.5136 9.2754C57.2502 9.48896 56.9868 9.70251 56.7234 9.92862C54.7667 8.72268 53.1361 7.64236 51.6435 6.68766C51.6686 6.64998 51.6812 6.59973 51.7063 6.56205C52.7348 4.84108 53.3619 2.32871 51.7188 0.90922C49.875 -0.686133 47.8431 -0.0329182 44.7325 1.71318C44.1555 2.03979 43.6914 2.35383 43.2649 2.65532C40.9445 2.0021 38.1349 1.54987 34.3344 1.28607C32.9046 1.18558 28.6902 0.720792 25.868 1.17302C23.0459 1.63781 17.5898 3.09498 16.1975 4.0748C14.8053 5.05463 15.169 6.58717 13.9398 7.11477C12.7231 7.64236 6.30122 9.82813 3.86791 11.0089C2.70143 11.5742 1.7858 12.0264 1.14612 12.4787C1.1712 12.4787 1.20883 12.4787 1.22137 12.4787C1.49731 12.4787 1.76071 12.4284 1.99902 12.3907C2.70142 12.2777 3.50418 12.1521 4.30692 12.7802C5.13474 13.4208 5.95001 13.8982 6.46427 14.0615C6.89072 14.1871 7.2043 14.476 7.35482 14.8529C7.58059 15.4181 7.41754 16.1342 6.89074 17.0512C6.86565 17.1014 6.84057 17.1642 6.81548 17.2522C6.74023 17.5034 6.60225 18.0184 5.92493 18.2194C5.07202 18.4581 4.46997 18.031 4.04351 17.7044C4.06859 18.0184 4.11876 18.433 4.23164 18.9103C4.40724 19.7143 4.0435 20.3047 3.6045 20.6816C3.67976 20.7444 3.74247 20.7946 3.81773 20.87C4.26927 21.272 4.70827 21.6488 5.7995 21.787C6.57715 21.8875 7.4677 21.7619 8.50875 21.6237C9.36167 21.5106 10.34 21.3725 11.3811 21.3599C12.2716 21.3473 13.5259 21.2594 14.4541 20.9077L14.7425 21.5232L14.9558 22.1639C14.0401 22.5156 12.8486 22.6915 11.4061 22.7166C10.4403 22.7291 9.54982 22.8548 8.69691 22.9678C7.90671 23.0809 7.14159 23.1814 6.4141 23.1814C6.2385 23.1814 6.07545 23.1688 5.9124 23.1562C6.72768 23.9602 7.76873 24.739 9.23624 25.0908C12.4723 25.857 19.3959 26.0203 21.0516 27.4524C22.7072 28.8844 27.7244 31.2084 30.095 32.1254C31.412 32.6404 33.331 35.1151 35.4758 38.0546C35.4131 38.1928 35.363 38.3184 35.3002 38.4566C36.7928 39.2354 37.4701 40.3157 37.9844 41.4965C38.9502 42.803 39.916 44.1094 40.8944 45.2776C44.9959 50.227 60.9127 61.3694 62.7189 63.6682C64.525 65.967 66.9709 77.5239 67.598 81.5939C68.2126 85.664 71.7497 87.7743 71.988 91.8569C72.2389 95.9395 75.9516 112.044 75.3746 117.257C74.7976 122.47 75.2617 123.111 73.1921 124.166C71.1226 125.221 69.3791 123.739 66.0552 124.091C62.7314 124.442 61.8409 126.616 60.6618 128.638C59.4828 130.66 62.9196 132.067 64.4122 132.017C65.8922 131.967 69.4544 132.708 73.2925 133.085C77.1306 133.462 80.1409 132.469 83.2515 133.236C86.3621 134.002 87.93 132.469 89.1717 128.965C90.426 125.46 93.7122 119.016 94.7282 115.762C95.7441 112.509 103.32 102.66 104.424 98.4142C105.528 94.1683 101.05 90.5379 101.326 87.5608C101.602 84.5836 101.752 85.3248 104.022 86.7317C106.293 88.1512 112.326 91.6685 123.276 93.8166C134.213 95.9521 144.987 92.4097 153.441 94.1306C161.895 95.8516 163.676 97.2837 166.247 100.663C168.355 103.426 174.062 109.494 179.856 115.951C179.844 115.963 179.831 115.976 179.831 116.001C181.474 116.428 182.039 117.634 182.616 119.053C182.992 119.48 183.368 119.895 183.732 120.322C190.656 128.274 189.113 134.517 188.925 136.502C188.737 138.486 186.04 139.064 183.343 139.642C180.647 140.22 180.132 139.743 179.706 141.979C179.279 144.215 179.819 145.446 182.541 145.609C185.262 145.772 189.226 145.898 196.375 145.182C203.525 144.466 202.76 143.989 203.663 140.999C204.566 137.997 206.849 132.231 209.721 128.914C212.53 125.585 210.912 121.465 202.86 108.841ZM24.3002 10.2175C24.1371 10.921 23.7483 11.3481 23.234 11.3858C23.1713 11.3858 23.0835 11.3984 23.0083 11.3984C22.2181 11.3984 20.9136 11.1346 19.8976 10.8582C18.9193 10.607 18.2671 9.89093 18.0288 8.86086C17.9911 8.685 18.0539 8.38352 18.1793 8.24533C18.4929 7.83079 19.7346 7.05196 20.6628 7.02683C21.7038 7.01427 22.9581 7.74286 23.7985 8.23277C24.3754 8.57194 24.4632 9.50152 24.3002 10.2175ZM48.2319 6.6123C47.9058 7.06452 46.9149 8.4212 46.6139 9.43871C46.5261 9.74019 46.2627 9.92862 45.9616 9.92862C45.8989 9.92862 45.8362 9.91606 45.7735 9.9035C45.4223 9.803 45.2091 9.42614 45.3094 9.06185C45.623 7.94385 46.501 6.6751 47.1281 5.80833C47.6926 5.04206 47.9936 4.20042 47.8933 3.97431C47.818 3.9115 47.4919 3.94918 46.3756 4.62752C45.9742 4.8662 45.7233 5.0295 45.5854 5.13C45.5101 5.25562 45.3847 5.36867 45.2342 5.43148C44.908 5.5571 44.4816 5.41892 44.3185 5.10488C44.0175 4.48934 44.4691 4.21298 45.6732 3.4844C46.802 2.7935 47.5797 2.4292 48.2695 2.63019C48.6333 2.73069 48.9217 2.99448 49.1099 3.3839C49.6618 4.51447 48.5831 6.13495 48.2319 6.6123Z" fill="#07324A"/>
</svg>
