<svg width="375" height="667" viewBox="0 0 375 667" fill="none" xmlns="http://www.w3.org/2000/svg">
<g opacity="0.3">
<path opacity="0.3" d="M387.302 -23.8844C411.09 3.24105 434.829 31.1968 449.562 64.1334C464.294 97.07 469.062 136.163 454.257 169.066C439.452 201.969 401.823 225.536 366.773 216.977C340.504 210.561 321.07 188.86 304.51 167.481C287.951 146.102 271.415 123.004 246.954 111.477C222.492 99.9489 187.435 105.684 176.989 130.631C170.427 146.303 175.032 165.183 167.474 180.399C156.032 203.443 123.308 205.896 99.0613 197.291C74.8148 188.687 53.0949 172.455 27.6321 168.756C-19.1785 161.954 -65.4857 209.054 -57.8905 255.741C-51.1336 297.279 -58.4961 350.467 -38.5 387.5C-6.00649 447.674 12.1138 507.265 -49.8092 536.288C-71.8182 546.604 -98.4746 550.11 -120.194 539.192C-160.546 518.903 -164.398 463.591 -160.976 418.554C-157.555 373.518 -156.227 319.604 -193.024 293.412C-226.586 269.518 -281.562 289.831 -291.531 329.804C-296.194 348.51 -292.909 370.484 -305.521 385.063C-319.64 401.387 -346.198 398.812 -365.349 388.86C-384.5 378.908 -400.58 363.211 -420.838 355.762C-450.102 345.001 -485.7 354.774 -505.37 378.967C-525.039 403.161 -527.337 440.006 -510.824 466.457C-502.026 480.553 -488.834 491.362 -479.055 504.798C-469.278 518.236 -463.149 536.63 -470.825 551.37C-481.614 572.08 -512.737 572.244 -532.54 559.866C-552.343 547.489 -565.411 526.926 -582.811 511.351C-600.211 495.777 -626.968 485.458 -646.55 498.179C-673.21 515.501 -664.599 557.753 -681.843 584.465C-701.938 615.59 -751.571 613.211 -779.917 589.354C-808.263 565.497 -820.681 528.191 -831.824 492.857C-839.621 468.135 -847.416 443.416 -855.209 418.693C-861.983 397.205 -868.833 375.195 -867.984 352.683C-866.743 319.89 -849.195 289.733 -827.723 264.913C-774.82 203.766 -698.789 168.637 -625.575 134.335C-396.786 27.1418 -172.226 -89.0768 47.4074 -213.965C97.372 -242.376 147.688 -271.498 202.863 -287.597C352.338 -331.214 527.051 -263.06 607.51 -129.759C617.963 -112.438 626.878 -90.0821 616.26 -72.8668C607.861 -59.2517 589.774 -54.5015 573.914 -56.5868C558.055 -58.6721 543.523 -66.1818 528.677 -72.1306C499.484 -83.8312 467.983 -89.7459 436.531 -89.4304C417.994 -89.2456 398.099 -86.2987 384.591 -73.606C371.084 -60.9101 372.101 -34.4127 387.239 -23.7155" fill="url(#paint0_linear)"/>
</g>
<defs>
<linearGradient id="paint0_linear" x1="-869.538" y1="907.061" x2="325.187" y2="-294.605" gradientUnits="userSpaceOnUse">
<stop stop-color="#F04B23"/>
<stop offset="0.024" stop-color="#ED5724"/>
<stop offset="0.1249" stop-color="#E28625"/>
<stop offset="0.2211" stop-color="#D9AC27"/>
<stop offset="0.3101" stop-color="#D2C628"/>
<stop offset="0.3892" stop-color="#CED629"/>
<stop offset="0.4505" stop-color="#CDDC29"/>
<stop offset="0.5897" stop-color="#8BD069"/>
<stop offset="0.7308" stop-color="#50C6A4"/>
<stop offset="0.8513" stop-color="#25BECE"/>
<stop offset="0.9448" stop-color="#0ABAE8"/>
<stop offset="1" stop-color="#00B8F2"/>
</linearGradient>
</defs>
</svg>
