<svg width="376" height="1137" viewBox="0 0 376 1137" fill="none" xmlns="http://www.w3.org/2000/svg">
<path opacity="0.24" d="M375 673.452V550.222C375 313.516 375 236.706 375 0H304.217H253.5C275.463 88.7538 390.5 179.611 362.5 345.805C334.5 512 204.5 481.587 194 481.587C183.5 481.587 108.5 481.587 86 481.587C63.5 481.587 17 500.368 0 453.658V892.268V1108.93C21.4992 1083.52 51.5404 1140.2 67.4777 1136.86C87.8843 1132.58 89.203 1060.42 141.563 1102.51C158.936 1116.47 170.953 1102.51 182.125 1095.91C193.297 1089.31 207.317 1118.77 215.963 1117.1C240.272 1112.42 241.842 1033.39 304.217 1079.49C364.462 1124.01 388.244 989.266 354.421 930.685C307.934 850.162 309.339 784.627 322.122 753.3C337.188 716.39 375 673.452 375 673.452Z" fill="url(#paint0_linear)"/>
<mask id="mask0" mask-type="alpha" maskUnits="userSpaceOnUse" x="322" y="415" width="53" height="94">
<rect x="322" y="415.861" width="52.8512" height="93.1394" fill="#C4C4C4"/>
</mask>
<g mask="url(#mask0)">
<path d="M348.544 441.914C348.414 442.095 348.008 442.644 347.892 443.049C347.856 443.172 347.747 443.245 347.632 443.245C347.61 443.245 347.581 443.245 347.559 443.23C347.414 443.187 347.335 443.042 347.371 442.897C347.501 442.449 347.849 441.936 348.102 441.588C348.327 441.285 348.45 440.945 348.407 440.851C348.378 440.822 348.247 440.844 347.798 441.111C347.639 441.212 347.537 441.27 347.479 441.314C347.45 441.364 347.4 441.408 347.342 441.429C347.211 441.48 347.038 441.422 346.972 441.299C346.856 441.053 347.038 440.945 347.516 440.648C347.972 440.374 348.283 440.229 348.559 440.308C348.704 440.352 348.819 440.453 348.899 440.612C349.124 441.068 348.689 441.726 348.544 441.914ZM338.911 443.36C338.845 443.642 338.693 443.809 338.483 443.83C338.454 443.83 338.425 443.838 338.389 443.838C338.07 443.838 337.542 443.729 337.136 443.621C336.745 443.519 336.477 443.23 336.383 442.818C336.368 442.746 336.397 442.63 336.441 442.565C336.564 442.398 337.064 442.087 337.44 442.073C337.86 442.066 338.36 442.362 338.701 442.558C338.94 442.702 338.976 443.071 338.911 443.36ZM410.793 482.94C409.077 480.25 408.113 477.914 407.222 474.891C407.222 474.884 407.215 474.884 407.215 474.884C406.723 473.727 406.462 472.49 406.114 471.283C406.085 471.189 405.216 467.103 404.557 464.55C402.246 455.546 398.349 453.615 391.475 450.05C384.594 446.492 382.334 447.36 377.076 448.018C371.824 448.676 368.282 448.386 366.624 447.844C364.965 447.302 363.857 445.096 360.133 445.364C356.758 445.602 355.816 445.515 353.064 443.91C353.078 443.903 353.086 443.895 353.1 443.881C352.702 443.707 351.97 443.237 351.963 443.245C351.174 442.76 350.514 442.326 349.92 441.943C349.928 441.928 349.935 441.907 349.942 441.892C350.355 441.198 350.609 440.193 349.949 439.621C349.203 438.978 348.385 439.238 347.132 439.947C346.9 440.077 346.712 440.207 346.545 440.323C345.611 440.063 344.481 439.882 342.952 439.773C342.373 439.73 340.685 439.542 339.541 439.73C338.396 439.918 336.202 440.504 335.644 440.894C335.086 441.285 335.224 441.899 334.738 442.116C334.246 442.333 331.66 443.201 330.682 443.678C330.211 443.91 329.842 444.091 329.581 444.272C329.588 444.272 329.603 444.272 329.61 444.272C329.719 444.272 329.827 444.25 329.922 444.235C330.211 444.192 330.53 444.141 330.856 444.394C331.189 444.655 331.515 444.843 331.725 444.908C331.899 444.959 332.022 445.074 332.087 445.226C332.174 445.45 332.116 445.74 331.899 446.108C331.892 446.13 331.877 446.152 331.87 446.188C331.841 446.289 331.783 446.499 331.508 446.578C331.16 446.672 330.921 446.506 330.747 446.369C330.755 446.492 330.776 446.658 330.82 446.853C330.892 447.179 330.747 447.41 330.566 447.562C330.595 447.584 330.624 447.613 330.653 447.634C330.834 447.793 331.008 447.945 331.45 448.003C331.761 448.047 332.124 447.996 332.544 447.938C332.891 447.895 333.275 447.837 333.703 447.83C334.058 447.822 334.565 447.786 334.941 447.649L335.057 447.895L335.144 448.155C334.775 448.292 334.297 448.372 333.717 448.379C333.326 448.386 332.971 448.437 332.623 448.48C332.305 448.524 332 448.567 331.703 448.567C331.631 448.567 331.566 448.56 331.501 448.553C331.827 448.878 332.247 449.189 332.841 449.327C334.144 449.638 336.933 449.695 337.6 450.274C338.266 450.853 340.287 451.778 341.236 452.147C341.764 452.35 342.539 453.348 343.401 454.526C343.394 454.534 344.444 455.604 344.727 456.342C345.009 456.718 345.292 457.086 345.574 457.426C347.226 459.408 353.636 463.884 354.361 464.803C355.085 465.721 356.077 470.364 356.324 471.991C356.577 473.626 357.989 474.472 358.091 476.106C358.192 477.741 359.692 484.206 359.453 486.303C359.221 488.393 359.409 488.654 358.576 489.08C357.743 489.5 357.041 488.914 355.701 489.051C354.361 489.196 353.998 490.064 353.528 490.874C353.057 491.684 354.44 492.248 355.034 492.233C355.628 492.219 357.062 492.515 358.612 492.667C360.162 492.819 361.365 492.421 362.618 492.732C363.871 493.043 364.501 492.429 365.001 491.018C365.508 489.615 366.834 487.026 367.239 485.717C367.645 484.416 370.694 480.46 371.143 478.753C371.592 477.054 369.782 475.593 369.897 474.4C370.006 473.206 370.071 473.503 370.984 474.067C371.897 474.638 374.33 476.048 378.734 476.909C383.138 477.77 387.47 476.345 390.874 477.032C394.278 477.719 394.988 478.298 396.031 479.657C396.879 480.771 399.182 483.201 401.515 485.79C401.5 485.819 401.478 485.84 401.464 485.869C401.819 486.094 402.101 486.405 402.34 486.759C402.348 486.752 402.355 486.737 402.362 486.73C402.601 486.998 402.84 487.272 403.079 487.54C405.861 490.729 405.245 493.239 405.172 494.034C405.1 494.83 404.014 495.061 402.927 495.293C401.841 495.524 401.638 495.329 401.464 496.233C401.29 497.129 401.507 497.621 402.601 497.686C403.695 497.751 405.288 497.802 408.164 497.513C411.04 497.223 410.735 497.035 411.097 495.835C411.46 494.634 412.38 492.32 413.531 490.982C414.676 489.659 414.031 488.003 410.793 482.94Z" fill="#05334C"/>
</g>
<path d="M81.9389 479.441C81.8857 479.35 81.825 479.278 81.7605 479.221C81.639 479.114 81.5137 479.042 81.377 478.977C81.1416 478.867 80.872 478.783 80.5949 478.715C80.1772 478.608 79.7406 478.536 79.4027 478.487C79.0648 478.437 78.8294 478.411 78.8256 478.411C77.9485 478.316 77.1019 478.274 76.2704 478.274C74.5467 478.274 72.9141 478.471 71.3043 478.787C71.0272 478.825 70.8259 478.878 70.2678 478.825C70.2754 478.928 69.9033 478.977 69.9109 479.08C68.5973 479.399 66.4559 480.027 65.5637 480.293C65.5637 480.293 64.9676 480.498 64.6753 480.593C63.0655 481.129 61.4633 481.783 59.9218 482.533L59.8952 482.544C57.0933 483.898 54.7621 485.32 52.7612 486.883C51.8083 487.628 50.8856 488.423 49.9972 489.194C49.3062 489.791 48.6152 490.388 47.909 490.966C47.5483 491.263 47.1801 491.552 46.808 491.833C46.4701 492.084 46.1284 492.366 45.7563 492.567C45.3273 492.799 44.8641 492.86 44.4198 492.628C44.5831 492.331 44.8337 492.122 45.1147 491.875C45.7639 491.305 46.5232 490.867 47.1952 490.324C47.9356 489.723 48.657 489.099 49.3783 488.476C50.2782 487.7 51.2084 486.894 52.1803 486.133C54.2343 484.529 56.6225 483.072 59.4852 481.688L59.5118 481.677C61.095 480.913 62.7314 480.243 64.3791 479.696C64.736 479.578 65.0929 479.46 65.4574 479.346C65.2296 478.118 64.7284 476.943 64.2311 475.992C63.559 474.711 62.8908 473.844 62.8832 473.832L58.2816 467.946C57.7919 466.916 57.4539 465.596 57.2451 464.535C57.1388 463.999 57.0667 463.532 57.0173 463.197C56.9945 463.03 56.9755 462.897 56.968 462.805C56.9604 462.76 56.9566 462.726 56.9566 462.703C56.9528 462.68 56.9528 462.668 56.9528 462.668L56.9186 462.334C56.5123 462.456 55.8251 462.931 55.567 463.387C55.2291 463.973 55.1228 464.463 55.0202 465.117C54.8266 466.391 54.7849 467.711 54.9557 468.988C55.0544 469.722 55.2253 470.444 55.4797 471.14C55.5708 471.388 55.4455 471.661 55.1987 471.753C55.1455 471.772 55.0886 471.783 55.0354 471.783C54.8418 471.783 54.6596 471.665 54.5912 471.471C54.0293 469.939 53.8736 468.41 53.904 467.068C53.7825 467.056 53.661 467.053 53.5471 467.053C52.4993 467.053 51.7589 467.387 51.7361 467.395L51.4438 467.524L51.607 467.798L51.6108 467.806C51.664 467.893 52.1272 468.68 52.5714 469.627C52.7954 470.102 53.0118 470.616 53.1751 471.102C53.2358 471.281 53.2852 471.456 53.3269 471.623L52.6131 472.992C52.6018 472.996 52.5904 472.996 52.5752 473C49.7694 473.608 47.0662 474.563 44.4085 475.65C43.7061 475.939 43.0113 476.236 42.3165 476.547C41.9786 476.7 41.6407 476.855 41.3028 477.011C41.0218 477.141 40.6953 477.251 40.4751 477.475C39.2335 478.221 38.03 478.962 36.9138 479.897L35.2015 481.441L31.0592 485.171L30.6416 485.384L28.3826 486.529L24.1872 488.639C24.0809 488.689 23.8911 488.784 23.8911 488.784C23.8911 488.784 23.3975 489.073 22.8773 489.407C22.8508 489.339 22.8318 489.274 22.8052 489.206C22.5129 489.404 22.3648 489.791 22.0914 489.898C22.0952 489.909 22.099 489.924 22.1066 489.936C22.0269 489.997 21.9547 490.054 21.894 490.103C20.9334 490.925 20.1893 491.628 19.7678 492.248C19.4907 492.655 19.3274 492.982 19.2401 493.172L14.7866 494.666C14.6575 494.723 14.5246 494.784 14.3917 494.841C13.9133 495.05 13.4198 495.263 12.9376 495.556C12.5465 495.792 12.2238 496.046 11.9504 496.332C11.5024 496.803 10.9709 498.18 11.0012 498.248C11.024 498.305 11.8441 498.955 12.9338 499.081C13.6552 499.164 14.3841 499.1 15.0979 499.016C15.3561 498.986 15.5953 498.959 15.8383 498.94C16.2141 498.91 16.5976 498.898 16.9773 498.898C17.5126 498.898 18.0593 498.929 18.5909 498.986C18.7427 499.001 18.8946 499.02 19.0427 499.039L19.3047 499.073C19.8931 499.153 20.4854 499.202 21.0739 499.263C21.2675 499.282 21.4612 499.305 21.6548 499.332C21.9472 499.37 22.2433 499.396 22.5356 499.438C24.5137 499.72 27.1524 499.879 29.7456 500.442C29.7722 500.465 29.7987 500.484 29.8291 500.507C30.7631 500.545 31.4579 500.838 32.3729 501.157C32.95 501.336 33.5423 501.522 34.1687 501.727C35.9494 502.313 37.6997 502.533 39.3133 502.533C41.671 502.533 43.744 502.07 45.2323 501.609C46.6751 501.161 47.5673 500.712 47.6357 500.678C47.6471 500.67 47.7116 500.64 47.8217 500.587C48.2545 500.377 49.3518 499.853 50.4604 499.332C51.0147 499.073 51.5729 498.815 52.0512 498.598C52.5296 498.381 53.7825 497.86 54.1242 497.701C55.2367 497.18 56.3757 496.655 57.2945 495.814C57.9779 495.187 58.5702 494.404 59.1663 493.697C60.3888 492.24 61.6113 490.738 62.5757 489.092C63.0085 488.354 63.4907 487.468 64.0222 486.411C64.1134 486.228 64.2083 486.038 64.3032 485.844C64.5424 485.749 64.755 485.666 64.9297 485.601C64.9942 485.574 65.0511 485.555 65.1043 485.533C65.2106 485.491 65.2979 485.457 65.3663 485.434C65.3928 485.422 65.4612 485.396 65.5485 485.369C65.8826 485.255 66.5394 485.05 67.3368 484.803C68.1417 484.552 68.9466 484.293 69.7477 484.027C69.7477 484.031 69.7477 484.034 69.7439 484.038C70.1008 483.882 70.3817 483.818 70.6893 483.795C70.6931 483.768 70.6969 483.742 70.7007 483.711C72.3826 483.156 74.0645 482.597 75.7616 482.091C76.3312 481.92 76.9045 481.768 77.4854 481.628C77.7891 481.555 81.3428 480.688 81.5706 480.532C81.6845 480.453 81.7832 480.365 81.8706 480.251C81.9123 480.194 81.9503 480.126 81.9769 480.049C82.0034 479.973 82.0186 479.89 82.0186 479.806C82.0376 479.662 81.9958 479.536 81.9389 479.441ZM21.6396 498.24C20.8347 498.374 20.0032 498.195 19.2059 498.088C19.0465 498.066 18.887 498.047 18.7314 498.031C17.7594 497.925 16.776 497.91 15.8003 497.986C14.9005 498.054 13.9931 498.263 13.0932 498.115C13.0097 498.1 12.1706 497.917 12.201 497.837C12.3529 497.419 12.5503 497.1 12.8806 496.796C13.5412 496.195 14.4069 495.894 15.208 495.533C14.9764 495.64 14.703 496.016 14.7524 496.278C14.8359 496.712 15.3143 496.834 15.6826 496.921C16.5406 497.13 17.4329 497.138 18.3023 497.244C19.4261 497.381 20.6411 497.636 21.7725 497.526C21.8143 497.522 21.9889 497.507 21.9889 497.507C22.0231 497.678 22.1218 497.97 22.2205 498.123C22.137 498.145 22.1104 498.161 21.6396 498.24ZM25.6983 496.294C24.882 496.4 24.1872 495.91 23.9063 495.229C23.9632 494.586 24.4188 493.917 25.2351 493.811C26.0514 493.704 26.9588 494.252 27.1524 494.963C26.9626 495.67 26.5146 496.187 25.6983 496.294ZM77.4626 480.616C74.6492 481.224 71.9688 482.251 69.2313 483.103C66.6116 483.917 64.0033 484.795 61.5354 486.004C60.2749 486.62 59.0448 487.339 57.9134 488.172C57.4388 488.521 55.2633 490.126 54.8039 490.514L55.5366 490.59C55.548 490.59 56.053 490.643 56.8161 490.643C57.7387 490.643 58.6803 490.582 59.5839 490.392C60.0509 490.293 60.5217 490.164 60.9393 489.932C60.9773 489.913 61.0912 489.871 61.1102 489.833C60.9089 490.35 60.3356 490.97 59.9825 491.385C59.1017 492.43 58.2588 493.514 57.2793 494.476C56.2618 495.476 55.0582 496.229 53.7673 496.83C52.5942 497.377 51.3792 497.83 50.2098 498.389C48.9493 498.993 47.7002 499.632 46.4017 500.157C45.9234 500.351 45.4374 500.526 44.94 500.682C44.9362 500.682 44.9362 500.685 44.9324 500.685C43.5162 501.123 41.5533 501.556 39.3399 501.556C37.8136 501.556 36.1734 501.351 34.5067 500.8C33.9713 500.625 33.4512 500.457 32.95 500.298C33.3942 500.119 33.9523 499.849 34.6509 499.442C35.2204 499.107 35.8241 498.815 36.462 498.628C36.7164 498.556 36.9783 498.503 37.2441 498.48C37.5137 498.457 37.7718 498.499 38.0414 498.507C38.2388 498.514 38.4324 498.51 38.6299 498.495C38.9716 498.469 39.3133 498.412 39.6436 498.328C39.9777 498.244 40.289 498.1 40.6118 497.974C40.8434 497.887 41.075 497.807 41.3141 497.739C41.4318 497.704 41.5457 497.678 41.6672 497.647C41.7698 497.624 43.5124 497.187 44.4996 497.225C44.6401 497.233 44.7805 497.225 44.921 497.233C47.7534 497.609 47.2788 497.423 49.1657 496.948C50.4832 496.617 51.8424 496.472 52.6093 495.769C53.0498 495.366 53.6041 494.723 53.0877 494.138C52.7195 493.723 52.0892 493.795 51.6374 494.016C51.3716 494.145 51.0831 494.233 50.7983 494.309C50.3161 494.438 49.8226 494.522 49.329 494.579C48.9455 494.621 48.5583 494.647 48.171 494.659C47.8559 494.666 47.5408 494.666 47.2294 494.632C46.9523 494.602 46.6485 494.56 46.3979 494.43C46.2423 494.351 46.1018 494.214 46.0562 494.043C45.9803 493.757 46.1815 493.495 46.3827 493.316C46.603 493.122 46.8725 492.989 47.1079 492.818C49.2986 491.217 51.2349 489.312 53.3687 487.643C55.529 485.955 57.8716 484.601 60.3319 483.411C60.3357 483.407 60.3394 483.407 60.347 483.403C61.8543 482.673 63.411 482.038 65.0018 481.506C66.7749 480.913 68.5821 480.418 70.4007 479.992C72.3332 479.544 74.2506 479.266 76.2932 479.266C77.0867 479.266 77.903 479.308 78.7459 479.399H78.7534C78.8256 479.407 79.5052 479.483 80.1431 479.624C80.3025 479.658 80.4582 479.696 80.5987 479.738C80.6936 479.764 80.7771 479.795 80.853 479.825C80.7391 479.89 78.8598 480.316 77.4626 480.616Z" fill="#07324A"/>
<path d="M25.7552 466.942C26.188 469.76 26.6816 470.939 26.7347 471.057C28.1129 474.407 28.952 477.259 29.4418 479.266C29.6886 480.27 29.848 481.065 29.943 481.605L30.539 484.381L34.5864 480.738L36.3556 479.145L36.367 479.137C36.5189 479.008 36.9631 478.639 37.6275 478.16C37.6693 478.129 37.6275 477.734 37.6275 477.681C37.6275 476.89 37.5022 476.141 37.3997 475.361C37.3124 474.711 37.1871 473.939 36.9023 473.14C36.4619 471.916 36.2303 471.745 36.105 471.654C35.4824 471.201 34.8673 470.707 34.7952 470.114C34.7078 469.399 34.5977 468.635 34.2446 467.836C33.9637 467.197 33.6675 466.703 33.641 466.657C33.5916 466.577 33.5536 466.494 33.5081 466.414C32.6462 464.813 31.7806 463.212 30.9187 461.615C30.9111 461.604 30.9073 461.592 30.8997 461.581C30.5846 461.421 30.4214 461.113 30.4024 460.653C30.3986 460.657 30.3948 460.657 30.391 460.661C30.0493 460.049 29.7076 459.44 29.3735 458.828C29.0811 458.292 28.8229 457.74 28.561 457.193C28.4395 456.938 28.318 456.687 28.1927 456.432L27.9269 455.908C27.7788 455.607 27.5624 455.197 27.2321 455.052C26.7879 454.858 26.393 455.246 26.1273 455.546C26.0058 455.683 25.8919 455.82 25.7932 455.972C25.5995 456.273 25.459 456.607 25.3641 456.95C25.1705 457.642 25.1401 458.364 25.1401 459.079C25.1401 459.919 25.1857 461.003 25.2806 462.433C25.3565 463.585 25.4515 464.604 25.5578 465.497C25.5464 465.513 25.535 465.528 25.5236 465.547C25.6451 466.007 25.8957 466.475 25.7552 466.942ZM29.0849 461.121C29.1039 460.897 29.1153 460.714 29.1533 460.353L32.8095 467.129L32.8171 467.144L32.8209 467.148C32.8475 467.193 33.117 467.646 33.3714 468.224C33.66 468.878 33.7625 469.52 33.8498 470.228C33.9675 471.216 34.7952 471.882 35.5469 472.429C35.6228 472.486 35.9228 473.232 36.0101 473.467C36.2455 474.129 36.367 474.795 36.4581 475.487C36.2607 475.391 36.0557 475.296 35.8848 475.152C35.714 475.011 35.5887 474.825 35.471 474.642C35.171 474.19 34.7268 473.924 34.3206 473.582C33.9105 473.235 33.565 472.817 33.3372 472.331C33.0183 471.65 32.95 470.905 32.8475 470.171C32.7753 469.657 32.6918 469.14 32.5247 468.646C32.4032 468.289 32.2514 467.942 32.0653 467.615C31.9894 467.482 31.5983 466.897 31.4389 466.718C30.8883 466.053 30.2543 465.452 29.8215 464.695C29.4076 463.965 29.214 463.136 29.1343 462.307C29.0925 461.919 29.0507 461.509 29.0849 461.121Z" fill="#07324A"/>
<path d="M26.0364 494.799C25.9604 494.738 25.8769 494.681 25.782 494.647C25.744 494.632 25.7061 494.621 25.6681 494.617C25.5048 494.586 25.3302 494.613 25.1821 494.685C25.091 494.731 25.0075 494.795 24.9467 494.875C24.9012 494.932 24.8594 494.997 24.8328 495.065C24.8252 495.084 24.8176 495.107 24.81 495.13C24.81 495.134 24.8024 495.149 24.8062 495.153C24.8062 495.153 25.0226 495.522 25.4858 495.529C25.9756 495.537 26.3135 495.058 26.3135 495.058C26.3135 495.058 26.2718 495.012 26.268 495.008C26.192 494.932 26.1161 494.864 26.0364 494.799Z" fill="#07324A"/>
<mask id="mask1" mask-type="alpha" maskUnits="userSpaceOnUse" x="1" y="1002" width="55" height="123">
<rect x="1" y="1002" width="55" height="122.925" fill="#C4C4C4"/>
</mask>
<g mask="url(#mask1)">
<mask id="mask2" mask-type="alpha" maskUnits="userSpaceOnUse" x="1" y="1013" width="51" height="104">
<rect x="1" y="1013.27" width="50.6" height="103.125" fill="#C4C4C4"/>
</mask>
<g mask="url(#mask2)">
</g>
<g clip-path="url(#clip0)">
<path d="M0.182534 1048.92C0.237442 1048.94 0.300192 1048.96 0.355099 1048.97C0.849271 1049.1 1.36698 1049.24 1.87684 1049.34C2.52789 1049.43 3.30444 1049.56 4.21434 1049.88C4.44966 1049.95 4.97521 1050.01 5.53998 1050.05C6.04984 1050 6.59107 1049.84 7.28919 1049.64C7.72061 1049.51 8.19125 1049.37 8.72464 1049.25C7.97162 1049.05 7.05387 1048.86 6.41066 1048.77C5.46938 1048.63 2.73183 1048.37 0.606107 1048.35C0.143311 1048.34 -0.0371008 1048.44 -0.0684768 1048.48C-0.0763208 1048.55 0.0413418 1048.77 0.182534 1048.92Z" fill="#05334C"/>
<path d="M1.37476 1053.14C1.3826 1053.14 1.3826 1053.14 1.39045 1053.15L1.39829 1053.16C1.53948 1053.34 1.82187 1053.63 2.07288 1053.9C2.33173 1054.17 2.66902 1054.35 3.022 1054.52C3.30439 1054.64 3.53186 1054.75 3.72796 1054.86C4.08094 1055.06 4.41039 1055.3 4.64571 1055.68C4.89672 1056.09 5.07713 1056.52 5.21832 1056.96C5.50071 1057.6 5.65759 1058.14 5.80662 1058.65C5.93213 1059.07 6.05763 1059.52 6.26942 1060.04C6.48121 1060.51 6.68515 1060.86 6.84988 1061.02L6.944 1061.12C7.06166 1061.23 7.20286 1061.38 7.24208 1061.4H7.24992C7.42249 1061.4 7.61075 1061.41 7.81469 1061.45C8.09707 1061.46 8.45005 1061.52 8.81872 1061.58C8.8501 1061.59 8.87363 1061.59 8.90501 1061.59C9.50115 1061.65 10.0581 1061.72 10.5601 1061.92C10.6934 1061.95 10.8111 1061.98 10.9052 1062C10.968 1061.92 11.0543 1061.82 11.1405 1061.68C11.2425 1061.42 11.3602 1061.15 11.5092 1060.83C11.6896 1060.44 11.8308 1060.11 11.9563 1059.83C12.1681 1059.33 12.3564 1058.9 12.5995 1058.58C12.5995 1058.5 12.576 1058.39 12.5289 1058.28C12.4819 1058.19 12.4348 1058.1 12.3956 1058.01C12.1838 1057.54 12.0348 1057.01 11.8936 1056.5C11.7445 1055.97 11.5955 1055.44 11.3759 1054.97C11.2033 1054.66 10.9601 1054.28 10.6621 1054.01C10.513 1053.88 10.364 1053.79 10.215 1053.7C10.0816 1053.64 9.94042 1053.58 9.79138 1053.53C9.509 1053.42 9.20308 1053.29 8.89716 1053.14C8.5128 1052.95 8.1206 1052.68 7.76762 1052.2L7.59506 1051.97C7.58721 1051.95 7.57937 1051.94 7.56368 1051.93C7.21855 1051.48 7.09304 1051.48 6.95185 1051.48C6.944 1051.48 6.30864 1051.48 5.58699 1051.44C5.46149 1051.45 5.34383 1051.46 5.21832 1051.46C4.77121 1051.46 4.31626 1051.39 3.82993 1051.21C3.82209 1051.21 3.81424 1051.21 3.81424 1051.21C3.38282 1051.07 3.18672 1051.02 2.90434 1051.25C2.66902 1051.66 2.28466 1052.06 1.90815 1052.45C1.70421 1052.67 1.50811 1052.87 1.37476 1053.04C1.36691 1053.05 1.35123 1053.07 1.34338 1053.09C1.34338 1053.1 1.35907 1053.12 1.37476 1053.14Z" fill="#05334C"/>
<path d="M18.6865 1066.77C18.7728 1066.62 18.8748 1066.47 18.9846 1066.32C19.3375 1065.81 19.7847 1065.17 19.8631 1064.04C19.8945 1063.64 19.9337 1063.24 19.9729 1062.83C20.0984 1061.56 20.2239 1060.23 19.9651 1059.53C19.5886 1058.52 19.1414 1057.55 18.9846 1057.27C18.9767 1057.26 18.9689 1057.26 18.961 1057.25C18.9453 1057.3 18.9297 1057.36 18.914 1057.44C18.8277 1057.95 18.6473 1058.42 18.2786 1058.76C18.1688 1058.86 18.0747 1058.96 17.9884 1059.05C17.7374 1059.33 17.4942 1059.56 17.1412 1059.67C17.2981 1060.02 17.4079 1060.39 17.5177 1060.77C17.5334 1060.83 17.5491 1060.88 17.5648 1060.94C17.9099 1061.93 18.2551 1063.12 18.3806 1063.98C18.3806 1064 18.3884 1064.01 18.3884 1064.03C18.5296 1064.75 18.6316 1065.51 18.6159 1066.26C18.6159 1066.26 18.6159 1066.27 18.6159 1066.28C18.6394 1066.44 18.663 1066.61 18.6865 1066.77Z" fill="#05334C"/>
<path d="M14.5213 1051.82C13.3368 1050.74 11.9563 1050.6 10.7326 1050.47C10.5522 1050.45 10.3718 1050.43 10.2071 1050.41C10.113 1050.4 9.99529 1050.4 9.86194 1050.41C9.68938 1050.44 9.52465 1050.48 9.35993 1050.52C9.17167 1050.59 8.96773 1050.7 8.74025 1050.86L8.58337 1050.98C8.61475 1051.02 8.64613 1051.07 8.6775 1051.1C8.7481 1051.19 8.81085 1051.29 8.8736 1051.37L8.88144 1051.39C8.89713 1051.4 8.90498 1051.42 8.92067 1051.43C8.95204 1051.47 8.97557 1051.51 9.00695 1051.54C9.00695 1051.54 9.01479 1051.54 9.01479 1051.55C9.14814 1051.69 9.32071 1051.81 9.50897 1051.91C9.65016 1051.98 9.79919 1052.04 9.97176 1052.1C10.2463 1052.2 10.5601 1052.33 10.8974 1052.52C11.1248 1052.63 11.3366 1052.78 11.517 1052.94C11.5641 1052.98 11.6033 1053.01 11.6504 1053.05C12.0661 1053.41 12.3563 1053.86 12.5838 1054.34C12.5917 1054.35 12.5995 1054.35 12.5995 1054.37C12.8034 1054.73 13.0152 1055.41 13.2584 1056.2C13.431 1056.74 13.6035 1057.29 13.7526 1057.67C13.9879 1058.02 14.3566 1058.09 15.141 1058.17C15.4782 1058.2 15.8312 1058.24 16.192 1058.32C16.2156 1058.33 16.2313 1058.33 16.2548 1058.34C16.3568 1058.28 16.4587 1058.24 16.5607 1058.19C17.1176 1057.93 17.4628 1057.74 17.5255 1057.31C17.5334 1057.26 17.5412 1057.23 17.5491 1057.18C17.5883 1056.85 17.5883 1056.35 17.4942 1055.62C17.4549 1055.18 16.1842 1053.33 14.5213 1051.82Z" fill="#05334C"/>
<path d="M-0.139135 1050.34C-0.241107 1050.3 -0.343079 1050.25 -0.445051 1050.19C-1.26083 1049.98 -2.03738 1049.81 -2.71197 1049.89C-3.96701 1050.03 -5.35539 1050.34 -5.51227 1050.38C-6.81438 1050.74 -7.26933 1051.01 -7.65369 1051.3C-7.43405 1051.43 -7.23796 1051.58 -7.05754 1051.71C-6.81438 1051.89 -6.57906 1052.06 -6.35943 1052.16C-5.92801 1052.31 -5.39462 1052.42 -4.63375 1052.47C-4.35921 1052.48 -4.08467 1052.49 -3.81797 1052.49C-3.46499 1052.49 -3.08063 1052.51 -2.71981 1052.53C-2.70412 1052.53 -2.69628 1052.53 -2.68844 1052.53C-2.50802 1052.52 -2.30408 1052.51 -2.09229 1052.5C-1.46477 1052.47 -0.892156 1052.45 -0.405828 1052.48C-0.0999122 1052.42 0.14325 1052.33 0.260911 1052.18C0.488387 1051.85 0.833522 1051.44 1.28063 1050.93C1.35907 1050.85 1.42967 1050.76 1.50026 1050.68C1.4532 1050.67 1.41398 1050.67 1.36691 1050.67C0.817835 1050.59 0.323661 1050.52 -0.139135 1050.34Z" fill="#05334C"/>
<path d="M12.3486 1064.58C12.4192 1064.84 12.5054 1065.13 12.6074 1065.48C13.0624 1066.98 13.2114 1068.56 13.3604 1070.09C13.3683 1070.21 13.384 1070.34 13.3918 1070.45C13.4546 1070.92 13.5016 1071.37 13.5408 1071.8C13.5644 1071.99 13.5879 1072.19 13.6114 1072.38C13.6428 1072.6 13.6742 1072.75 13.7056 1072.87C13.8938 1072.71 14.1527 1072.48 14.3645 1072.27C14.6547 1072.01 14.9763 1071.69 15.3528 1071.38C16.8432 1070.1 17.1883 1068.45 17.2275 1066.37C17.1883 1066.01 17.1491 1065.61 17.1099 1065.18C17.0785 1064.82 17.0471 1064.48 17.0157 1064.24C16.8432 1063.38 16.6 1062.56 16.3961 1061.89C16.3412 1061.71 16.2941 1061.54 16.247 1061.38C16.0274 1060.75 15.8078 1060.2 15.6587 1059.88C15.5018 1059.69 15.3057 1059.59 15.0469 1059.55L14.6704 1059.49C14.5998 1059.48 14.5292 1059.48 14.4586 1059.46L14.0036 1059.4C13.9174 1059.38 13.8546 1059.38 13.8075 1059.38C13.7448 1059.53 13.6742 1059.67 13.6036 1059.78C13.533 1059.91 13.4702 1060.03 13.4232 1060.14C13.031 1061.16 12.678 1061.86 12.3642 1062.36C12.1054 1063.03 12.074 1063.46 12.2231 1064.14C12.2701 1064.26 12.3093 1064.42 12.3486 1064.58Z" fill="#05334C"/>
<path d="M3.95545 1068.77L3.97114 1068.89C3.99467 1069.08 4.01821 1069.27 4.0339 1069.46C4.16724 1070.55 4.31628 1071.78 4.31628 1074.68C4.32412 1074.91 4.33197 1075.16 4.33197 1075.41C4.37119 1076.23 4.45747 1076.5 4.51238 1076.59C4.63004 1076.6 4.92027 1076.54 5.1399 1076.5C5.39091 1076.45 5.67329 1076.39 6.00274 1076.35C7.68135 1076.16 9.95612 1075.27 11.3445 1074.5C12.1524 1074.06 12.3093 1073.41 12.176 1071.9C12.1211 1071.47 12.074 1071.04 12.0348 1070.62C12.0348 1070.6 12.0348 1070.6 12.0348 1070.58C11.7524 1068.31 11.4151 1066.73 11.0072 1064.9C11.0072 1064.88 10.9994 1064.87 10.9994 1064.86C10.968 1064.74 10.9366 1064.62 10.9131 1064.51C10.7248 1063.81 10.4974 1063.46 10.1365 1063.27C10.0581 1063.25 9.97965 1063.24 9.90121 1063.22C9.5247 1063.14 9.06974 1063.05 8.65401 1062.97C8.36378 1062.94 8.05002 1062.9 7.69704 1062.84C7.46957 1062.83 7.28131 1062.82 7.12443 1062.8C6.94402 1062.8 6.80283 1062.84 6.67732 1062.93C6.39494 1063.78 5.57916 1064.99 4.96733 1065.82C4.95949 1065.82 4.95949 1065.83 4.95164 1065.84C4.04958 1067.22 3.88486 1067.62 3.92408 1068.26C3.92408 1068.4 3.93977 1068.57 3.95545 1068.77Z" fill="#05334C"/>
<path d="M-5.622 1070.71C-5.60631 1070.96 -5.59847 1071.22 -5.59063 1071.46C-5.58278 1071.65 -5.56709 1071.85 -5.55141 1072.09C-5.4965 1072.96 -5.48081 1073.64 -5.47297 1074.19C-5.44943 1075.71 -5.41022 1075.84 -4.90035 1076.17C-3.91201 1076.81 -1.33918 1076.98 0.19825 1077.09L0.362977 1077.1C1.43761 1077.17 2.17494 1077.02 2.55145 1076.65C2.84952 1076.36 2.93581 1075.9 2.9515 1075.39C2.94365 1075.18 2.93581 1074.95 2.93581 1074.71C2.85737 1073.11 2.70833 1070.42 2.58283 1068.92C2.5593 1068.73 2.54361 1068.56 2.53577 1068.39C2.53577 1068.37 2.53576 1068.36 2.52792 1068.35C2.42595 1067.39 2.14357 1067.18 -0.00569248 1066.05C-1.25289 1065.4 -1.56665 1065.48 -1.83335 1065.8C-1.88041 1065.87 -1.92747 1065.93 -1.97454 1066L-2.04513 1066.09C-2.07651 1066.14 -2.11573 1066.19 -2.14711 1066.23C-2.17064 1066.27 -2.20202 1066.3 -2.22555 1066.34C-2.65697 1066.95 -3.3943 1067.98 -4.42971 1068.74C-4.69641 1068.99 -4.91604 1069.18 -5.09645 1069.33C-5.52788 1069.69 -5.64553 1069.79 -5.622 1070.67C-5.62985 1070.68 -5.622 1070.7 -5.622 1070.71Z" fill="#05334C"/>
<path d="M3.29662 1065.67C3.46135 1065.47 3.62607 1065.25 3.7908 1065.04C4.12024 1064.54 4.36341 1064.04 4.5752 1063.6C4.81052 1063.11 5.05368 1062.62 5.38313 1062.22C5.38313 1061.76 5.37528 1061.55 4.98308 1060.55V1060.54C4.67717 1059.86 4.434 1059.15 4.3085 1058.75C4.25359 1058.57 4.19868 1058.37 4.14378 1058.17C4.07318 1057.92 4.00258 1057.67 3.9163 1057.42C3.85355 1057.28 3.79864 1057.15 3.75158 1057.04C3.56332 1056.58 3.46919 1056.36 3.21034 1056.17C3.04561 1056.06 2.83383 1055.96 2.59851 1055.86C2.53575 1055.83 2.46516 1055.8 2.40241 1055.77C1.1003 1055.21 0.464938 1054.31 0.276682 1054C0.166866 1053.93 -0.0606122 1053.9 -0.335153 1053.87C-0.711665 1053.93 -1.11955 1053.95 -1.54313 1053.95C-1.91964 1053.95 -2.31184 1053.94 -2.6962 1053.92C-2.84523 1053.92 -2.99427 1053.93 -3.11193 1053.92C-3.37078 1053.91 -3.62179 1053.9 -3.85711 1053.89C-4.13165 1053.89 -4.38266 1053.87 -4.62582 1053.87C-4.87683 1053.86 -5.10431 1053.86 -5.29256 1053.86C-5.41807 1053.86 -5.53573 1053.86 -5.6377 1053.87C-5.71614 1053.87 -5.80242 1053.9 -5.88871 1053.95C-5.92008 1053.99 -5.95146 1054.04 -5.98283 1054.09C-6.17893 1054.38 -6.39072 1054.71 -6.48485 1055.18C-6.50054 1055.31 -6.51623 1055.43 -6.53191 1055.53C-6.53191 1055.59 -6.53976 1055.65 -6.5476 1055.71C-6.57113 1056.11 -6.52407 1056.37 -6.34366 1056.61C-6.0299 1056.77 -5.77105 1056.97 -5.51219 1057.16C-5.30825 1057.32 -5.1043 1057.48 -4.86114 1057.63C-4.70426 1057.71 -4.53954 1057.81 -4.38266 1057.9C-3.88849 1058.19 -3.56688 1058.44 -3.29234 1058.9C-3.22174 1059 -3.16684 1059.11 -3.11193 1059.23C-3.05702 1059.34 -3.00996 1059.46 -2.96289 1059.59C-2.84523 1059.89 -2.72757 1060.25 -2.59422 1060.69C-2.46088 1061.12 -2.31184 1061.57 -2.15496 1061.99C-2.15496 1062 -2.14712 1062 -2.14712 1062C-2.13143 1062.04 -2.11574 1062.07 -2.1079 1062.11C-1.81767 1062.84 -1.59803 1063.11 -1.40193 1063.35L-1.37056 1063.4C-0.829324 1064.02 -0.0919876 1064.51 1.12383 1065.07C1.51603 1065.25 1.84548 1065.45 2.13571 1065.61C2.95149 1066.08 2.95149 1066.08 3.29662 1065.67Z" fill="#05334C"/>
<path d="M36.1708 1053.86C36.6885 1053.69 37.7866 1052.34 37.8729 1051.87C37.8101 1051.74 37.7552 1051.69 37.669 1051.69C37.6219 1051.69 37.5591 1051.71 37.4885 1051.73C36.3119 1052.13 35.9511 1052.63 35.9276 1052.85C35.8805 1053.22 36.0296 1053.76 36.1551 1053.87C36.1551 1053.87 36.1629 1053.86 36.1708 1053.86Z" fill="#05334C"/>
<path d="M5.38306 1047.5L9.43056 1048.34H9.86982C9.86982 1048.34 10.3483 1047.52 10.764 1046.51C11.7132 1044.18 12.8741 1042.23 13.0937 1040.98C13.3133 1039.74 14.1448 1036.64 14.0742 1034.42C14.0036 1032.22 15.243 1029.94 15.4547 1028.9C15.6587 1027.86 15.5803 1026 15.0704 1024.21C14.5684 1022.43 13.1172 1020.97 12.4976 1020.97C11.8779 1020.97 11.3288 1021.81 10.7719 1022.43C10.2228 1023.05 8.35593 1025.67 7.53231 1026.99C6.70869 1028.3 6.36356 1030.64 6.15177 1032.78C5.94782 1034.93 5.3909 1036.71 5.53209 1038.72C5.67329 1040.72 5.9792 1043.48 5.82232 1045.06C5.66544 1046.65 5.38306 1047.5 5.38306 1047.5Z" fill="#05334C"/>
<path d="M34.8215 1052.72C34.9235 1051.88 35.7393 1051.16 37.1198 1050.69C37.9121 1050.41 38.6024 1050.74 38.9161 1051.52C39.0259 1051.79 38.9867 1052.12 38.7906 1052.53C38.4219 1053.33 37.3473 1054.64 36.5002 1054.91C36.3747 1054.95 36.2492 1054.97 36.1315 1054.97C35.8805 1054.97 35.6452 1054.89 35.4412 1054.72C34.8529 1054.22 34.7666 1053.16 34.8215 1052.72ZM49.5055 1085.79C47.2308 1083.86 45.5757 1084 43.4343 1083.69C41.2928 1083.38 38.3984 1081.45 35.9825 1080.34C33.5665 1079.23 30.7427 1077.45 28.7424 1076.44C26.7422 1075.44 24.2557 1073.17 22.8124 1071.99C21.8789 1071.24 21.2906 1070.43 20.8671 1069.56C20.922 1068.37 21.0475 1066.74 21.173 1065.13C21.4711 1064.65 21.9731 1063.98 22.4359 1063.1C23.1261 1061.79 23.887 1061.52 25.4009 1061.6C26.9148 1061.67 26.6403 1062.21 28.162 1061.8C29.6759 1061.4 32.0212 1060.07 32.7821 1059.43C33.543 1058.8 35.402 1056.54 36.9865 1055.75C38.571 1054.96 39.6064 1052.4 39.8809 1051.78C40.1555 1051.16 39.2613 1049.85 40.0849 1049.23C40.9085 1048.61 41.6694 1046.33 40.634 1045.67C39.5985 1045 38.7043 1044.95 37.2532 1044.88C35.802 1044.81 35.253 1043.78 34.7666 1043.16C34.2803 1042.54 32.837 1041.57 30.6956 1042.05C28.5542 1042.54 25.5892 1044.67 24.0047 1045.16C22.4202 1045.64 21.7299 1046.74 20.6945 1047.17C19.6591 1047.61 18.2785 1047.57 17.4549 1048.05C16.6235 1048.54 15.1096 1049.29 13.5329 1049.4C13.5329 1049.4 14.4193 1049.85 15.2037 1050.27C15.9881 1050.7 18.8512 1054.42 19.4238 1055.29C19.8081 1055.88 20.4043 1056.78 20.8357 1057.93C20.6788 1057.57 20.4984 1057.19 20.2945 1056.81C20.4592 1057.14 20.718 1057.7 20.9769 1058.34C21.1181 1058.79 21.2357 1059.28 21.2985 1059.81C21.5024 1061.52 21.0867 1064.69 20.9455 1065.54C20.9534 1065.53 20.9612 1065.52 20.9612 1065.5C20.9534 1065.53 20.9455 1065.56 20.9377 1065.58C20.9377 1065.57 20.9455 1065.56 20.9455 1065.54C20.9377 1065.57 20.922 1065.6 20.9141 1065.64C20.671 1066.29 20.3494 1066.75 20.1062 1067.1C19.9885 1067.27 19.8866 1067.42 19.8317 1067.53C19.6512 1067.9 19.2434 1068.74 18.5374 1068.74C18.4825 1068.74 18.4354 1068.73 18.3727 1068.72C18.0981 1070.05 17.502 1071.33 16.247 1072.41C15.894 1072.71 15.5881 1073 15.3057 1073.26C14.6232 1073.91 14.0977 1074.4 13.5329 1074.4C13.4466 1074.4 13.3604 1074.38 13.2662 1074.36C13.0309 1074.89 12.6309 1075.33 11.9955 1075.7C10.5365 1076.5 8.08134 1077.48 6.14388 1077.71C5.86934 1077.74 5.62617 1077.79 5.39085 1077.84C5.10062 1077.89 4.80255 1077.96 4.52017 1077.96C4.20641 1077.96 3.90049 1077.88 3.62595 1077.66C3.59457 1077.63 3.57104 1077.61 3.53967 1077.58C3.52398 1077.59 3.51614 1077.61 3.50045 1077.63C2.91215 1078.21 2.03362 1078.49 0.833485 1078.49C0.645229 1078.49 0.449127 1078.48 0.253029 1078.47L0.0883064 1078.46C-1.69228 1078.34 -4.38278 1078.16 -5.66919 1077.32C-5.99864 1077.11 -6.23396 1076.89 -6.40653 1076.64C-6.85364 1076.89 -7.43409 1077.04 -8.08514 1077.08C-8.4695 1077.11 -8.88523 1077.12 -9.26959 1077.12C-9.98339 1077.12 -10.5874 1077.08 -10.6423 1077.08C-10.9247 1077.08 -11.2384 1077.07 -11.5679 1077.06C-13.5054 1077.03 -15.7017 1076.98 -16.5331 1075.92C-16.6508 1075.77 -16.8234 1075.62 -17.0116 1075.46C-17.5764 1074.97 -18.0706 1074.45 -18.1804 1073.62C-18.502 1073.74 -18.8863 1073.83 -19.3491 1073.87C-19.5609 1073.9 -19.757 1073.91 -19.9453 1073.91C-21.7494 1073.91 -22.6593 1072.97 -23.3966 1072.2C-23.4829 1072.12 -23.5614 1072.03 -23.6476 1071.95C-24.5654 1071.03 -26.0322 1068.84 -26.8558 1067.34C-27.7344 1065.7 -26.9657 1064.73 -26.2205 1063.78C-26.1185 1063.65 -26.0165 1063.52 -25.9067 1063.38C-25.6871 1063.08 -25.4596 1062.83 -25.2243 1062.62C-25.3184 1062.54 -25.4125 1062.44 -25.4831 1062.33C-25.8989 1061.68 -25.538 1060.96 -25.2714 1060.43C-24.7693 1059.44 -23.2947 1057.97 -22.0553 1056.97C-21.4592 1056.48 -20.4002 1056.22 -19.3099 1056.08C-19.3884 1055.71 -19.2864 1055.18 -18.5177 1054.6C-17.3724 1053.74 -16.1958 1053.2 -14.6584 1052.53L-14.2976 1052.36C-13.2779 1051.91 -11.5757 1051.14 -10.1167 1050.82C-9.77945 1050.75 -9.47353 1050.74 -9.19115 1050.76C-9.13624 1050.7 -9.07349 1050.65 -8.99505 1050.59C-8.87739 1050.51 -8.77542 1050.43 -8.67344 1050.35C-8.16358 1049.94 -7.63019 1049.53 -5.86529 1049.04C-5.85745 1049.04 -5.8496 1049.03 -5.83392 1049.03C-5.77116 1049.02 -4.27296 1048.68 -2.86889 1048.52C-2.3904 1048.46 -1.91191 1048.49 -1.43343 1048.56C-1.44127 1048.44 -1.43343 1048.32 -1.4099 1048.19C-1.34715 1047.88 -1.09614 1047.21 -0.0450401 1047.01C-1.99035 1047.12 -4.0298 1047.36 -5.83392 1047.57L-6.35162 1047.64C-9.66963 1048.03 -11.7248 1048.62 -13.2936 1049.14C-14.7055 1049.61 -17.4979 1051.08 -19.7413 1052.27C-20.212 1052.53 -20.6512 1052.75 -21.0277 1052.96C-21.6396 1053.28 -22.1338 1053.57 -22.573 1053.85C-22.5495 1052.83 -22.6671 1051.21 -23.2162 1049.71C-23.9771 1047.64 -25.4204 1047.09 -26.0479 1046.67C-26.6676 1046.26 -26.9421 1047.05 -27.2873 1047.65C-27.6324 1048.26 -28.4639 1048.03 -28.1187 1049.18C-27.7736 1050.33 -27.0127 1051.29 -27.3579 1052.05C-27.703 1052.82 -27.4285 1052.95 -27.0833 1053.78C-26.7382 1054.6 -26.8166 1055.51 -26.1185 1055.95C-26.095 1055.97 -26.0793 1055.98 -26.0558 1055.99C-26.2519 1056.16 -26.4166 1056.36 -26.4793 1056.62C-26.5813 1057.07 -26.3381 1057.42 -26.1813 1057.62C-26.393 1057.79 -26.7696 1058.04 -27.0598 1058.24C-28.2991 1059.07 -29.5699 1059.92 -29.4757 1060.98C-29.4365 1061.41 -30.1974 1062.33 -31.727 1063.27C-32.0407 1063.47 -32.4643 1063.78 -32.5427 1064.29C-32.629 1064.81 -32.3074 1065.19 -32.0564 1065.5C-31.8682 1065.74 -31.6642 1065.97 -31.5701 1066.29C-31.4289 1066.76 -31.7505 1067.62 -32.0721 1068.46C-32.3466 1069.19 -32.6682 1070.02 -32.7938 1070.86C-33.1154 1073.02 -31.1073 1074.05 -29.162 1075.04C-28.9659 1075.15 -28.7698 1075.25 -28.5737 1075.35C-26.6833 1076.34 -25.1066 1077.48 -24.6203 1077.89C-24.5732 1078.91 -23.7731 1079.41 -21.4827 1079.84C-21.4592 1079.85 -21.4356 1079.85 -21.4121 1079.85C-22.4318 1081.06 -23.5457 1080.21 -24.989 1080.21C-26.4793 1080.21 -27.0833 1080.42 -29.1541 1081.18C-31.225 1081.94 -30.3229 1083.39 -31.2955 1084.56C-32.2604 1085.73 -32.4016 1087.05 -32.4643 1088.67C-32.5349 1090.29 -31.6328 1089.94 -31.774 1091.87C-31.9152 1093.8 -29.9778 1094.5 -27.3579 1095.04C-24.738 1095.59 -23.5614 1094.84 -21.6317 1093.94C-19.7021 1093.04 -19.7649 1092.28 -18.651 1090.7C-17.5293 1089.11 -16.3919 1088.21 -13.5995 1086.01C-11.3482 1084.22 -10.9561 1083.47 -10.4933 1082.68C-10.3599 1082.76 -10.203 1082.84 -10.0226 1082.91C-9.21468 1083.24 -6.17121 1083.42 -4.64163 1083.49C-4.6181 1083.56 -4.58672 1083.63 -4.55534 1083.7C-4.24158 1084.24 -3.55916 1084.39 -2.83751 1084.39C-2.54728 1084.39 -2.24921 1084.37 -1.96682 1084.33C-0.507839 1084.18 0.394222 1083.97 0.935459 1083.8C0.951145 1083.82 0.974678 1083.84 0.998207 1083.86C1.49238 1084.33 2.316 1084.45 3.50045 1084.26C4.88884 1084.02 5.97131 1083.43 6.65374 1082.96C7.24988 1083.47 8.20685 1083.22 8.52845 1083.14C9.94037 1082.77 11.368 1081.87 12.0112 1081.43C12.372 1081.53 12.9054 1081.53 13.6977 1081.3C14.8899 1080.96 15.9253 1079.7 16.3646 1079.1C16.9529 1079.02 17.9883 1078.65 18.961 1077.15C19.2198 1076.75 19.4473 1076.32 19.6591 1075.9C19.9179 1076.03 20.2788 1076.22 20.7965 1076.46C22.9379 1077.45 23.2124 1078.36 25.0714 1080.29C26.9383 1082.22 32.1781 1086.92 35.9197 1088.85C39.6613 1090.78 42.8695 1091.54 47.0111 1091.34C51.1528 1091.14 51.0822 1090.23 51.4273 1089.76C51.7803 1089.25 51.7803 1087.72 49.5055 1085.79Z" fill="#05334C"/>
</g>
</g>
<mask id="mask3" mask-type="alpha" maskUnits="userSpaceOnUse" x="286" y="945" width="90" height="136">
<path d="M359.558 1060.42C379.888 1026.81 370.541 961.559 349 950L294.665 957.533L286.86 1073.86C331.901 1078.69 353.812 1074.53 359.558 1060.42Z" fill="#C4C4C4" stroke="#8BD069"/>
</mask>
<g mask="url(#mask3)">
<path d="M310.103 1001.65C310.775 1000.83 311.531 999.897 311.786 999.42C312.125 998.786 312.969 998.241 314.034 997.553C314.878 997.007 315.835 996.388 316.61 995.665C317.528 994.815 320.006 992.982 322.406 991.212C324.555 989.625 326.778 987.988 327.411 987.384C328.461 986.376 330.002 985.452 331.784 984.381C332.402 984.007 333.04 983.624 333.688 983.221C334.159 982.926 334.738 982.616 335.376 982.307C331.21 983.693 327.033 985.29 322.725 987.816C316.998 991.173 311.447 994.53 309.744 997.277C308.037 1000.02 306.638 1002.95 306.147 1005.09C305.661 1007.23 305.843 1007.53 305.902 1007.96C305.961 1008.39 307.001 1008.51 307.61 1007.9C307.914 1007.6 308.189 1007.14 308.557 1006.74C308.606 1006.68 308.66 1006.63 308.714 1006.58C308.694 1006.51 308.684 1006.44 308.689 1006.37C308.709 1006.04 308.64 1005.74 308.562 1005.43C308.424 1004.85 308.257 1004.13 308.792 1003.33C309.072 1002.9 309.573 1002.3 310.103 1001.65Z" fill="#07324A"/>
<path d="M351.374 979.038C349.078 979.382 346.894 979.864 345.367 980.203C344.715 980.346 344.15 980.473 343.723 980.552C342.163 980.852 336.735 982.818 334.37 984.302C333.712 984.715 333.069 985.098 332.446 985.472C330.729 986.504 329.247 987.393 328.294 988.303C327.607 988.961 325.448 990.554 323.166 992.24C320.796 993.989 318.342 995.798 317.479 996.599C316.62 997.4 315.614 998.049 314.725 998.624C313.925 999.14 313.096 999.681 312.915 1000.02C312.601 1000.61 311.83 1001.55 311.089 1002.46C310.579 1003.08 310.098 1003.67 309.857 1004.04C309.641 1004.36 309.681 1004.59 309.808 1005.13C309.862 1005.36 309.926 1005.62 309.95 1005.93C309.985 1005.92 310.014 1005.91 310.049 1005.91C311.457 1005.75 312.699 1006.28 313.979 1008.02C314.441 1008.65 314.745 1009.23 315.03 1009.68C315.167 1009.46 315.324 1009.24 315.486 1009C315.859 1008.48 316.247 1007.93 316.389 1007.42C316.448 1007.21 316.458 1007.07 316.463 1006.93C316.507 1006.16 316.703 1005.8 318.401 1004.24C318.98 1003.71 319.491 1003.21 319.981 1002.73C321.375 1001.36 322.582 1000.17 324.516 999.135C327.573 997.489 332.623 994.608 333.747 993.645C335.067 992.51 341.952 988.499 343.861 987.674C344.622 987.344 346.231 986.553 347.934 985.713C350.378 984.508 352.905 983.265 354.024 982.832C355.163 982.39 356.939 980.925 358.235 979.859C359.03 979.205 359.29 978.935 359.727 978.67C359.879 978.576 359.854 978.291 359.467 978.33C357.666 978.532 353.764 978.92 351.737 979.028C351.624 979.028 351.502 979.033 351.374 979.038Z" fill="#07324A"/>
<path d="M354.486 984.022C353.421 984.435 350.805 985.722 348.499 986.858C346.781 987.703 345.161 988.499 344.371 988.843C342.565 989.625 335.813 993.557 334.581 994.613C333.153 995.837 327.122 999.184 325.124 1000.26C323.353 1001.21 322.263 1002.28 320.879 1003.63C320.379 1004.12 319.864 1004.63 319.27 1005.18C317.768 1006.56 317.758 1006.72 317.744 1006.99C317.734 1007.17 317.719 1007.41 317.626 1007.75C317.425 1008.48 316.949 1009.15 316.532 1009.74C316.311 1010.05 316.105 1010.34 315.972 1010.6C316.242 1010.68 316.566 1010.65 317.003 1010.48C317.994 1010.1 320.04 1010.11 321.915 1010.42C322.474 1010.22 323.343 1009.85 324.32 1009.42C325.443 1008.93 326.719 1008.37 328.079 1007.83C330.665 1006.82 334.331 1004.99 336.029 1003.59C337.776 1002.16 347.262 994.805 349.446 993.286C351.36 991.954 353.264 989.954 354.947 987.497C355.521 986.661 355.919 985.983 356.267 985.388C356.841 984.405 357.342 983.555 358.328 982.538C359.408 981.427 359.594 981.201 360.164 980.532C360.379 980.277 360.517 980.193 360.64 980.002C360.748 979.829 360.571 979.657 360.365 979.785C360.006 980.006 359.761 980.257 359.064 980.832C357.612 982.031 355.816 983.511 354.486 984.022Z" fill="#07324A"/>
<path d="M359.246 983.432L359.236 983.442C358.357 984.346 357.94 985.059 357.361 986.047C357.003 986.661 356.591 987.359 355.992 988.234C354.22 990.814 352.204 992.933 350.167 994.348C348.003 995.852 338.571 1003.16 336.833 1004.59C335.013 1006.08 331.283 1007.96 328.54 1009.03C327.205 1009.55 325.944 1010.11 324.825 1010.6C324.55 1010.71 324.29 1010.83 324.045 1010.94C324.427 1011.06 324.766 1011.21 325.046 1011.37C326.876 1012.41 329.129 1015.09 329.801 1015.89C330.473 1016.68 331.082 1017.65 333.276 1016.56C335.469 1015.46 338.497 1013.45 340.892 1011.37C342.261 1010.18 347.586 1003.94 350.363 1001.61C353.141 999.283 357.592 994.889 358.259 992.264C358.932 989.64 358.681 985.713 359.535 984.061C359.565 984.007 359.619 983.884 359.687 983.737C359.805 983.467 359.457 983.221 359.246 983.432Z" fill="#07324A"/>
<path d="M361.341 984.612C361.42 984.474 361.484 984.351 361.528 984.243C361.881 983.398 362.941 981.619 364.202 981.019C365.464 980.414 365.527 978.797 364.487 979.151C363.653 979.441 363 979.741 361.974 980.346C361.832 980.429 361.724 980.552 361.66 980.704C361.641 980.754 361.616 980.803 361.592 980.852C361.356 981.329 361.263 981.85 361.12 982.641C361.032 983.142 360.929 983.707 360.767 984.395C360.767 984.395 360.767 984.4 360.767 984.405C360.693 984.739 361.17 984.916 361.341 984.612Z" fill="#07324A"/>
<path d="M358.338 974.33C357.911 973.961 357.484 973.961 357.057 973.229C356.63 972.497 355.717 972.983 355.595 972.801C355.472 972.619 355.29 972.619 355.624 972.128C355.958 971.641 356.547 971.489 356.223 971.091C355.899 970.693 355.32 970.816 355.104 970.604C354.893 970.393 354.495 970.024 353.975 970.083C353.455 970.142 351.507 970.816 350.53 971.917C349.716 972.836 349.323 974.182 348.984 975.116C348.965 975.735 348.744 976.158 348.454 976.507C348.469 976.512 348.484 976.522 348.498 976.527C348.395 976.91 348.283 977.318 348.121 977.696C348.018 977.927 348.199 978.183 348.449 978.163C349.436 978.085 350.3 978.041 351.026 978.006C351.261 977.996 351.482 977.986 351.683 977.972C352.356 977.937 353.372 977.849 354.486 977.741C354.564 977.736 354.633 977.696 354.687 977.642C354.854 977.475 355.02 977.323 355.168 977.19C355.84 976.581 357.607 976.704 358.338 976.212C359.069 975.735 358.765 974.693 358.338 974.33Z" fill="#07324A"/>
<path d="M313.042 981.894C313.243 981.702 313.454 981.52 313.666 981.334C313.666 980.832 313.666 980.331 313.666 979.825C313.656 979.835 313.646 979.839 313.636 979.849C313.651 979.805 313.656 979.756 313.666 979.712C313.666 979.623 313.666 979.535 313.666 979.446C313.666 980.262 312.988 981.078 313.042 981.894Z" fill="#07324A"/>
<path d="M382.625 994.687C381.344 993.316 380.127 994.166 379.548 992.918C378.969 991.67 378.179 992.431 377.811 992.215C377.447 992.004 377.325 990.78 376.957 990.598C376.594 990.416 376.103 990.141 375.19 990.446C374.277 990.75 373.973 990.416 373.09 990.569C372.206 990.721 371.23 989.959 372.633 989.468C374.037 988.981 374.125 988.829 373.546 988.401C372.967 987.974 371.323 987.182 370.317 987.089C369.311 986.995 367.942 986.981 366.111 987.487C364.281 987.988 363.824 988.676 362.544 988.632C361.263 988.588 360.875 986.637 360.389 987.477C360.37 987.512 360.286 988.106 360.232 988.529C360.036 990.072 359.83 991.665 359.53 992.844C358.569 996.609 351.958 1002.24 351.212 1002.87C349.608 1004.21 347.036 1007 344.975 1009.25C343.512 1010.83 342.359 1012.09 341.756 1012.61C339.395 1014.65 336.299 1016.76 333.869 1017.97C333.025 1018.4 332.289 1018.6 331.612 1018.6C330.169 1018.6 329.399 1017.67 328.937 1017.12L328.795 1016.95C326.955 1014.77 325.483 1013.36 324.423 1012.75C323.446 1012.2 321.105 1011.75 319.206 1011.75C318.087 1011.75 317.606 1011.9 317.488 1011.95C317.056 1012.12 316.669 1012.2 316.296 1012.2C314.878 1012.2 314.22 1011.09 313.695 1010.19C313.479 1009.83 313.253 1009.45 312.959 1009.04C311.914 1007.62 311.114 1007.44 310.539 1007.44C310.436 1007.44 310.328 1007.44 310.22 1007.46C310.009 1007.48 309.813 1007.56 309.538 1007.86C309.406 1008.01 309.273 1008.18 309.141 1008.36C308.964 1008.6 308.778 1008.84 308.552 1009.07C308.429 1009.19 308.297 1009.3 308.154 1009.39C307.997 1009.65 307.791 1009.89 307.512 1010.1C306.663 1010.74 305.652 1011.6 304.047 1012.28C304.027 1012.21 304.013 1012.14 303.998 1012.06C303.703 1012.41 303.34 1012.47 302.938 1012.45C302.962 1012.55 302.982 1012.64 303.002 1012.73C301.588 1013.38 300.224 1014.19 299.694 1014.91C299.056 1015.78 297.819 1017.62 297.132 1018.3C296.445 1018.99 295.12 1020.5 295.027 1021.23C294.934 1021.96 294.796 1023.24 295.027 1023.7C295.218 1024.08 295.508 1024.76 295.891 1024.99C295.964 1025.04 296.043 1025.07 296.121 1025.08C296.131 1025.08 296.136 1025.08 296.141 1025.08C296.239 1025.11 296.342 1025.13 296.46 1025.14C296.597 1025.16 296.75 1025.17 296.916 1025.18C297.628 1025.19 298.271 1024.98 298.889 1024.78C299.346 1024.62 299.777 1024.48 300.234 1024.42C300.41 1024.4 300.622 1024.37 300.857 1024.35C301.662 1024.26 303.34 1024.07 303.644 1023.77C304.057 1023.37 305.038 1022.91 305.151 1022.86C305.382 1022.76 305.652 1022.86 305.755 1023.09C305.858 1023.32 305.76 1023.59 305.529 1023.69C305.171 1023.86 304.513 1024.2 304.287 1024.43C303.802 1024.91 302.55 1025.08 300.96 1025.26C300.734 1025.28 300.528 1025.31 300.356 1025.33C299.988 1025.38 299.596 1025.5 299.184 1025.64C298.634 1025.82 298.025 1026.02 297.343 1026.08C297.682 1026.42 298.197 1026.72 299.007 1026.72C300.106 1026.72 301.839 1026.63 304.125 1025.85C305.254 1025.47 306.839 1024.85 308.405 1024.19C308.434 1024.23 308.464 1024.26 308.488 1024.29C308.601 1024.13 308.719 1024.01 308.846 1023.92C308.67 1023.98 308.478 1024.07 308.262 1024.18C308.478 1024.07 308.67 1023.99 308.846 1023.92C309.033 1023.79 309.249 1023.74 309.494 1023.71C310.711 1023.17 311.845 1022.64 312.664 1022.19C314.77 1021.05 315.501 1019.9 317.42 1019.72C319.338 1019.54 319.613 1019.9 319.932 1020.82C320.251 1021.73 319.427 1023.47 320.207 1025.13C320.982 1026.77 321.395 1029.52 322.813 1030.98C323.893 1032.1 327.284 1034.25 329.443 1035.64C330.797 1035.97 332.682 1036.2 332.839 1037.72C334.807 1038.75 337.628 1040.09 339.454 1041.1C342.016 1042.52 347.635 1045 351.109 1045.82C354.584 1046.64 360.389 1047.42 362.995 1047.28C365.601 1047.14 367.613 1046.37 368.158 1045.72C368.707 1045.08 369.164 1043.61 368.158 1042.79C367.152 1041.97 364.487 1041.48 363.569 1040.44C362.656 1039.41 361.434 1037.94 360.276 1037.76C359.118 1037.58 356.498 1036.6 355.825 1035.81C355.153 1035.02 354.181 1033.67 353.386 1033.43C353.131 1033.35 352.665 1032.99 352.12 1032.5C351.595 1032.34 351.757 1031.71 351.173 1031.58C351.163 1031.59 351.158 1031.59 351.148 1031.6C351.139 1031.59 351.129 1031.58 351.119 1031.57C351.065 1031.56 351.006 1031.56 350.942 1031.56C351.006 1031.56 351.065 1031.56 351.119 1031.57C350.201 1030.69 349.259 1029.74 348.749 1029.28C347.713 1028.37 346.859 1028.49 345.642 1025.86C344.425 1023.24 339.047 1020.43 337.584 1020.37C336.122 1020.31 333.227 1021.59 330.91 1021.29C328.594 1020.98 327.544 1020.37 326.994 1019.14C326.444 1017.92 326.312 1017.15 326.68 1017.06C327.048 1016.97 327.23 1017.12 327.352 1017.39C327.588 1017.91 327.357 1018.05 328.398 1019.21C329.261 1020.18 331.872 1020.37 333.884 1019.88C335.783 1019.42 340.102 1016.71 341.775 1015.13C343.449 1013.57 344.671 1012.19 346.197 1010.48C347.723 1008.77 352.719 1002.97 354.304 1001.63C355.889 1000.29 357.72 997.965 359.913 997.597C361.248 997.376 363.231 997.287 365.007 997.282C365.4 997.046 365.91 997.322 366.312 997.297V997.292C366.327 997.292 366.342 997.292 366.357 997.292C366.469 997.277 366.573 997.238 366.661 997.15V997.297C367.152 997.312 367.598 997.327 367.961 997.351C369.851 997.474 374.788 998.56 376.981 998.565C379.175 998.57 381.737 998 382.468 997.277C383.204 996.55 383.906 996.058 382.625 994.687ZM302.55 1022.31C302.354 1022.71 301.745 1023.46 300.862 1023.46C300.656 1023.46 300.489 1023.49 300.332 1023.52C300.199 1023.54 300.057 1023.57 299.91 1023.57C299.719 1023.57 299.512 1023.52 299.301 1023.37C299.13 1023.25 298.948 1023.09 298.909 1022.84C298.87 1022.58 299.007 1022.4 299.105 1022.26C299.13 1022.23 299.159 1022.2 299.189 1022.15L299.247 1022.06C299.601 1021.53 300.042 1020.86 300.705 1020.86C301.196 1020.86 302.221 1021.25 302.506 1021.71C302.634 1021.91 302.648 1022.13 302.55 1022.31Z" fill="#07324A"/>
<path d="M315.143 974.295C315.368 973.396 315.059 972.28 313.945 972.698C312.831 973.116 309.921 975.667 307.885 977.23C305.848 978.793 304.224 983.761 303.311 984.975C302.398 986.184 301.927 986.725 300.798 991.153C299.669 995.582 300.759 997.577 301.215 999.715C301.49 1001 301.78 1001.74 302.118 1002.34C302.104 1002.52 302.099 1002.69 302.089 1002.87C302.442 1003.33 302.903 1003.53 303.164 1003.88C303.164 1003.87 303.164 1003.85 303.164 1003.84C303.325 1004.06 303.497 1004.31 303.684 1004.61C304.547 1005.96 305.48 1005.93 305.48 1004.06C305.529 1003.39 306.108 1001.63 307.242 999.499C307.703 998.639 307.374 996.466 308.994 994.446C309.661 993.616 311.516 992.092 311.349 989.453C311.295 988.632 311.276 987.059 310.814 986.081C310.412 985.221 311.006 984.204 311.31 983.643C311.86 983.034 312.443 982.454 313.037 981.894C312.988 981.078 313.661 980.262 313.661 979.446C313.661 979.535 313.661 979.623 313.661 979.712C313.768 979.25 313.749 978.689 313.597 978.262C313.317 977.49 313.283 977.357 313.626 976.989C313.97 976.625 314.917 975.195 315.143 974.295Z" fill="#07324A"/>
<path d="M366.362 997.282C366.465 997.282 366.568 997.287 366.666 997.287V997.14C366.577 997.228 366.474 997.268 366.362 997.282Z" fill="#07324A"/>
<path d="M300.018 1022.57L299.964 1022.65C300.008 1022.65 300.072 1022.64 300.17 1022.62C300.352 1022.58 300.577 1022.54 300.867 1022.54C301.171 1022.54 301.446 1022.31 301.608 1022.1C301.368 1021.95 300.906 1021.78 300.715 1021.78C300.543 1021.77 300.146 1022.37 300.018 1022.57Z" fill="#07324A"/>
</g>
<defs>
<linearGradient id="paint0_linear" x1="220.84" y1="1139.65" x2="-234.08" y2="149.812" gradientUnits="userSpaceOnUse">
<stop stop-color="#E63D11"/>
<stop offset="0.0457" stop-color="#E44F0F"/>
<stop offset="0.2025" stop-color="#DE8A09"/>
<stop offset="0.3365" stop-color="#D9B404"/>
<stop offset="0.441" stop-color="#D6CE01"/>
<stop offset="0.5031" stop-color="#D5D800"/>
<stop offset="0.5514" stop-color="#C9D60D"/>
<stop offset="0.6413" stop-color="#A9CF30"/>
<stop offset="0.763" stop-color="#75C569"/>
<stop offset="0.9103" stop-color="#2EB7B6"/>
<stop offset="1" stop-color="#00AEE9"/>
</linearGradient>
<clipPath id="clip0">
<rect width="84.425" height="74.25" fill="white" transform="translate(-32.8251 1020.97)"/>
</clipPath>
</defs>
</svg>
