<svg width="375" height="667" viewBox="0 0 375 667" fill="none" xmlns="http://www.w3.org/2000/svg">
<path d="M-218.594 454.315C-205.295 402.254 -191.996 350.192 -178.703 298.137C-174.095 280.096 -169.165 261.401 -157.377 246.749C-145.59 232.097 -54.4315 144.239 -28.5517 135.424C21.3351 118.433 58.8662 166.671 61.4849 200.373C64.7523 242.425 68.4557 290.994 81.1478 318.875C96.5772 352.768 155.268 355.872 171.974 350.741C242.805 328.986 264.948 304.845 264.948 304.845C264.948 304.845 289.973 285.427 317.865 263.358L354.539 237.07C354.539 237.07 415.493 208.862 453.514 243.643C491.536 278.425 501.163 327.068 492.143 352.8C492.313 363.209 458.739 358.281 462.56 367.811C468.418 382.426 448.208 387.467 464.117 387.993C480.027 388.52 459.508 375.808 475.342 373.147C517.665 366.041 563.48 375.069 593.567 404.081C623.654 433.092 633.652 483.695 610.783 520.73C601.984 534.974 589.293 546.353 577.629 558.406C507.072 631.331 471.861 736.862 485.416 834.774C487.675 851.069 493.949 870.061 509.999 873.288C518.775 875.057 527.894 871.307 536.074 867.126C586.954 841.108 625.841 796.201 672.295 762.58C688.035 751.192 705.247 740.862 724.143 737.727C743.04 734.591 763.975 740.001 774.787 755.23C786.417 771.596 783.834 794.779 776.239 814.131C768.649 833.488 756.666 851.104 749.992 870.766C729.963 929.724 761.996 992.241 804.182 1035.11C838.898 1070.38 885.032 1109.81 873.111 1159.48C866.814 1185.74 382.256 799.212 357.183 809.491C332.11 819.771 381.467 904.026 354.809 903.565C335.764 922.087 267.599 881.528 252.191 849.38C238.815 847.457 204.44 840.357 191.915 835.562C177.029 829.861 132.135 830.372 120.177 819.984C-6.65166 709.793 -194.24 802.616 -246.398 641.233C-257.667 606.365 -193.338 547.285 -200.849 511.275C-205.149 490.667 -220.316 475.845 -218.729 454.61" fill="url(#paint0_linear)" fill-opacity="0.15"/>
<defs>
<linearGradient id="paint0_linear" x1="43.7493" y1="107.341" x2="644.116" y2="1276.22" gradientUnits="userSpaceOnUse">
<stop offset="0.133526" stop-color="#5F63AD"/>
<stop offset="0.33897" stop-color="#2CBBA3"/>
<stop offset="0.392975" stop-color="#2DBBA3"/>
<stop offset="0.5078" stop-color="#5DB1AE"/>
<stop offset="0.6123" stop-color="#84A9B7"/>
<stop offset="0.7148" stop-color="#A3A2BE"/>
<stop offset="0.8146" stop-color="#B89EC3"/>
<stop offset="0.9105" stop-color="#C69BC6"/>
<stop offset="0.9985" stop-color="#CA9AC7"/>
</linearGradient>
</defs>
</svg>
