<svg width="377" height="978" viewBox="0 0 377 978" fill="none" xmlns="http://www.w3.org/2000/svg">
<mask id="mask0" mask-type="alpha" maskUnits="userSpaceOnUse" x="0" y="0" width="377" height="978">
<rect width="377" height="978" fill="#C4C4C4"/>
</mask>
<g mask="url(#mask0)">
<mask id="mask1" mask-type="alpha" maskUnits="userSpaceOnUse" x="-55" y="3" width="1358" height="1034">
<rect x="-55" y="3" width="1358" height="1034" fill="#C4C4C4"/>
</mask>
<g mask="url(#mask1)">
<path opacity="0.3" d="M52.4744 342.291C27.8109 295.695 3.8158 248.054 -0.208405 198.413C-4.2326 148.772 14.2855 96.0853 64.3423 60.9658C114.399 25.8463 199.753 13.9384 257.988 42.1424C301.633 63.2822 322.102 100.756 337.53 136.408C352.959 172.06 367.145 209.913 403.916 236.75C440.686 263.588 508.899 273.385 545.424 246.376C568.369 229.408 573.095 202.835 597.547 186.941C634.57 162.871 696.222 175.753 734.636 198.72C773.05 221.687 801.519 253.238 845.581 270.484C926.583 302.189 961.104 267.208 979.738 203.357C983.908 165.662 980.264 173.404 991.835 119.414C1031.28 28.8143 1031.21 16.2411 1164.87 9.21527C1212.37 6.71667 1253.13 26.2941 1285.3 51.0019C1345.07 96.9119 1407.11 112.64 1369.45 168.966C1331.79 225.292 1287.52 166.324 1336.66 218.095C1381.48 265.319 1496.34 266.105 1542.47 219.51C1564.05 197.703 1573.35 167.792 1606.62 155.198C1643.86 141.094 1690.71 157.428 1718.85 179.633C1746.99 201.837 1765.5 229.936 1797.42 249.459C1843.52 277.663 1915.54 282.526 1968.43 261.008C2021.33 239.489 2051.22 193.162 2039.41 151.002C2033.13 128.534 2016.5 108.147 2007.95 86.0478C1999.41 63.9488 2001.01 37.2555 2025.34 22.0337C2059.54 0.649313 2116.67 15.6937 2144.31 41.3415C2171.95 66.9893 2181.56 99.8789 2202.57 128.467C2223.59 157.054 2265.4 183.46 2310.14 176.674C2371.05 167.432 2384.73 108.794 2434.94 82.8442C2493.45 52.6068 2582.7 80.0004 2617.99 124.62C2653.28 169.24 2650.02 223.375 2645.8 274.345C2642.85 310.006 2639.89 345.663 2636.93 381.324C2634.36 412.319 2631.56 444.024 2614.31 472.602C2589.18 514.229 2536.01 544.467 2479.38 565.909C2339.85 618.729 2074.5 756 1561.5 676.5C1048.5 597 600.583 469.5 508.5 469.5C416.417 469.5 354 611 -100 498.5C-404.201 481.408 -370.243 581.831 -424.692 370.711C-431.765 343.279 -432.509 310.116 -401.059 293.149C-376.184 279.73 -339.741 282.478 -312.144 292.938C-284.548 303.397 -263.165 320.192 -240.118 335.131C-194.802 364.51 -141.226 387.568 -83.3932 402.579C-49.3103 411.427 -10.8145 417.383 22.7772 407.657C56.369 397.927 72.9773 363.301 52.7063 342.104" fill="url(#paint0_linear)"/>
</g>
</g>
<defs>
<linearGradient id="paint0_linear" x1="3003.63" y1="-210.097" x2="632.01" y2="1527.54" gradientUnits="userSpaceOnUse">
<stop stop-color="#F07623"/>
<stop offset="0.024" stop-color="#ED5724"/>
<stop offset="0.1249" stop-color="#E28625"/>
<stop offset="0.2211" stop-color="#D9AC27"/>
<stop offset="0.3101" stop-color="#D2C628"/>
<stop offset="0.3892" stop-color="#CED629"/>
<stop offset="0.4505" stop-color="#CDDC29"/>
<stop offset="0.515625" stop-color="#AED647"/>
<stop offset="0.5897" stop-color="#8BD069"/>
<stop offset="0.7308" stop-color="#50C6A4"/>
<stop offset="0.8513" stop-color="#25BECE"/>
<stop offset="0.9448" stop-color="#0ABAE8"/>
<stop offset="1" stop-color="#00B8F2"/>
</linearGradient>
</defs>
</svg>
