<svg width="377" height="782" viewBox="0 0 377 782" fill="none" xmlns="http://www.w3.org/2000/svg">
<mask id="mask0" mask-type="alpha" maskUnits="userSpaceOnUse" x="0" y="0" width="377" height="782">
<rect width="377" height="782" fill="#C4C4C4"/>
</mask>
<g mask="url(#mask0)">
<mask id="mask1" mask-type="alpha" maskUnits="userSpaceOnUse" x="-602" y="-89" width="1358" height="1034">
<rect x="-602" y="-89" width="1358" height="1034" fill="#C4C4C4"/>
</mask>
<g mask="url(#mask1)">
<path opacity="0.3" d="M-494.526 182.78C-519.189 139.232 -543.184 94.7058 -547.208 48.311C-551.233 1.91615 -532.715 -47.3249 -482.658 -80.1478C-432.601 -112.971 -347.247 -124.1 -289.012 -97.7403C-245.367 -77.9829 -224.898 -42.9592 -209.47 -9.63883C-194.041 23.6815 -179.855 59.0592 -143.084 84.1414C-106.314 109.224 -38.1008 118.381 -1.57611 93.1373C21.3686 77.2794 26.0953 52.4436 50.5474 37.5897C87.57 15.0938 149.222 27.1328 187.636 48.5979C226.05 70.0629 254.519 99.5512 298.581 115.669C379.583 145.301 414.104 112.607 432.738 52.9316C436.908 17.7017 433.264 24.9371 444.835 -25.5221C484.279 -110.197 484.207 -121.948 617.865 -128.514C665.371 -130.849 706.13 -112.552 738.303 -89.4601C798.072 -46.5524 860.115 -31.8532 822.451 20.7898C784.788 73.4328 740.519 18.3209 789.662 66.7058C834.48 110.842 949.34 111.577 995.468 68.028C1017.05 47.6477 1026.35 19.6924 1059.62 7.92229C1096.86 -5.25975 1143.71 10.0065 1171.85 30.7589C1199.99 51.5113 1218.5 77.7724 1250.42 96.0193C1296.52 122.379 1368.54 126.924 1421.43 106.812C1474.33 86.7009 1504.22 43.4031 1492.41 4.00038C1486.13 -16.9985 1469.5 -36.0523 1460.95 -56.706C1452.41 -77.3598 1454.01 -102.308 1478.34 -116.534C1512.54 -136.52 1569.67 -122.459 1597.31 -98.4888C1624.95 -74.5182 1634.56 -43.7794 1655.57 -17.0613C1676.59 9.65691 1718.4 34.3357 1763.14 27.9934C1824.05 19.3563 1837.73 -35.4472 1887.94 -59.7001C1946.45 -87.9602 2035.7 -62.358 2070.99 -20.656C2106.28 21.046 2103.02 71.6408 2098.8 119.277C2095.85 152.607 2092.89 185.931 2089.93 219.261C2087.36 248.229 2084.56 277.86 2067.31 304.57C2042.18 343.475 1989.01 371.735 1932.38 391.774C1792.85 441.141 1527.5 569.435 1014.5 495.134C501.5 420.833 239.583 543 147.5 543C55.4167 543 -612.33 427.842 -718.5 495.134C-1022.7 479.159 -917.243 406.655 -971.692 209.342C-978.765 183.704 -979.509 152.71 -948.059 136.852C-923.184 124.311 -886.741 126.879 -859.144 136.655C-831.548 146.43 -810.165 162.127 -787.118 176.089C-741.802 203.546 -688.226 225.096 -630.393 239.126C-596.31 247.395 -557.815 252.962 -524.223 243.872C-490.631 234.778 -474.023 202.417 -494.294 182.606" fill="url(#paint0_linear)"/>
</g>
</g>
<defs>
<linearGradient id="paint0_linear" x1="2456.63" y1="-341.479" x2="134.029" y2="1410.9" gradientUnits="userSpaceOnUse">
<stop stop-color="#F07623"/>
<stop offset="0.024" stop-color="#ED5724"/>
<stop offset="0.1249" stop-color="#E28625"/>
<stop offset="0.2211" stop-color="#D9AC27"/>
<stop offset="0.3101" stop-color="#D2C628"/>
<stop offset="0.3892" stop-color="#CED629"/>
<stop offset="0.4505" stop-color="#CDDC29"/>
<stop offset="0.515625" stop-color="#AED647"/>
<stop offset="0.5897" stop-color="#8BD069"/>
<stop offset="0.7308" stop-color="#50C6A4"/>
<stop offset="0.8513" stop-color="#25BECE"/>
<stop offset="0.9448" stop-color="#0ABAE8"/>
<stop offset="1" stop-color="#00B8F2"/>
</linearGradient>
</defs>
</svg>
