<svg width="375" height="667" viewBox="0 0 375 667" fill="none" xmlns="http://www.w3.org/2000/svg">
<path opacity="0.3" d="M-35.4902 396.36C-48.0744 362.548 -60.3175 327.976 -62.3707 291.953C-64.424 255.93 -54.9755 217.698 -29.4348 192.213C-3.89417 166.728 -22.7133 -36.4667 7 -16.0001C29.2693 -0.659676 152.628 -54.3713 160.5 -28.5C170 -78.5001 242.239 -35.4749 261 -16.0001C279.761 3.47469 310.864 -17.8999 329.5 -37.5C341.207 -49.8127 385.024 -4.46693 397.5 -16.0001C416.39 -33.4668 377.9 276.71 397.5 293.377C417.1 310.043 358.518 334.539 381 347.054C422.33 370.061 470.541 339.711 480.049 293.377C488.509 252.151 462.241 212.244 456.725 170.521C447.76 102.725 504.089 33.4007 572.286 28.3023C596.525 26.4892 622.685 32.6942 639.101 50.6239C669.597 83.9391 653.523 137.004 634.305 177.878C615.088 218.752 594.67 268.668 619.744 306.236C642.612 340.504 701.218 341.075 724.754 307.262C735.765 291.438 740.512 269.733 757.484 260.594C776.486 250.359 800.391 262.212 814.75 278.325C829.109 294.438 838.554 314.828 854.837 328.996C878.36 349.462 915.106 352.991 942.095 337.376C969.083 321.76 984.336 288.142 978.312 257.549C975.104 241.244 966.619 226.45 962.258 210.414C957.901 194.377 958.716 175.007 971.133 163.961C988.582 148.443 1017.73 159.36 1031.83 177.972C1045.94 196.584 1050.84 220.451 1061.56 241.196C1072.28 261.941 1093.62 281.102 1116.45 276.178C1147.52 269.472 1154.5 226.92 1180.12 208.089C1209.97 186.147 1255.51 206.025 1273.52 238.405C1291.53 270.784 1289.86 310.067 1287.71 347.054C1286.2 372.932 1284.7 398.807 1283.19 424.685C1281.87 447.177 1280.45 470.184 1271.65 490.922C1258.82 521.13 1231.69 543.072 1202.8 558.632C1131.6 596.962 1048.05 602.749 967.423 608.767C715.469 627.57 464.256 656.312 214.564 694.91C157.761 703.69 100.377 713.01 43.084 708.43C-112.13 696.027 -251.175 570.186 -278.956 416.984C-282.565 397.077 -282.945 373.012 -266.898 360.7C-254.206 350.962 -235.611 352.956 -221.531 360.546C-207.45 368.137 -196.54 380.324 -184.781 391.165C-161.659 412.484 -134.322 429.216 -104.814 440.109C-87.4241 446.53 -67.7823 450.852 -50.6427 443.795C-33.5031 436.733 -25.029 411.607 -35.3719 396.225" fill="url(#paint0_linear)"/>
<defs>
<linearGradient id="paint0_linear" x1="1470.29" y1="-26.6472" x2="-73.7328" y2="671.471" gradientUnits="userSpaceOnUse">
<stop stop-color="#F04B23"/>
<stop offset="0.625" stop-color="#CDDC29"/>
<stop offset="1" stop-color="#00B8F2"/>
</linearGradient>
</defs>
</svg>
