<svg width="376" height="884" viewBox="0 0 376 884" fill="none" xmlns="http://www.w3.org/2000/svg">
<mask id="mask0" mask-type="alpha" maskUnits="userSpaceOnUse" x="0" y="0" width="376" height="884">
<rect y="0.954346" width="376" height="883.046" fill="#C4C4C4"/>
</mask>
<g mask="url(#mask0)">
<mask id="mask1" mask-type="alpha" maskUnits="userSpaceOnUse" x="-1091" y="-4" width="1476" height="1125">
<rect x="-1090.7" y="-3.07788" width="1475.14" height="1123.19" fill="#C4C4C4"/>
</mask>
<g mask="url(#mask1)">
<path opacity="0.3" d="M-1002.17 438.8C-1028.96 388.185 -1055.03 336.434 -1059.4 282.511C-1063.77 228.588 -1043.66 171.357 -989.282 133.208C-934.907 95.0593 -842.191 82.1242 -778.932 112.761C-731.522 135.724 -709.288 176.431 -692.529 215.158C-675.77 253.885 -660.359 295.004 -620.417 324.156C-580.475 353.308 -506.377 363.951 -466.702 334.611C-441.778 316.18 -436.644 287.314 -410.083 270.05C-369.867 243.904 -302.897 257.897 -261.169 282.845C-219.441 307.793 -188.516 342.066 -140.654 360.799C-52.6646 395.239 -15.1653 357.24 5.07611 287.882C9.60492 246.935 5.6474 255.345 18.2159 196.698C61.0629 98.2832 60.9848 84.6255 206.172 76.9936C257.775 74.2795 302.05 95.5456 336.998 122.385C401.923 172.255 469.318 189.339 428.405 250.524C387.493 311.709 339.405 247.655 392.787 303.891C441.472 355.189 566.239 356.043 616.346 305.428C639.789 281.74 649.895 249.249 686.028 235.569C726.482 220.248 777.374 237.991 807.943 262.111C838.513 286.231 858.621 316.753 893.288 337.961C943.365 368.598 1021.6 373.88 1079.05 350.505C1136.51 327.131 1168.98 276.807 1156.16 231.011C1149.33 206.604 1131.26 184.459 1121.98 160.454C1112.71 136.448 1114.44 107.453 1140.87 90.9177C1178.02 67.6888 1240.07 84.0309 1270.1 111.891C1300.13 139.751 1310.56 175.478 1333.39 206.531C1356.22 237.585 1401.64 266.268 1450.24 258.897C1516.4 248.858 1531.26 185.162 1585.8 156.974C1649.35 124.128 1746.31 153.885 1784.64 202.353C1822.98 250.822 1819.44 309.627 1814.85 364.993C1811.64 403.73 1808.43 442.463 1805.22 481.2C1802.43 514.869 1799.39 549.309 1780.65 580.352C1753.35 625.57 1695.59 658.415 1634.08 681.707C1482.51 739.084 1003.38 285.659 504.898 554.302C6.42108 822.945 -161.143 491 -261.169 491C-361.195 491 -1130.14 723.627 -1245.47 801.838C-1575.91 783.271 -1461.35 699.002 -1520.5 469.672C-1528.18 439.874 -1528.99 403.85 -1494.83 385.419C-1467.81 370.843 -1428.22 373.828 -1398.24 385.19C-1368.27 396.552 -1345.04 414.795 -1320 431.023C-1270.78 462.936 -1212.58 487.983 -1149.76 504.288C-1112.74 513.9 -1070.92 520.37 -1034.43 509.805C-997.943 499.235 -979.902 461.623 -1001.92 438.597" fill="url(#paint0_linear)"/>
</g>
</g>
<defs>
<linearGradient id="paint0_linear" x1="2203.55" y1="-152.906" x2="-307.857" y2="1753.88" gradientUnits="userSpaceOnUse">
<stop stop-color="#F07623"/>
<stop offset="0.024" stop-color="#ED5724"/>
<stop offset="0.1249" stop-color="#E28625"/>
<stop offset="0.2211" stop-color="#D9AC27"/>
<stop offset="0.3101" stop-color="#D2C628"/>
<stop offset="0.3892" stop-color="#CED629"/>
<stop offset="0.4505" stop-color="#CDDC29"/>
<stop offset="0.515625" stop-color="#AED647"/>
<stop offset="0.5897" stop-color="#8BD069"/>
<stop offset="0.7308" stop-color="#50C6A4"/>
<stop offset="0.8513" stop-color="#25BECE"/>
<stop offset="0.9448" stop-color="#0ABAE8"/>
<stop offset="1" stop-color="#00B8F2"/>
</linearGradient>
</defs>
</svg>
