<svg width="1205" height="551" viewBox="0 0 1205 551" fill="none" xmlns="http://www.w3.org/2000/svg">
<g opacity="0.3">
<path opacity="0.3" d="M107.51 368.36C94.9256 334.548 82.6825 299.976 80.6293 263.953C78.576 227.93 88.0245 189.698 113.565 164.213C139.106 138.728 182.656 130.087 212.369 150.553C234.639 165.894 245.083 193.087 252.955 218.959C260.827 244.83 268.065 272.299 286.827 291.773C305.588 311.248 340.393 318.358 359.029 298.758C370.736 286.445 373.148 267.162 385.624 255.629C404.514 238.162 435.971 247.51 455.571 264.176C475.171 280.842 489.697 303.738 512.179 316.253C553.509 339.26 613.541 311.711 623.049 265.377C631.509 224.151 605.241 184.244 599.725 142.521C590.76 74.7248 647.089 5.40073 715.286 0.302346C739.525 -1.5108 765.685 4.69426 782.101 22.6239C812.597 55.9391 796.523 109.004 777.305 149.878C758.088 190.752 737.67 240.668 762.744 278.236C785.612 312.504 844.218 313.075 867.754 279.262C878.765 263.438 883.512 241.733 900.484 232.594C919.486 222.359 943.391 234.212 957.75 250.325C972.109 266.438 981.554 286.828 997.837 300.996C1021.36 321.462 1058.11 324.991 1085.09 309.376C1112.08 293.761 1127.34 260.143 1121.31 229.549C1118.1 213.244 1109.62 198.45 1105.26 182.414C1100.9 166.377 1101.72 147.007 1114.13 135.961C1131.58 120.443 1160.73 131.36 1174.83 149.972C1188.94 168.584 1193.84 192.451 1204.56 213.196C1215.28 233.941 1236.62 253.102 1259.45 248.178C1290.52 241.472 1297.5 198.92 1323.12 180.089C1352.97 158.147 1398.51 178.025 1416.52 210.405C1434.53 242.784 1432.86 282.067 1430.71 319.054C1429.2 344.932 1427.7 370.807 1426.19 396.685C1424.87 419.177 1423.45 442.184 1414.65 462.923C1401.82 493.13 1374.69 515.072 1345.8 530.632C1274.6 568.962 1191.05 574.749 1110.42 580.767C858.469 599.57 607.256 628.312 357.564 666.91C300.761 675.69 243.377 685.01 186.084 680.43C30.8704 668.027 -108.175 542.186 -135.956 388.984C-139.565 369.077 -139.945 345.012 -123.898 332.7C-111.206 322.962 -92.6114 324.956 -78.5308 332.547C-64.4502 340.137 -53.54 352.324 -41.7807 363.165C-18.6587 384.484 8.67767 401.216 38.1857 412.109C55.5759 418.53 75.2177 422.852 92.3573 415.795C109.497 408.733 117.971 383.607 107.628 368.225" fill="url(#paint0_linear)"/>
</g>
<defs>
<linearGradient id="paint0_linear" x1="1613.29" y1="-54.6473" x2="69.2672" y2="643.47" gradientUnits="userSpaceOnUse">
<stop stop-color="#F04B23"/>
<stop offset="0.024" stop-color="#ED5724"/>
<stop offset="0.1249" stop-color="#E28625"/>
<stop offset="0.2211" stop-color="#D9AC27"/>
<stop offset="0.3101" stop-color="#D2C628"/>
<stop offset="0.3892" stop-color="#CED629"/>
<stop offset="0.4505" stop-color="#CDDC29"/>
<stop offset="0.5897" stop-color="#8BD069"/>
<stop offset="0.7308" stop-color="#50C6A4"/>
<stop offset="0.8513" stop-color="#25BECE"/>
<stop offset="0.9448" stop-color="#0ABAE8"/>
<stop offset="1" stop-color="#00B8F2"/>
</linearGradient>
</defs>
</svg>
