<svg width="29" height="28" viewBox="0 0 29 28" fill="none" xmlns="http://www.w3.org/2000/svg">
<path d="M9 11.5L13 18.5L27 3" stroke="#07324A" stroke-width="3" stroke-linecap="round" stroke-linejoin="round"/>
<path fill-rule="evenodd" clip-rule="evenodd" d="M20.1938 1.44117C18.3265 0.518488 16.2238 0 14 0C6.26801 0 0 6.26801 0 14C0 21.732 6.26801 28 14 28C21.732 28 28 21.732 28 14C28 12.9869 27.8924 11.9989 27.688 11.0469L25.4526 13.5217C25.3081 13.6817 25.157 13.8321 25 13.9728C25 13.9819 25 13.9909 25 14C25 20.0751 20.0751 25 14 25C7.92487 25 3 20.0751 3 14C3 7.92487 7.92487 3 14 3C15.4416 3 16.8184 3.2773 18.08 3.78148L20.1938 1.44117Z" fill="#07324A"/>
</svg>
