<svg width="39" height="39" viewBox="0 0 39 39" fill="none" xmlns="http://www.w3.org/2000/svg">
<g clip-path="url(#clip0)">
<path d="M37.5964 26.7663C41.6091 16.7722 36.7602 5.41734 26.7661 1.4046C16.7719 -2.60813 5.41711 2.24076 1.40437 12.2349C-2.60836 22.229 2.24053 33.5839 12.2347 37.5966C22.2288 41.6093 33.5836 36.7604 37.5964 26.7663Z" fill="#07324A"/>
<path d="M23.4168 16.3466H20.6144V14.508C20.6144 13.8172 21.0712 13.6556 21.3944 13.6556C21.7175 13.6556 23.3722 13.6556 23.3722 13.6556V10.6247L20.6534 10.6136C17.6336 10.6136 16.9428 12.8756 16.9428 14.3242V16.3466H15.1934V19.4722H16.9428C16.9428 23.4836 16.9428 28.314 16.9428 28.314H20.6144C20.6144 28.314 20.6144 23.4334 20.6144 19.4722H23.0936L23.4168 16.3466Z" fill="white"/>
</g>
<defs>
<clipPath id="clip0">
<rect width="39" height="39" fill="white"/>
</clipPath>
</defs>
</svg>
