<svg width="83" height="39" viewBox="0 0 83 39" fill="none" xmlns="http://www.w3.org/2000/svg">
<path d="M0.588379 15.7679H5.68891L7.53709 17.6151V19.9283L5.68891 21.7756H2.49206V26.0248H0.588379V15.7679ZM2.69741 19.8728H4.16264C5.1006 19.8728 5.62786 19.6399 5.62786 18.7745C5.62786 17.9091 5.1006 17.6761 4.16264 17.6761H2.69741C2.58086 17.6761 2.49206 17.7649 2.49206 17.8814V19.6676C2.49206 19.7841 2.58086 19.8728 2.69741 19.8728Z" fill="#08324A"/>
<path d="M8.85254 15.7679H14.6857L16.5339 17.6151V20.2223L14.4803 22.0696H13.6756L16.8558 26.0248H14.4248L11.2446 22.0696H10.7618V26.0248H8.85809V15.7679H8.85254ZM10.9616 20.1613H13.1594C13.9531 20.1613 14.6246 19.7785 14.6246 18.9187C14.6246 18.0533 13.9531 17.6761 13.1594 17.6761H10.9616C10.845 17.6761 10.7562 17.7649 10.7562 17.8814V19.9616C10.7562 20.0781 10.845 20.1613 10.9616 20.1613Z" fill="#08324A"/>
<path d="M17.7605 24.1165V17.6761L19.6642 15.7734H23.7934L25.6971 17.6761V24.1165L23.7934 26.0192H19.6642L17.7605 24.1165ZM22.1673 24.1165C23.194 24.1165 23.7934 23.5285 23.7934 22.2138V19.5788C23.7934 18.2586 23.194 17.6761 22.1673 17.6761H21.2904C20.2636 17.6761 19.6642 18.2641 19.6642 19.5788V22.2138C19.6642 23.534 20.2636 24.1165 21.2904 24.1165H22.1673Z" fill="#08324A"/>
<path d="M33.9334 17.6761H31.4747C31.3581 17.6761 31.2693 17.7648 31.2693 17.8813V26.0247H29.3601V17.8813C29.3601 17.7648 29.2713 17.6761 29.1547 17.6761H26.696V15.7734H33.9334V17.6761Z" fill="#08324A"/>
<path d="M35.1042 15.7679H42.0197V17.6706H37.2133C37.0967 17.6706 37.0079 17.7593 37.0079 17.8758V19.5455C37.0079 19.662 37.0967 19.7508 37.2133 19.7508H41.609V21.6535H37.2133C37.0967 21.6535 37.0079 21.7423 37.0079 21.8588V23.7892C37.0079 23.9057 37.0967 23.9945 37.2133 23.9945H42.0474V26.0137H35.1042V15.7679Z" fill="#08324A"/>
<path d="M43.4294 24.1165V17.6761L45.3331 15.7734H48.5855L50.4892 17.6761V19.5788H48.7908C48.6743 19.5788 48.5855 19.4901 48.5855 19.3736C48.5855 18.2031 47.925 17.6761 46.9593 17.6761C45.9325 17.6761 45.3331 18.2641 45.3331 19.5788V22.2138C45.3331 23.534 45.9325 24.1165 46.9593 24.1165C47.925 24.1165 48.5855 23.5895 48.5855 22.419C48.5855 22.3025 48.6743 22.2138 48.7908 22.2138H50.4892V24.1165L48.5855 26.0192H45.3331L43.4294 24.1165Z" fill="#08324A"/>
<path d="M58.6978 17.6761H56.2391C56.1225 17.6761 56.0337 17.7648 56.0337 17.8813V26.0247H54.13V17.8813C54.13 17.7648 54.0412 17.6761 53.9247 17.6761H51.4604V15.7734H58.6978V17.6761Z" fill="#08324A"/>
<path d="M7.23732 30.6513H4.77863C4.66207 30.6513 4.57327 30.7401 4.57327 30.8566V39H2.66404V30.8566C2.66404 30.7401 2.57524 30.6513 2.45869 30.6513H0V28.7486H7.23732V30.6513Z" fill="#08324A"/>
<path d="M8.40845 28.7429H10.3121V32.4929C10.3121 32.6094 10.4009 32.6981 10.5175 32.6981H13.8864C14.0029 32.6981 14.0917 32.6094 14.0917 32.4929V28.7429H15.9954V38.9943H14.0973V34.8061C14.0973 34.6896 14.0085 34.6008 13.8919 34.6008H10.523C10.4065 34.6008 10.3177 34.6896 10.3177 34.8061V38.9943H8.414V28.7429H8.40845Z" fill="#08324A"/>
<path d="M17.7605 28.7429H24.6759V30.6456H19.8695C19.753 30.6456 19.6642 30.7344 19.6642 30.8509V32.5206C19.6642 32.6371 19.753 32.7259 19.8695 32.7259H24.2652V34.6286H19.8695C19.753 34.6286 19.6642 34.7173 19.6642 34.8338V36.7643C19.6642 36.8808 19.753 36.9695 19.8695 36.9695H24.7037V38.9887H17.7605V28.7429Z" fill="#08324A"/>
<path d="M29.3599 37.0916V30.6512L31.2635 28.7485H35.3928L37.2965 30.6512V37.0971L35.3928 38.9998H31.2635L29.3599 37.0916ZM33.7722 37.0916C34.7989 37.0916 35.3984 36.5036 35.3984 35.1889V32.5539C35.3984 31.2337 34.7989 30.6512 33.7722 30.6512H32.8953C31.8685 30.6512 31.2691 31.2392 31.2691 32.5539V35.1889C31.2691 36.5091 31.8685 37.0916 32.8953 37.0916H33.7722Z" fill="#08324A"/>
<path d="M38.8008 37.0916V30.6512L40.7045 28.7485H43.9568L45.8605 30.6512V32.5539H44.1622C44.0456 32.5539 43.9568 32.4651 43.9568 32.3487C43.9568 31.1782 43.2963 30.6512 42.3306 30.6512C41.3039 30.6512 40.7045 31.2392 40.7045 32.5539V35.1889C40.7045 36.5091 41.3039 37.0916 42.3306 37.0916C43.2963 37.0916 43.9568 36.5646 43.9568 35.3941C43.9568 35.2776 44.0456 35.1889 44.1622 35.1889H45.8605V37.0916L43.9568 38.9943H40.7045L38.8008 37.0916Z" fill="#08324A"/>
<path d="M47.4146 28.7429H54.33V30.6456H49.5236C49.407 30.6456 49.3182 30.7344 49.3182 30.8509V32.5206C49.3182 32.6371 49.407 32.7259 49.5236 32.7259H53.9193V34.6286H49.5236C49.407 34.6286 49.3182 34.7173 49.3182 34.8338V36.7643C49.3182 36.8808 49.407 36.9695 49.5236 36.9695H54.3577V38.9887H47.4146V28.7429Z" fill="#08324A"/>
<path d="M58.1094 28.7429H61.7447L64.764 38.9943H62.7881L62.2442 37.1359C62.2165 37.0472 62.1721 37.0028 62.0833 37.0028H57.7764C57.6876 37.0028 57.6432 37.0472 57.6154 37.1359L57.0715 38.9943H55.0957L58.1094 28.7429ZM61.4339 35.1001C61.5505 35.1001 61.5949 35.0113 61.5949 34.9226C61.5949 34.8782 61.5782 34.8338 61.5782 34.8338L60.3794 30.7344C60.3627 30.6734 60.3183 30.6456 60.2628 30.6456H59.6024C59.5413 30.6456 59.4969 30.6734 59.4858 30.7344L58.287 34.8338C58.287 34.8338 58.2704 34.8782 58.2704 34.9226C58.2704 35.0113 58.3148 35.1001 58.4313 35.1001H61.4339Z" fill="#08324A"/>
<path d="M65.9351 28.7429H68.2772L71.1799 35.261C71.2076 35.322 71.252 35.3497 71.3242 35.3497C71.4241 35.3497 71.5018 35.2887 71.5018 35.1611V28.7429H73.4055V38.9943H71.0633L68.1606 32.4762C68.1329 32.4152 68.0885 32.3875 68.0163 32.3875C67.9109 32.3875 67.8387 32.4485 67.8387 32.5761V38.9887H65.9351V28.7429Z" fill="#08324A"/>
<path d="M75.0204 37.0916V35.8934H76.7188C76.8353 35.8934 76.9241 35.9821 76.9241 36.0986C76.9241 36.6866 77.3348 37.0916 78.1229 37.0916H79.2663C80.0877 37.0916 80.6149 36.6811 80.6149 35.9488C80.6149 35.2166 80.0599 34.8061 79.2663 34.8061H77.0684L75.0149 32.7536V30.6456L76.9186 28.7429H80.6427L82.5464 30.6456V31.8494H80.848C80.7315 31.8494 80.6427 31.7606 80.6427 31.6441C80.6427 31.0561 80.232 30.6456 79.4439 30.6456H78.3005C77.5069 30.6456 76.9519 31.0561 76.9519 31.7884C76.9519 32.5206 77.5069 32.9311 78.3005 32.9311H80.4984L82.5519 34.967V37.0916L80.6482 38.9943H76.9241L75.0204 37.0916Z" fill="#08324A"/>
<path d="M75.5192 8.86232C75.0401 8.96 74.6102 9.27746 74.0575 9.11873C73.4679 9.3141 72.7677 9.22862 72.2641 8.91116C72.2518 8.81348 72.3378 8.7158 72.4238 8.70359C73.5047 8.70359 74.5242 8.77685 75.5192 8.86232ZM60.2881 5.85863C59.9933 6.05399 59.5511 6.09062 59.2072 6.02957L59.1703 5.96852C59.3546 5.30918 59.809 4.75972 60.1038 4.16142C60.3004 4.14921 60.3249 4.369 60.3863 4.50331C60.3863 4.96729 60.4478 5.43128 60.2881 5.85863ZM81.1325 2.70842C80.8746 2.26886 80.6289 1.62172 80.0393 1.54846C79.462 1.65835 78.8724 1.74382 78.2829 1.80487C78.0126 1.85371 77.8038 2.07349 77.509 2.06128C76.7106 1.92697 76.0228 2.30549 75.2121 2.26886C74.991 2.32991 74.7822 2.4398 74.5119 2.39096C73.6398 2.54969 72.7554 2.48864 72.0185 2.97704C71.3306 3.50208 71.5394 4.43005 71.2201 5.1016C70.7779 5.89526 70.5199 6.76218 70.2743 7.64131C70.1883 8.01982 70.2865 8.39834 70.1023 8.72801C69.8566 8.69138 69.918 8.36171 69.6601 8.30066C69.3039 8.31287 68.9968 8.58149 68.6897 8.77685C67.1298 9.36294 65.6804 8.4716 64.5503 7.507C64.4275 7.1529 64.6363 6.79881 64.7346 6.46914C65.3733 5.40686 66.4542 4.34458 67.7685 4.35679C68.0142 4.6132 67.7316 4.90624 67.6702 5.17486L67.7316 5.95631C68.1001 6.48135 68.7634 6.68892 69.3776 6.59124C69.8689 6.32262 70.176 5.84642 70.3234 5.34581C70.4831 4.33237 70.3725 3.23346 69.5864 2.50085C69.2916 2.13455 68.7511 2.26886 68.3704 2.20781C66.663 2.35433 65.1645 3.03809 63.7765 4.0149C63.5554 4.41784 63.0886 4.72309 62.9289 5.16265C62.757 5.34581 62.757 5.67548 62.4745 5.74874C62.2411 4.19806 62.1674 2.57411 60.9882 1.40194C60.6934 1.29205 60.3126 1.18216 60.0056 1.32868C58.3473 2.63516 57.7209 4.50331 56.6768 6.12725C56.0872 6.43251 56.075 7.06743 55.8784 7.58026C55.7433 8.3495 55.1414 8.91116 54.8221 9.59493C54.7484 9.98565 54.6747 10.4252 54.7729 10.8159C54.7975 11.2189 55.2643 11.109 55.4485 11.402C55.6696 11.3532 55.7679 11.6584 55.9767 11.5852C56.8611 10.938 56.9102 9.85134 57.6103 9.10652C58.3719 8.94779 59.1089 8.74022 59.9564 8.81348L60.0793 8.91116C60.1898 9.72924 59.9196 10.7305 60.4723 11.402C60.7548 11.7805 61.2462 11.8904 61.6883 11.7927C62.0691 11.4264 62.2042 10.9869 62.2657 10.4863C62.0814 9.85134 62.2534 9.10652 62.3271 8.45939L62.4008 8.38613L62.4745 8.44718C62.8307 9.26525 63.6536 9.86355 64.3292 10.4496C65.4593 11.2311 66.663 11.866 68.1124 11.9393C69.2793 12.0858 69.8443 10.8892 70.2743 10.0955C70.3357 10.0833 70.3848 10.1322 70.4339 10.181C70.655 10.6572 71.1709 11.0846 71.6622 11.2677C72.2396 11.634 73.0257 11.634 73.7258 11.6951C74.5734 11.4142 75.6174 11.634 76.293 10.9014C76.4527 10.3886 76.7229 9.6804 76.3544 9.19199C76.2561 9.04547 76.035 9.05768 76.0105 8.85011C76.3544 8.60591 76.858 8.67917 77.1037 8.28845C77.0668 7.82446 77.4599 7.43374 77.2511 6.93312C77.0423 6.4203 76.7475 5.79758 76.121 5.63885C75.3349 6.0662 74.3154 5.822 73.4187 5.85863L73.3082 5.79758C73.3205 5.40686 73.5539 4.96729 73.9838 4.82077C75.7894 4.44226 77.7301 4.44226 79.6463 4.29574C80.0885 4.18585 80.4447 4.52773 80.9114 4.41784C81.0343 4.38121 81.0957 4.25911 81.1448 4.17364L81.1325 2.70842Z" fill="#08324A"/>
<path d="M53.4539 8.60873C52.562 8.79634 51.7975 9.55929 50.8013 9.17156C50.6391 9.00896 50.3148 8.85888 50.3727 8.59622C50.5928 8.221 51.0793 8.19599 51.4731 8.25852L52.3882 8.0459C53.2802 7.89581 54.1837 7.97085 54.9945 7.63315C55.203 7.47056 55.3999 7.24543 55.4463 6.97026C55.5274 6.21982 55.3768 5.39434 54.7281 4.94407C54.4269 5.06914 54.1837 5.31929 53.8825 5.41935C53.3149 5.43186 52.84 5.70702 52.2492 5.682C52.006 5.64448 51.6816 5.81959 51.5079 5.58195C51.6353 5.24425 51.7975 4.90655 52.087 4.64389C53.5697 4.10608 55.2378 4.00602 56.7552 3.55575C57.2417 3.36814 57.1375 2.83033 57.2417 2.39257C56.9521 2.24248 57.3807 1.92979 57.0332 1.79221C57.0911 1.51705 56.732 1.46702 56.8363 1.17935C56.8015 0.829146 56.4309 0.791624 56.2108 0.629028C55.5505 0.841654 54.8092 0.854161 54.1837 1.17935C53.6972 1.21687 53.2686 1.39198 52.7936 1.44201C52.3882 1.69215 51.8438 1.5921 51.4268 1.80472C50.9287 1.9423 50.6275 2.51764 50.5928 3.03044C50.2684 3.6433 50.002 4.29369 49.585 4.86903C49.0174 6.23233 48.2876 7.52059 48.4614 9.19657C48.4267 10.2347 49.2607 11.0101 49.9904 11.573C50.7549 11.8231 51.6237 12.0608 52.4577 11.8982C52.8284 11.573 53.3497 11.648 53.674 11.2353C54.1605 10.81 54.1721 10.1847 54.1373 9.53427C54.0331 9.18407 53.8477 8.7213 53.4539 8.60873Z" fill="#08324A"/>
<path d="M47.3784 3.62964C46.9445 3.99974 46.4624 4.31014 45.9321 4.47728C45.7513 4.44146 45.5464 4.56084 45.4741 4.34595C45.4259 3.92811 45.3536 3.51026 45.2571 3.11629C45.3897 2.98497 45.6067 3.09241 45.7633 3.03272C46.2816 3.03272 46.7637 3.14017 47.2338 3.27149C47.3904 3.31924 47.4387 3.49832 47.3784 3.62964ZM48.9091 5.42041C49.126 5.2294 49.355 5.02644 49.4635 4.75186C49.9456 3.88035 49.5961 2.75814 49.0899 1.98213C48.8368 1.7553 48.7524 1.4449 48.4511 1.2897C48.0413 1.46878 47.9569 0.883796 47.523 1.05093C46.9686 0.871857 46.3057 0.919611 45.7392 0.764411C45.4982 1.05093 45.1728 0.728595 44.9197 0.84798C44.763 0.991242 44.5942 0.824103 44.4376 0.764411C44.2688 0.776349 44.0278 0.776349 43.9555 0.907673C43.8711 1.11063 43.5939 1.09869 43.4131 1.18226C43.1841 1.18226 43.0515 0.967365 42.8105 0.979303C42.5333 1.20613 42.1355 0.979303 41.8583 1.23001C41.8463 1.51653 41.5088 1.48072 41.3159 1.48072C41.0508 1.57623 40.9423 1.86275 40.7977 2.07764H40.7254C40.641 1.80306 40.5807 1.5046 40.3517 1.27777C40.0866 1.039 39.7129 0.788288 39.3273 0.955426C38.9175 1.12257 38.9777 1.61204 38.8813 1.95826C38.8331 2.9969 38.6523 4.10718 38.6403 5.19358C38.5438 5.40848 38.6523 5.74275 38.4715 5.89795C38.0738 5.48011 37.7966 4.94288 37.3747 4.50115C36.8444 3.96392 36.6275 3.2118 36.8203 2.5313C36.736 2.11346 36.7119 1.6598 36.5793 1.26583C36.4226 0.812165 35.8923 0.836042 35.5428 0.680842C35.133 0.489826 34.8437 0.871857 34.5424 1.09869C34.0844 1.51653 34.3254 2.2806 34.217 2.80589C34.1808 3.16404 34.5183 3.47444 34.2652 3.82066C34.3375 5.32491 33.8192 6.61426 33.5541 7.99912C33.3371 8.71543 33.1322 9.76602 33.7469 10.3629C34.0964 10.6136 34.5665 10.6017 34.9883 10.7092C35.5066 10.4226 35.5307 9.86153 35.6151 9.34817C35.5789 8.44085 35.9164 7.61709 36.1454 6.7814L36.2418 6.67395L36.5552 6.98435C36.977 7.79617 37.5435 8.57217 37.9292 9.40786C37.9051 10.1122 38.122 10.7569 38.6644 11.2106C39.0742 11.1867 39.5442 11.3777 39.8937 11.1509C40.1468 11.0076 40.2071 10.7211 40.3156 10.4943C40.5325 9.83765 40.5928 9.13328 40.3517 8.46472C40.5928 7.11568 40.6289 5.63531 40.6651 4.21463C40.6531 3.99974 40.4964 3.82066 40.5807 3.59383C40.6289 3.53414 40.6531 3.41475 40.7736 3.43863C40.9423 3.65352 41.1593 3.73709 41.4244 3.77291C41.9547 3.92811 42.2078 3.37894 42.702 3.40281C42.9913 3.367 43.2685 3.14017 43.5095 3.31924C43.5095 3.6774 43.4975 4.13106 43.4131 4.50115C43.2564 4.82349 42.8225 4.64441 42.5935 4.85931C42.1596 5.18165 42.1958 5.68306 42.0632 6.11285C42.0994 6.72171 42.6056 7.29475 43.1118 7.59322C43.0033 8.10657 43.0395 8.69156 42.8828 9.19297C42.9189 9.67051 42.8346 10.2197 43.0636 10.6256C43.1118 11.0912 43.6421 11.0434 43.9193 11.2941C44.1242 11.3896 44.2688 11.2106 44.4858 11.2464C44.763 11.0673 44.9076 10.7808 44.992 10.4823C44.992 9.39593 45.0884 8.21402 45.3536 7.17537L45.4982 6.99629C45.8598 6.94854 46.2213 6.84109 46.5347 6.68589C46.9686 6.73365 47.2338 6.33968 47.6556 6.35161C48.0292 6.29192 47.8605 5.82632 48.2462 5.75469C48.5957 5.80245 48.5595 5.32491 48.9091 5.42041Z" fill="#08324A"/>
<path d="M33.9217 2.70965C33.9994 2.36767 33.9994 1.94969 33.7535 1.67104C33.7147 1.46839 33.3653 1.43039 33.4559 1.18974C32.9512 0.290455 31.8125 0.721096 30.9972 0.809758C30.182 1.05041 29.302 1.1644 28.435 1.2024C27.9304 1.64571 27.0116 1.37973 26.7787 2.17768C26.6363 2.81098 26.7528 3.5076 26.3258 4.03957C25.5105 5.17951 25.5105 6.68675 25.1611 8.02934C25.2647 8.52331 25.4717 8.97929 25.627 9.46059C26.054 9.91656 26.1317 10.6892 26.8693 10.8032C27.4904 10.8412 27.9174 11.3098 28.5515 11.1958C28.7456 11.2085 29.0044 11.4745 29.1468 11.1958C29.2632 11.1325 29.3538 11.2465 29.4573 11.2592C29.6773 11.3858 29.8843 11.2465 30.0267 11.1072C30.5443 11.0945 31.036 10.7652 31.2819 10.3345C31.4631 9.78991 31.4501 9.04261 31.1137 8.57398C30.8937 8.32066 30.7255 7.85202 30.3243 7.89002C29.8196 8.42198 29.0562 8.39665 28.3186 8.39665C27.9692 8.34599 27.5939 8.33332 27.348 8.08C27.2833 7.92801 27.3739 7.75069 27.4904 7.67469C27.8398 7.64936 28.1503 7.48471 28.4739 7.49737C28.9138 7.34538 29.4703 7.51004 29.8714 7.23139C30.6866 7.29472 31.4501 7.0034 32.1748 6.76275C32.6795 6.58542 32.6148 6.01546 32.6148 5.57215C32.3042 5.04018 32.1618 4.12823 31.3207 4.1409C30.8678 4.48288 30.2596 4.47021 29.7291 4.6602C29.3926 4.71087 28.9915 4.78686 28.6291 4.72353C28.7456 4.44488 28.9656 4.19156 29.0562 3.90025C29.4314 3.55827 29.962 3.6216 30.402 3.41894C31.0102 3.41894 31.5666 3.25428 32.1748 3.21629C32.7571 3.05163 33.7535 3.4696 33.9217 2.70965Z" fill="#08324A"/>
<path d="M22.1991 7.41799C22.6845 7.26796 23.3104 7.28047 23.898 7.30547C24.3834 7.16794 25.0094 7.25546 25.2904 6.79287C25.1499 6.24276 25.2138 5.61764 24.8816 5.11754C24.6772 4.81748 24.3707 4.56743 24.0002 4.57993L22.5567 4.89249C22.1224 4.84248 21.6625 5.24256 21.3304 4.86749C21.3943 4.65495 21.3687 4.37989 21.5987 4.22986C22.2118 4.00482 22.8633 3.86729 23.502 3.71726C24.013 3.50472 24.7028 3.67975 25.1882 3.3922C25.6608 3.4172 26.0441 3.24217 26.3762 2.97961C26.5295 2.52952 26.2357 2.16695 26.0952 1.77938C26.2101 1.4168 25.7375 1.27928 25.7247 0.954212C25.3543 0.44161 24.7283 0.69166 24.1918 0.679158C22.94 0.929207 21.7264 1.20426 20.4873 1.47932C20.1424 1.60434 19.8231 1.76687 19.4271 1.77938C18.8778 1.9169 18.6862 2.45451 18.5584 2.9046C18.5457 3.51722 18.5968 4.17985 19.1844 4.57993C19.1077 5.24256 18.7117 5.75516 18.5329 6.36778C18.0986 7.49301 18.1113 8.9683 18.8395 9.93099C19.4143 10.6686 20.3085 10.7311 21.0494 11.0937C21.7647 11.5438 22.6206 11.2312 23.3232 10.9937C24.0002 10.5436 23.9874 9.79346 23.8597 9.11833C23.5659 8.79327 23.4381 8.29317 22.9783 8.16814C22.5823 8.26816 22.2757 8.60573 21.7903 8.53071C21.3432 8.4432 20.8705 8.36818 20.4873 8.11813C20.3724 7.9431 20.5384 7.78056 20.6534 7.64304C21.1771 7.58052 21.6625 7.443 22.1991 7.41799Z" fill="#08324A"/>
<path d="M14.7955 4.27496C14.5226 4.53019 14.2744 4.77265 13.927 4.82369L13.9022 4.74712C13.9891 4.00698 14.262 3.33064 14.1752 2.53946C14.4357 2.33528 14.7087 2.60326 14.932 2.71811L15.1802 3.02438C15.4159 3.48378 15.0933 3.93041 14.7955 4.27496ZM16.0363 6.99308C15.937 6.87823 16.0363 6.76338 16.0983 6.67405C16.607 6.21465 16.8552 5.61488 17.0537 5.00235C17.612 3.77728 17.1281 2.37356 16.4829 1.33991C16.1231 0.510443 15.3042 0.191416 14.5474 0C13.9642 0.0255222 13.4555 0.153133 12.8972 0.165894C12.4257 0.127611 12.3141 0.70186 11.9419 0.880515C11.917 1.17402 11.6565 1.36544 11.7061 1.68446C11.5696 2.20767 11.7681 2.71811 12.1776 3.02438C12.1404 3.63691 11.9294 4.21116 11.7681 4.78541C11.6441 5.02787 11.3959 5.00235 11.185 5.05339C10.5398 5.39794 10.6887 6.18913 10.7632 6.77614C10.85 6.99308 11.1106 7.14621 11.1478 7.38867C11.1478 8.44784 10.5894 9.57082 11.0982 10.5534C11.3835 11.0128 11.8302 11.4084 12.4257 11.3063C12.6367 11.2298 12.8352 11.0256 12.9344 10.8086C13.1081 10.1451 12.922 9.45597 12.922 8.76687C13.0833 8.52441 12.9096 8.06501 13.2694 7.96292C13.4307 8.19262 13.6417 8.33299 13.8402 8.47336C13.865 8.57545 13.9394 8.6265 14.0387 8.6265C14.9072 9.20074 15.5028 10.043 16.2596 10.7704L17.2026 10.8597C17.6244 10.63 17.7609 10.1578 18.1207 9.85156C18.7411 8.29471 16.8179 7.89911 16.0363 6.99308Z" fill="#08324A"/>
<path d="M9.28186 4.58878C7.88206 4.85437 6.43441 4.95095 5.04657 5.24068C4.63979 5.38555 4.10141 5.39762 3.87409 5.85636C3.71856 6.47205 3.69463 7.13602 4.12534 7.63098C4.35266 7.73963 4.67569 7.92071 4.9389 7.71548C5.82424 7.48611 6.79333 7.46197 7.69064 7.26881C7.82224 7.38953 7.7026 7.54647 7.7026 7.6672C7.37957 7.98107 7.00868 8.15009 6.61387 8.28288C6.0037 8.17423 5.47728 8.69333 4.85515 8.37946C4.57997 8.37946 4.19712 8.57261 4.01766 8.27081C3.39553 8.12594 2.72554 8.08972 2.22305 7.6672C2.00769 7.30503 2.06752 6.81007 2.28287 6.48412C3.26392 4.81815 4.78336 3.06768 6.55405 2.15019C6.75744 2.08983 7.0685 1.93289 7.24797 2.16226C7.51118 2.5365 7.49921 3.03146 7.96581 3.32119C8.32473 3.49021 8.61187 3.22462 8.87508 3.07975C9.2699 2.51236 9.00669 1.73973 8.81526 1.17234C8.48027 0.737739 8.13331 0.194489 7.54707 0.0979108C6.98476 -0.119389 6.3028 0.0496219 5.82424 0.3635C5.10639 0.484222 4.7714 1.36549 4.12534 1.65523C3.96981 1.83631 3.71856 1.89667 3.56303 2.07776C3.09643 2.07776 3.35964 2.71758 2.92893 2.71758C2.64179 2.89867 2.28287 3.16426 2.29483 3.55057C1.63681 3.87652 1.44538 4.57671 0.990747 5.08374C0.906998 5.44591 0.727537 5.75978 0.691645 6.1461C0.607896 6.59277 0.847178 6.96701 0.787358 7.43782C0.751465 7.52233 0.607896 7.48611 0.631824 7.60683C0.811286 7.79999 0.56004 8.06558 0.835214 8.22252C0.787358 8.65712 1.06253 8.98307 1.34967 9.2728C2.76143 10.3472 4.85515 10.5525 6.57798 10.1179C6.84119 10.0575 7.05654 9.85227 7.34368 9.82812C7.41546 9.82812 7.43939 9.91263 7.45135 9.96092C7.34368 10.6128 7.36761 11.2889 7.37957 11.9287C7.5351 12.3874 8.08545 12.2909 8.40848 12.5806C8.7674 12.5202 9.15026 12.4719 9.41347 12.2184C9.65275 11.7355 9.65275 11.0957 9.59293 10.5404C9.66471 9.65911 9.96381 8.86235 10.1433 8.02936C10.2868 7.49818 10.6577 7.05151 10.6936 6.47205C10.5022 5.95294 10.5261 5.37347 10.1313 4.9268C9.92792 4.63707 9.58096 4.61292 9.28186 4.58878Z" fill="#08324A"/>
</svg>
