<svg width="61" height="47" viewBox="0 0 61 47" fill="none" xmlns="http://www.w3.org/2000/svg">
<g clip-path="url(#clip0)">
<path d="M34.8045 11.0135C34.9219 11.0084 35.0954 11.0058 35.2944 11.0058C35.6287 11.0058 36.037 11.0187 36.384 11.0625C36.7387 11.1088 37.0219 11.114 37.272 11.1191C37.3766 11.1217 37.4761 11.1243 37.568 11.1294C37.6011 11.011 37.7057 10.8951 37.8869 10.7818C38.4457 10.4264 38.6601 10.3389 38.831 10.2668L38.905 10.2359C38.9765 10.205 38.9765 10.1715 38.9765 10.1509C38.9714 9.99382 38.7239 9.71314 38.4202 9.59726C37.943 9.41701 36.9402 9.25735 36.3508 9.27538C35.8456 9.28825 35.6542 9.40413 35.1949 9.67966L35.0826 9.74919C34.7841 9.92944 34.7356 10.6324 34.756 10.7509L34.8045 11.0135Z" fill="white"/>
<path d="M43.9394 14.0547C43.6944 14.2066 43.4444 14.3637 42.9646 14.4693C42.3012 14.6161 42.0078 14.6392 41.8929 14.6418C41.7552 14.7113 41.5765 14.8427 41.5714 14.9534C41.5663 15.0435 41.6914 15.1671 41.9032 15.2856C42.8166 15.7954 44.3859 15.8959 46.2104 15.5585C47.9149 15.2418 48.6574 14.7654 48.9457 14.5079C48.9942 14.4641 49.0172 14.3998 49.0146 14.3122C49.007 14.1165 48.8513 13.7921 48.4328 13.4702C48.341 13.4006 48.244 13.3208 48.142 13.2358C47.5627 12.762 46.8457 12.1775 46.093 12.4916L46.0598 12.7183C45.996 13.1637 45.8021 13.3697 44.8401 13.6427C44.3987 13.7689 44.1665 13.9157 43.9394 14.0547Z" fill="white"/>
<path d="M31.1709 11.3689C31.4337 11.2814 32.1252 11.0728 32.8269 11.0471C33.498 11.0213 34.0747 11.0471 34.3069 11.0599C34.3375 11.011 34.3783 10.9389 34.4217 10.8539L34.4141 10.8076C34.3911 10.6711 34.4064 10.084 34.6539 9.69C34.6514 9.6797 34.6514 9.66682 34.6488 9.65652C34.5493 9.21103 33.72 9.05396 32.8652 9.05396C32.7427 9.05396 32.6203 9.05653 32.4978 9.06426C31.62 9.10803 30.6402 9.36039 30.5662 9.80845C30.4743 10.3647 30.6657 10.8616 31.1709 11.3689Z" fill="white"/>
<path d="M36.1193 18.8855C36.1346 18.8289 36.1474 18.7722 36.1627 18.7156C36.2188 18.4915 36.2903 18.2108 36.3872 17.9405C36.4766 17.6958 36.5837 17.5362 36.6807 17.3971C36.8848 17.0958 37.0481 16.8589 36.8389 15.7105C36.5301 14.0083 36.3439 12.9835 35.5911 12.4659L35.3283 12.2831C34.6317 11.7938 33.9759 11.3329 33.1364 11.3998C33.0012 11.4101 32.8557 11.4153 32.6924 11.4204C32.1413 11.4384 31.4421 11.459 30.5439 11.7474C30.7685 11.7217 30.9956 11.7062 31.2278 11.7062C31.5927 11.7062 31.9627 11.7526 32.3301 11.8504C32.6618 11.9225 32.9731 12.059 33.2564 12.2393C34.6164 13.0607 34.9711 14.4693 35.0502 14.8993C35.0885 15.1156 35.1676 15.453 35.2671 15.8444C35.3717 16.1482 35.4789 16.4521 35.5682 16.7122C35.7544 17.2375 35.8539 17.5182 35.8718 17.6315C35.8871 17.7139 35.8718 17.8194 35.8335 17.9508C35.9458 18.3319 36.0479 18.6692 36.1193 18.8855Z" fill="white"/>
<path d="M59.3288 14.7294C57.7059 16.4263 54.5674 18.7877 51.4314 20.9353C48.9716 22.6194 45.3507 25.5884 39.7167 28.609C39.7192 28.5884 39.7218 28.5678 39.7243 28.5446C39.5432 28.6605 39.3263 28.7532 39.0992 28.8356C39.0941 28.8716 39.0915 28.9077 39.0864 28.9437C37.7111 29.6622 36.2184 30.3806 34.5981 31.0836C33.9525 31.3643 33.3401 31.6295 32.7558 31.8819C32.1638 31.3514 32.1051 31.0862 31.8372 30.6742C31.4876 30.136 30.4618 30.0381 30.5715 29.6055C30.6813 29.1729 30.9798 28.2175 31.1406 27.8905C31.1839 27.803 31.235 27.6897 31.286 27.5738C32.1791 27.9266 33.2635 28.3077 33.6922 28.3617C34.4118 28.4519 35.4962 28.8227 36.2975 28.7686C37.0987 28.7145 37.9662 28.5549 38.2775 28.4029C38.3975 28.3437 38.7139 28.1918 39.0788 28.0038C39.2344 27.7824 39.4028 27.7128 39.635 27.6922C39.6912 27.6536 39.7473 27.6201 39.806 27.6124C40.1683 27.4064 40.4924 27.2004 40.6506 27.0407C41.0767 26.6133 40.5077 26.7807 39.9336 27.1412C39.9004 27.1618 39.8596 27.1824 39.8162 27.2055C39.8188 27.1618 39.8188 27.1154 39.8188 27.0691C39.658 27.2158 39.4794 27.342 39.2242 27.3935C39.2242 27.4038 39.2242 27.4167 39.2242 27.427C38.2265 27.7412 36.5909 28.0476 35.8943 27.8879C34.9757 27.6768 33.733 27.2699 33.4396 26.9764C33.1462 26.6802 32.2531 26.4021 31.559 26.2141C30.865 26.0262 31.3932 25.9901 31.6483 25.6657C31.9035 25.3412 32.8042 24.7438 32.9037 24.0279C33.0058 23.3095 32.6971 22.9541 32.2046 22.6631L31.9418 22.7945C31.9137 22.8563 31.8856 22.9181 31.8576 22.9799C31.5896 23.5721 31.3141 24.185 30.0127 24.9884C29.6733 25.282 29.362 25.6219 29.2421 26.1111C29.0609 26.8528 29.6121 26.7652 30.0025 27.0098C30.0459 27.0382 30.1224 27.0768 30.2169 27.1231C30.0255 27.5944 29.6351 28.009 29.5254 28.1892C29.4029 28.3926 29.0405 28.833 29.1936 29.4922C29.3442 30.1514 29.4845 30.7617 30.3164 31.4338C30.6481 31.7016 31.0793 32.0544 31.531 32.4097C29.9489 33.0896 28.5965 33.6664 27.4355 34.1531C27.3207 33.9084 27.2365 33.6921 27.2187 33.5325C27.16 33.0355 26.8589 31.3746 27.1242 31.1042C27.3896 30.8338 27.1829 30.3935 27.1523 30.051C27.1217 29.7059 27.6473 29.8321 28.1653 29.3866C28.6833 28.9411 29.038 28.3025 29.1273 28.0965C29.2166 27.8905 29.2013 27.2879 28.9538 27.1437C28.7063 26.9995 28.4383 27.0794 28.0607 26.9017L27.4636 26.6236C27.0196 26.9712 26.642 27.3085 26.2924 27.6253C26.5195 27.7154 26.7491 27.8287 26.966 27.9678C27.8846 28.5626 26.8308 28.6527 26.2414 28.8948C26.0653 28.7454 25.7999 28.5085 25.5524 28.2871C25.2998 28.5059 25.0395 28.7171 24.7512 28.9205C24.445 29.1394 24.1669 29.3506 23.8989 29.5566C23.8862 29.5669 23.8734 29.5772 23.8581 29.5875C24.4322 29.742 24.7997 29.724 25.014 30.0381C25.1288 30.2879 25.213 30.4012 25.3126 31.081C25.3024 31.1711 25.2845 31.2561 25.2488 31.3282C25.1161 31.5934 24.7359 31.9591 24.2868 32.3479C24.3404 32.1909 24.3889 32.0621 24.4322 31.9874C24.6568 31.6063 24.5981 30.8158 23.9882 30.4604C23.7739 30.3368 23.4856 30.2003 23.2023 30.0767C22.7226 30.4218 22.2251 30.7257 21.6203 30.9626L21.4621 31.3514C21.9929 31.5059 22.9829 31.8741 22.8961 32.3145C22.8094 32.7548 23.1921 33.0226 22.2302 33.4964C21.2682 33.9702 20.962 34.3668 20.9058 34.7582C20.8523 35.1496 20.6864 36.0277 20.518 36.5247C20.4899 36.6097 20.4491 36.7281 20.4032 36.8697C19.061 37.2406 18.89 36.9727 18.9895 36.6895C19.0993 36.3728 17.9204 36.1256 17.4994 36.1178C17.0784 36.1101 15.6367 35.5719 15.4351 35.6105C15.2309 35.6492 15.0243 35.4329 15.555 35.1213C16.0858 34.8123 15.7209 33.9471 15.7336 33.5634C15.7464 33.1797 16.0118 32.3248 16.3077 32.1007C16.6037 31.8767 16.7619 31.5934 17.5096 31.3282C17.5657 31.3076 17.6065 31.287 17.6423 31.2664C17.4432 31.1995 17.2723 31.1222 17.109 31.0527C16.8589 30.942 16.6446 30.8467 16.3945 30.8158C15.6902 30.7257 14.4195 31.0913 13.5673 31.354C13.1845 31.6218 12.9982 31.9102 12.9982 31.9102C12.7788 32.5436 12.0312 34.6732 12.0082 35.6955C11.9852 36.7178 12.9855 36.9135 13.0952 37.0603C13.2049 37.2097 13.7918 38.1186 14.1541 38.2628C14.5165 38.4071 17.2059 39.3495 17.6014 39.4474C17.997 39.5427 18.3899 39.1744 18.5558 38.9324C18.714 38.7006 19.0125 38.9787 19.9464 38.577C19.8775 38.9452 19.8367 39.3057 19.852 39.6045C19.8979 40.462 20.0255 41.7881 19.8444 42.9726C19.7499 42.9546 19.6581 42.9314 19.5637 42.9134C19.5637 43.1297 19.5637 43.31 19.5637 43.5185C19.6173 43.5288 19.6683 43.5417 19.7219 43.552C19.3953 44.77 18.7038 45.4679 18.7063 45.6327C18.7114 45.8001 19.084 46.1554 20.1072 44.3142C20.1837 44.1752 20.2552 44.0387 20.3241 43.9022C20.1965 43.619 20.5996 43.4027 20.7681 43.1143C20.7425 43.1117 20.7196 43.1091 20.6941 43.1065C21.2197 41.8551 21.3753 40.8662 21.5055 40.1581C21.6254 39.4989 21.5284 38.8139 21.7045 37.8586C22.1791 37.668 22.7379 37.4414 23.3707 37.1839C23.409 37.9487 23.4754 38.7264 23.5953 39.1796C23.8428 40.1298 24.098 42.3186 24.2919 43.1735C24.2332 43.1786 24.172 43.1812 24.1133 43.1864C24.0827 43.3795 24.0699 43.5984 24.2256 43.7709C24.3123 43.7632 24.4016 43.7606 24.4884 43.7503C24.7282 44.3271 25.1314 45.0919 25.6826 46.037C26.3536 47.1829 26.5833 47.2987 26.2669 46.4799C26.0066 45.8078 25.4274 44.4662 25.1671 43.6653C25.1977 43.6602 25.2284 43.655 25.259 43.6499C25.1952 43.4928 25.1824 43.3125 25.1799 43.0628C25.1288 43.0705 25.0778 43.0808 25.0268 43.0885C24.9094 42.0894 24.6925 37.789 24.6415 37.0809C24.6338 36.965 24.6287 36.8234 24.6262 36.6715C25.2819 36.4011 25.9836 36.1101 26.7262 35.7959C27.2187 36.7976 29.8213 40.3744 30.5179 40.7813C30.546 40.7993 30.5817 40.8147 30.6124 40.8302C30.9977 40.8482 31.3753 41.0156 31.6356 41.3297C31.6534 41.3194 31.6738 41.3091 31.6917 41.2963C32.2327 41.4997 32.8042 41.6954 33.2406 41.8963C34.0316 42.2593 33.853 41.9735 33.6973 41.8113C33.5468 41.6542 33.0466 41.2319 32.3551 40.8637C32.4572 40.7941 32.5567 40.7169 32.6562 40.6448C32.4827 40.5109 32.3271 40.3409 32.1485 40.2817C32.0311 40.3641 31.9163 40.4491 31.7963 40.5289C31.2937 40.1838 30.8624 39.7693 30.4822 39.4525C29.9821 39.0379 29.0482 36.8594 28.4741 35.9479C28.3261 35.7135 28.1755 35.4741 28.0326 35.2397C29.4794 34.6191 31.0257 33.9393 32.5899 33.2209C32.9089 33.4475 33.2125 33.6483 33.4626 33.7848C34.2 34.1865 35.5677 35.196 36.5756 35.6852L36.573 35.6878C36.8206 35.7187 37.0119 35.814 37.2237 35.9376C38.0453 36.1951 37.7545 36.1436 39.635 35.9144C41.6151 35.6749 42.4317 35.2372 41.9213 35.2372C41.4084 35.2372 39.0966 35.3144 38.4255 35.1857C38.2827 35.1573 38.0326 35.0595 37.7187 34.9179C37.757 34.8483 37.7902 34.7788 37.8259 34.7118C37.6371 34.6809 37.4738 34.5625 37.285 34.4775C37.2518 34.5393 37.2212 34.6037 37.1854 34.6655C36.1214 34.1376 34.6797 33.3136 33.756 32.6775C35.5064 31.8561 37.2492 30.9986 38.8695 30.1334C38.8593 30.1797 38.8466 30.2261 38.8364 30.275C39.043 30.2905 39.2446 30.3265 39.4283 30.3033C39.4666 30.1282 39.5023 29.9506 39.5355 29.7729C40.722 29.124 41.832 28.475 42.8093 27.8364C50.0917 23.0983 56.7567 17.9688 59.4002 15.1903C62.0539 12.4041 60.9516 13.0324 59.3288 14.7294ZM23.3427 34.9822C23.3376 35.0852 23.3325 35.4071 23.3376 35.832C22.914 35.9968 22.5389 36.141 22.2046 36.2646C22.7532 34.9539 22.8732 35.3968 23.3631 34.7402C23.3529 34.8303 23.3478 34.9153 23.3427 34.9822ZM24.7002 35.2887C24.7537 34.8638 24.8405 34.529 24.9706 34.4698C25.2794 34.3282 25.3917 34.0114 25.3381 33.2569C25.3228 33.0484 25.3866 32.8346 25.4937 32.6286C25.6239 33.5247 25.879 34.1479 26.1572 34.6887C25.6264 34.9101 25.1442 35.1084 24.7002 35.2887Z" fill="white"/>
<path d="M8.10134 34.0938C8.26465 34.0654 8.43051 34.0423 8.60402 34.0242C10.38 33.8646 11.5767 33.517 12.457 32.5925C12.9903 32.0337 13.0414 31.7015 13.0005 31.5264L12.9597 31.5393C12.753 31.6011 12.5846 31.7299 12.406 31.8638C12.1585 32.0517 11.888 32.2577 11.5053 32.2577C11.3113 32.2577 11.0842 32.2037 10.8214 32.0646C10.1121 31.6938 10.2396 31.2303 10.3519 30.8209C10.431 30.5325 10.5127 30.2338 10.3596 29.8887C10.3009 29.7574 10.2703 29.6286 10.2575 29.4973C8.97401 29.7728 8.22893 30.4114 7.97121 30.5376C7.71349 30.6664 7.22102 31.1427 7.02454 31.3616C6.94034 31.0758 6.86379 30.7848 6.79489 30.4913C7.05516 30.1951 7.26695 29.9762 7.39198 29.8913C8.10134 29.4097 8.58361 28.1351 9.24194 28.0553C9.90026 27.9754 10.8878 27.4115 11.2577 27.5969H11.2603C11.4364 27.4115 11.6226 27.2287 11.8038 27.051L12.0232 26.8347C12.1712 26.6853 12.3601 26.5102 12.5719 26.3119C12.8525 26.0493 13.1868 25.7351 13.5262 25.3926C12.6382 25.6064 11.4925 25.9051 10.8878 26.0158C10.0355 26.1729 9.62979 26.2501 9.19345 26.6261C8.75967 27.0021 8.26975 26.6287 7.7288 27.5763C7.48129 28.0089 7.00668 28.5703 6.52442 29.0982C6.43001 28.4621 6.37642 27.8132 6.35601 27.1566C6.16463 27.1566 5.98602 27.1566 5.77168 27.1566C5.79719 28.0012 5.8814 28.8303 6.02174 29.6389C5.63899 30.0458 5.30983 30.3883 5.16438 30.5685C5.09804 30.6509 4.97556 30.8131 4.81736 31.0166C4.41164 30.826 4.13606 30.5505 4.00338 30.6458C3.82986 30.7694 3.61042 29.3994 2.9572 27.8338C3.65635 27.5686 4.58516 27.2467 5.76147 26.9711C5.76147 27.033 5.76657 27.0922 5.76913 27.154C5.98347 27.154 6.16208 27.154 6.35346 27.154C6.3509 27.0458 6.3458 26.9377 6.34325 26.8295C8.41265 26.2836 10.2677 25.13 10.9694 24.6407C11.7145 24.1206 14.3963 24.0922 14.3963 24.0922L14.802 23.9403C15.1057 23.5334 15.3532 23.1189 15.4961 22.7249L14.9194 22.5961C13.4905 22.8176 10.8316 22.9721 10.2498 23.4613C9.85433 23.7935 8.7954 24.3832 8.06307 24.8107C7.70584 24.3549 7.32309 23.8116 7.90487 23.6416C8.6474 23.4227 11.3292 21.7824 11.9544 21.7515C12.577 21.7206 13.7737 21.5635 14.3478 21.615C14.8046 21.6562 15.269 21.682 15.8814 21.6047C16.0753 21.1592 16.3202 20.7241 16.6188 20.312C15.8686 20.1987 14.8479 20.1138 14.3606 20.2039C13.6691 20.3326 11.7655 20.4717 11.5588 20.7215C11.3522 20.9713 7.92018 22.645 7.5017 22.882C7.08323 23.1189 7.01178 23.6493 7.10109 24.136C7.14957 24.4012 7.39198 24.7411 7.65991 25.0553C7.51191 25.148 7.40219 25.2201 7.35116 25.269C7.15213 25.4519 7.09089 25.6295 6.35856 25.9257C6.36366 25.8201 6.37387 25.7145 6.37897 25.6089C6.18505 25.6089 5.98857 25.6089 5.79464 25.6089C5.78444 25.784 5.77168 25.9592 5.76657 26.1368C5.52672 26.2167 5.24604 26.3016 4.91177 26.3969C4.02124 26.6493 3.23533 26.8681 2.59996 27.0536C2.50045 26.8553 2.39583 26.6596 2.27845 26.4639C1.07152 24.4424 0.818904 24.0588 0.98221 21.9524C1.14552 19.846 2.44431 17.3945 4.67957 15.7671C7.43281 13.7611 14.7306 6.63847 19.7803 3.01278C23.0745 0.654029 28.5784 0.556177 29.7547 0.339871C30.9336 0.120991 31.0995 -0.121064 29.1602 0.0694901C27.2209 0.25747 22.7989 0.334721 19.5022 2.51322C16.2029 4.69172 8.86174 11.7474 4.76632 14.4924C0.742354 17.4512 -0.0282479 20.8605 0.0585086 22.4957C0.145265 24.1309 0.573944 26.1085 1.26034 27.3368C1.28331 27.378 1.30627 27.4218 1.32924 27.4656C1.15062 27.5351 1.02814 27.5943 0.979658 27.6407C0.765319 27.8492 0.392776 28.8046 0.104438 29.9814C-0.183899 31.1608 0.209057 32.8655 0.390224 31.5599C0.573944 30.2544 1.09448 28.5136 1.72985 28.3076C1.73495 28.305 1.7426 28.3025 1.74771 28.3025C2.32694 29.5385 2.89596 31.05 2.78368 31.3333C2.64079 31.699 2.06411 31.2973 2.25294 32.1084C2.41879 32.7084 2.69693 33.0792 3.04906 33.3753C2.68162 33.8749 2.37797 34.2972 2.26314 34.48C1.90591 35.0517 2.83216 37.3795 3.47008 38.5769C4.10799 39.7718 3.88345 39.0096 3.51346 37.892C3.14347 36.7744 3.1256 35.2963 3.22002 35.1315C3.24808 35.08 3.56959 34.6345 4.02634 34.0242C4.21006 34.135 4.40144 34.2534 4.59791 34.3899C5.41955 34.9616 6.31518 34.5238 7.50681 34.2251C7.56294 34.3384 7.61908 34.4491 7.67777 34.5624C7.85128 34.5032 8.0299 34.4157 8.22382 34.3307C8.18555 34.2483 8.13962 34.1736 8.10134 34.0938Z" fill="white"/>
<path d="M18.4537 26.5205C18.446 26.621 18.3669 26.6982 18.2598 26.6879H18.2521C17.7418 26.6416 17.6627 26.6338 16.5195 27.7179L15.9709 28.2407C15.0498 29.1214 14.4935 29.6544 14.0648 29.8192C13.6081 29.9969 12.6334 30.499 12.6231 30.5042C12.5951 30.517 12.567 30.5248 12.5389 30.5248C12.4726 30.5248 12.4088 30.4887 12.3756 30.4243C12.3297 30.3342 12.3654 30.2235 12.4547 30.1746C12.4956 30.154 13.4575 29.657 13.9321 29.4741C14.2919 29.3351 14.8584 28.7917 15.7183 27.9729L16.2669 27.4501C17.4611 26.3197 17.6142 26.2605 18.2827 26.3223C18.3848 26.3274 18.4613 26.4175 18.4537 26.5205ZM19.2626 29.1008C19.1069 29.4973 18.8415 29.7059 18.4741 29.7136C18.4664 29.7136 18.4588 29.7136 18.4537 29.7136C18.0939 29.7136 17.9127 29.4819 17.8056 29.3428C17.7749 29.3042 17.7418 29.2604 17.7214 29.2475C17.5632 29.1368 17.5121 28.8716 17.5198 28.6784C17.5274 28.4338 17.6218 28.2407 17.7775 28.1454C17.9178 28.0604 18.3465 27.8004 18.8288 28.0656C19.2779 28.3179 19.3697 28.8304 19.2626 29.1008ZM10.6737 31.4853C10.7247 31.5728 10.8217 31.6526 10.9875 31.7402C11.5642 32.0415 11.8245 31.8432 12.1843 31.5702C12.2276 31.5368 12.2736 31.5007 12.3221 31.4672C12.4573 31.3694 12.6104 31.2767 12.7865 31.2123C12.8094 31.2046 12.8298 31.1943 12.8502 31.1866L13.1539 31.0913C14.0597 30.8054 15.5729 30.3291 16.4455 30.4424C16.7492 30.481 16.9992 30.5917 17.2621 30.7076C17.854 30.9677 18.5889 31.2947 20.421 30.9265C21.1967 30.772 21.7811 30.5248 22.3118 30.2132C22.3246 30.2055 22.3399 30.1977 22.3526 30.19C22.8068 29.9222 23.2227 29.608 23.6795 29.2553C23.95 29.0493 24.2306 28.8329 24.5419 28.6115C25.0548 28.2458 25.4912 27.8519 25.9505 27.4321C26.0449 27.3446 26.1418 27.257 26.2414 27.1695C26.2873 27.1283 26.3332 27.0896 26.3791 27.0484C26.4225 27.0098 26.4633 26.9738 26.5093 26.9351C26.5884 26.8656 26.67 26.7961 26.7542 26.724C26.7695 26.7111 26.7874 26.6957 26.8053 26.6828C26.892 26.6081 26.9813 26.536 27.0757 26.4613C27.6677 25.9824 28.3745 25.4802 29.3187 24.9678C30.6072 24.2674 31.0538 23.7472 31.3268 23.2502C31.3268 23.2502 31.3268 23.2476 31.3294 23.2476C31.4059 23.1086 31.4672 22.9695 31.5309 22.8305C31.6687 22.5266 31.8091 22.2125 32.0923 21.8648C32.7787 21.0254 32.1127 19.7996 31.6764 19.228C31.6764 19.228 31.6764 19.2254 31.6738 19.2254C31.6305 19.1662 31.5871 19.1147 31.5488 19.0709C31.5488 19.0709 31.5463 19.0683 31.5463 19.0657C31.2911 18.7773 30.6863 18.3447 30.0995 17.9276C29.7499 17.6778 29.3901 17.4229 29.0839 17.1834C29.0201 17.1319 28.9027 17.0418 28.7496 16.931C28.7471 16.9284 28.742 16.9259 28.7394 16.9233C28.6935 16.8898 28.6425 16.8538 28.5914 16.8151C28.5787 16.8048 28.5634 16.7945 28.5481 16.7842C28.5047 16.7533 28.4587 16.7199 28.4103 16.689C28.3873 16.6735 28.3643 16.6581 28.3414 16.6426C28.298 16.6143 28.2572 16.5834 28.2112 16.5551C28.1806 16.5345 28.15 16.5139 28.1194 16.4933C28.0785 16.4675 28.0377 16.4392 27.9969 16.4134C27.9612 16.3903 27.9229 16.3671 27.8872 16.3413C27.8489 16.3156 27.8081 16.2924 27.7672 16.2667C27.7264 16.2409 27.6856 16.2177 27.6448 16.192C27.6065 16.1688 27.5657 16.1456 27.5248 16.1199C27.4815 16.0941 27.4381 16.0684 27.3922 16.0426C27.3539 16.0195 27.3156 15.9989 27.2748 15.9757C27.2263 15.9499 27.1804 15.9242 27.1319 15.8984C27.0936 15.8778 27.0553 15.8572 27.0171 15.8392C26.9686 15.8134 26.9175 15.7877 26.8691 15.7645C26.8308 15.7465 26.7951 15.7285 26.7568 15.7104C26.7058 15.6873 26.6547 15.6615 26.6037 15.6383C26.568 15.6229 26.5297 15.6074 26.494 15.592C26.4429 15.5688 26.3919 15.5482 26.3383 15.5276C26.3026 15.5147 26.2669 15.5019 26.2311 15.489C26.1801 15.4684 26.1265 15.4504 26.0755 15.4323C26.0423 15.422 26.0092 15.4117 25.976 15.4014C25.9249 15.386 25.8714 15.368 25.8203 15.3551C25.8178 15.3551 25.8178 15.3551 25.8152 15.3525C25.7361 15.3319 25.6545 15.3139 25.5779 15.2984C25.3279 15.2547 25.1263 15.2366 24.9604 15.2366C24.5496 15.2366 24.3506 15.3525 24.1286 15.4787C24.0418 15.5276 23.9551 15.5791 23.8581 15.6229C23.7101 15.6898 23.6182 15.8006 23.5034 15.9396C23.3044 16.1765 23.0594 16.4701 22.4445 16.6941C21.5463 17.0212 20.3419 17.6855 18.8569 18.6692C18.1449 19.1404 17.5223 19.7327 17.0248 20.3842C17.0248 20.3842 17.0222 20.3868 17.0222 20.3893C16.7415 20.7576 16.5042 21.1438 16.3128 21.543L16.3103 21.5455C16.147 21.8854 16.0169 22.2331 15.9275 22.5807C15.9097 22.6554 15.8842 22.7326 15.8587 22.8073C15.8076 22.9541 15.7438 23.1034 15.6724 23.2502C15.6698 23.2579 15.6647 23.2657 15.6622 23.2734C15.5882 23.4227 15.504 23.5695 15.4096 23.7189C15.0804 24.2416 14.6441 24.7618 14.1899 25.2433C14.075 25.3643 13.9602 25.4828 13.8454 25.5987C13.8377 25.6064 13.8301 25.6141 13.8224 25.6219C13.4728 25.9746 13.1233 26.3017 12.8196 26.5875C12.6104 26.7832 12.4267 26.9583 12.2787 27.1051L12.0567 27.324C11.9827 27.3961 11.9087 27.4682 11.8372 27.5428C11.1815 28.1943 10.541 28.8999 10.6329 29.5256V29.5282C10.638 29.5617 10.6431 29.5926 10.6533 29.6261C10.6635 29.6647 10.6762 29.7033 10.6915 29.7394C10.9008 30.208 10.7936 30.6046 10.7043 30.9239C10.6354 31.1737 10.5895 31.3411 10.6737 31.4853Z" fill="white"/>
<path d="M33.7943 18.8752C33.9347 18.9061 34.0673 18.937 34.1847 18.937C34.2102 18.937 34.2307 18.8958 34.2409 18.8597C34.3225 18.5997 34.1898 18.028 33.802 17.7576C33.2381 17.3636 31.878 15.6126 31.2248 14.768L30.9875 14.4641C30.6149 13.9903 29.2422 13.2332 27.8413 13.4058C26.6624 13.5525 25.7847 14.3714 25.333 14.8916C25.4274 14.9019 25.5269 14.9147 25.6367 14.9353C27.063 15.1877 28.9385 16.6091 29.2983 16.8924C29.5968 17.1267 29.9541 17.3817 30.3011 17.6289C30.9314 18.0795 31.5284 18.5044 31.8117 18.8237C31.901 18.9241 31.9954 19.0451 32.0898 19.1816C32.3424 19.1404 32.5899 19.0735 32.7277 18.9705C33.0747 18.7155 33.4575 18.8005 33.7943 18.8752Z" fill="white"/>
<path d="M17.8893 28.6218C17.8663 28.7789 17.9097 28.9257 17.9352 28.954C17.9914 28.9926 18.0399 29.0519 18.0909 29.1162C18.1879 29.2398 18.2695 29.3454 18.4532 29.3454C18.4583 29.3454 18.4609 29.3454 18.466 29.3454C18.6829 29.3403 18.8232 29.2218 18.9227 28.9669C18.961 28.869 18.938 28.5523 18.6497 28.3952C18.5578 28.3437 18.4685 28.3231 18.3843 28.3231C18.2287 28.3231 18.0883 28.3926 17.9633 28.4673C17.9276 28.4854 17.9021 28.5446 17.8893 28.6218Z" fill="white"/>
<path d="M34.5115 19.1842C34.5141 19.2202 34.5166 19.2589 34.5192 19.2975C34.5345 19.622 34.5804 19.8151 34.6162 19.9181C34.634 19.8795 34.657 19.8254 34.68 19.7481C34.7718 19.4572 34.9428 19.0863 35.1086 18.7284C35.2719 18.3705 35.5195 17.8323 35.5041 17.7035C35.4888 17.616 35.3561 17.24 35.2158 16.8435C34.9198 16.0092 34.5166 14.8684 34.4682 14.3894C34.4095 13.8126 33.2944 12.1723 31.8195 12.1697C31.8068 12.1697 31.7915 12.1697 31.7787 12.1697L31.424 12.1749C30.0436 12.1981 29.0459 12.2161 27.7394 12.9114C27.6093 12.9809 27.4945 13.0453 27.3848 13.1071C27.543 13.0633 27.7063 13.0272 27.8772 13.0066C29.3674 12.8212 30.878 13.5963 31.3551 14.2015L31.4802 14.3611C31.6231 14.5027 31.7532 14.6521 31.8578 14.8143L31.9675 14.9869C32.4473 15.5997 33.0979 16.4134 33.5878 16.9439C33.7537 17.0598 33.894 17.1988 34.0063 17.3533C34.0369 17.3791 34.065 17.4023 34.0905 17.4203C34.5881 17.7679 34.8075 18.5095 34.6697 18.9396C34.6366 19.0451 34.5804 19.1275 34.5115 19.1842Z" fill="white"/>
<path d="M37.6135 18.0924C37.6288 17.992 37.6416 17.8838 37.6544 17.7783C37.6824 17.5594 37.7079 17.3534 37.7411 17.2118C37.7819 17.0444 37.9019 16.9156 38.0192 16.792C38.1902 16.6118 38.2923 16.4907 38.2744 16.3131C38.2081 15.5663 37.8891 13.877 37.167 12.8341C36.6082 12.0282 35.9932 11.7912 35.1104 11.6445C35.2686 11.7475 35.4242 11.8556 35.5773 11.9638L35.8376 12.144C36.7179 12.7492 36.9246 13.8951 37.241 15.6281C37.366 16.3131 37.366 16.7225 37.3022 17.0083C37.3686 17.459 37.5038 17.8478 37.6135 18.0924Z" fill="white"/>
<path d="M39.4768 16.3491C39.6707 16.1019 39.5941 15.6976 39.5253 15.3423L39.5023 15.2187C39.4997 15.1981 39.1042 13.1071 37.8437 12.2831C37.4099 11.9998 36.9583 11.7964 36.4658 11.6573C36.8333 11.8582 37.165 12.1518 37.4737 12.5972C38.2469 13.7122 38.5301 15.35 38.6169 15.9886C38.7955 16.3749 38.9613 16.774 39.0226 17.0444C39.066 17.2298 39.1195 17.3379 39.1604 17.392C39.1655 17.3637 39.168 17.3302 39.168 17.2839C39.1604 16.7817 39.1757 16.7328 39.4232 16.4212L39.4768 16.3491Z" fill="white"/>
<path d="M38.1141 11.217C38.2392 11.2427 38.3744 11.2711 38.5224 11.3148C39.0225 11.4153 39.4589 11.5621 39.76 11.7784C40.0942 12.0178 40.3621 12.3835 40.5739 12.7904C40.7015 12.7878 40.8725 12.7646 41.1302 12.7157C41.7707 12.5972 42.378 12.1904 42.9317 11.5054C43.0363 11.3766 43.0695 11.2582 43.0337 11.1397C42.9419 10.8307 42.4367 10.5475 41.9774 10.4033C41.8727 10.3698 41.7707 10.3337 41.6661 10.2977C41.0817 10.0891 40.5331 9.89341 39.4487 10.3492C38.5581 10.7252 38.1218 11.0342 37.9814 11.1887C38.0248 11.199 38.0682 11.2093 38.1141 11.217Z" fill="white"/>
<path d="M42.2174 12.6667C41.8806 12.8882 41.4545 13.0762 40.8242 13.1406C40.7962 13.1431 40.7706 13.1457 40.7451 13.1483C40.8599 13.4135 40.9518 13.6865 41.0258 13.944C41.1559 14.1036 41.3881 14.235 41.8678 14.2684C42.6282 14.3225 42.9753 14.1423 43.5009 13.8693C43.7918 13.7174 44.1235 13.5474 44.5905 13.38C45.5754 13.0298 45.6137 12.9036 45.6545 12.7723C45.6698 12.7208 45.6877 12.6693 45.7157 12.6101C45.754 12.5328 45.7617 12.3732 45.6979 12.1904C45.6519 12.059 45.532 11.8221 45.2462 11.6934C44.6568 11.4281 43.6999 11.1603 43.4269 11.2067C43.432 11.356 43.3886 11.5389 43.2304 11.7346C42.9115 12.1311 42.5721 12.4401 42.2174 12.6667Z" fill="white"/>
<path d="M40.1148 15.3319C40.2501 15.5585 40.4159 15.8418 40.7145 16.0529C40.7553 16.0813 40.791 16.1044 40.8191 16.125C40.8191 16.1173 40.8216 16.1096 40.8216 16.1019L40.8318 16.0426C40.8574 15.8907 40.9058 15.6075 40.9109 15.2727C40.916 14.9482 40.5588 12.8187 39.5611 12.1028C39.1554 11.8118 38.3746 11.6264 37.3105 11.5569C37.5683 11.6728 37.8183 11.8067 38.0658 11.9663C39.2498 12.7388 39.7321 14.477 39.8546 14.992C39.949 15.0564 40.0204 15.1723 40.1148 15.3319Z" fill="white"/>
</g>
<defs>
<clipPath id="clip0">
<rect width="61" height="47" fill="white"/>
</clipPath>
</defs>
</svg>
