<svg width="40" height="39" viewBox="0 0 40 39" fill="none" xmlns="http://www.w3.org/2000/svg">
<g clip-path="url(#clip0)">
<path d="M23.1588 38.7537C34.0653 37.0521 41.492 27.0522 39.7468 16.4184C38.0016 5.78452 27.7453 -1.45651 16.8388 0.24508C5.9323 1.94667 -1.4944 11.9465 0.25082 22.5804C1.99604 33.2142 12.2523 40.4553 23.1588 38.7537Z" fill="#07324A"/>
<path d="M25.6283 11.0258H15.1998C13.3883 11.0258 11.9141 12.4633 11.9141 14.2294V17.6113V24.3973C11.9141 26.1634 13.3883 27.6009 15.1998 27.6009H25.6283C27.4398 27.6009 28.9141 26.1634 28.9141 24.3973V17.6113V14.2294C28.9141 12.4633 27.4398 11.0258 25.6283 11.0258ZM26.5712 12.9368H26.9483V13.3046V15.7504L24.0741 15.7616L24.0626 12.9536L26.5712 12.9368ZM17.9883 17.6113C18.5312 16.8758 19.4169 16.3967 20.4112 16.3967C21.4112 16.3967 22.2912 16.8758 22.8341 17.6113C23.1883 18.0904 23.3998 18.6754 23.3998 19.3106C23.3998 20.9207 22.0569 22.23 20.4055 22.23C18.7541 22.23 17.4112 20.9207 17.4112 19.3106C17.4226 18.6754 17.6341 18.0904 17.9883 17.6113ZM27.2569 24.3973C27.2569 25.272 26.5255 25.9851 25.6283 25.9851H15.1998C14.3026 25.9851 13.5712 25.272 13.5712 24.3973V17.6113H16.1083C15.8912 18.135 15.7655 18.7088 15.7655 19.3106C15.7655 21.8066 17.8512 23.8401 20.4112 23.8401C22.9769 23.8401 25.0569 21.8066 25.0569 19.3106C25.0569 18.7088 24.9312 18.135 24.7141 17.6113H27.2512V24.3973H27.2569Z" fill="white"/>
</g>
<defs>
<clipPath id="clip0">
<rect width="40" height="39" fill="white"/>
</clipPath>
</defs>
</svg>
