<svg width="196" height="129" viewBox="0 0 196 129" fill="none" xmlns="http://www.w3.org/2000/svg">
<path d="M126.349 126.089C126.452 126.853 126.155 127.577 125.62 128.049C125.304 128.327 124.904 128.521 124.459 128.58L124.395 128.586C123.189 128.748 122.073 127.9 121.912 126.691C121.751 125.482 122.595 124.363 123.801 124.201L123.866 124.194C125.072 124.033 126.181 124.88 126.349 126.089ZM146.726 118.134C147.281 119.059 147.074 120.236 146.294 120.928C146.191 121.019 146.081 121.096 145.965 121.167L145.881 121.219C144.824 121.827 143.489 121.459 142.883 120.398C142.27 119.337 142.651 117.979 143.702 117.364C144.746 116.737 146.101 117.086 146.726 118.134ZM94.028 122.17C93.899 122.448 93.7185 122.681 93.4992 122.869C92.8544 123.438 91.9064 123.599 91.081 123.205L91.0101 123.173C89.9138 122.636 89.4817 121.323 90.017 120.223C90.5522 119.124 91.8935 118.684 92.9898 119.221C94.0925 119.751 94.5568 121.07 94.028 122.17ZM155.367 111.356C156.173 112.268 156.077 113.671 155.167 114.486C155.155 114.499 155.142 114.506 155.135 114.512C154.219 115.321 152.82 115.243 152.014 114.325C151.208 113.406 151.285 112.022 152.201 111.214C152.214 111.201 152.253 111.168 152.266 111.155C153.181 110.34 154.561 110.437 155.367 111.356ZM104.475 125.604C104.359 126.044 104.12 126.419 103.804 126.704C103.269 127.176 102.521 127.383 101.786 127.189L101.715 127.17C100.535 126.853 99.864 125.65 100.174 124.466C100.49 123.282 101.721 122.59 102.901 122.901C104.075 123.211 104.784 124.421 104.475 125.604ZM115.386 126.924C115.347 127.532 115.07 128.069 114.644 128.444C114.219 128.819 113.651 129.032 113.045 128.994L112.981 128.987C111.762 128.909 110.84 127.862 110.917 126.639C110.994 125.417 112.039 124.492 113.258 124.57L113.322 124.576C114.535 124.654 115.463 125.708 115.386 126.924ZM84.4325 116.789C84.3486 116.899 84.2519 117.002 84.1487 117.093C83.3684 117.785 82.1819 117.843 81.3307 117.177L81.3113 117.157C80.3376 116.42 80.1506 115.03 80.8793 114.059C81.6144 113.083 83.0009 112.895 83.9682 113.633L84.0455 113.691C85.0128 114.441 85.1805 115.832 84.4325 116.789ZM188.429 37.2868C187.727 37.8818 186.476 39.641 185.366 41.0834C185.263 41.2192 184.231 42.9978 183.967 42.8879C183.657 42.8297 183.851 42.0665 184.219 41.1416C184.87 39.4664 185.74 37.8042 187.224 36.0838C190.454 32.326 192.389 29.4931 192.428 26.9577C192.428 26.8284 192.395 26.699 192.486 26.5502C192.576 26.395 192.924 26.3562 192.924 26.3562C193.272 26.2786 193.311 26.2721 193.337 26.2592C193.64 26.0975 193.821 26.9707 194.008 27.4234C194.672 29.0792 191.486 34.6997 188.429 37.2868ZM179.788 48.7347C179.479 49.194 178.782 50.2094 177.996 51.3607C177.531 52.0398 177.357 52.4602 177.138 52.3373C176.925 52.2274 177.073 51.8264 177.286 51.0373C177.641 49.7179 177.931 48.4372 178.202 47.2084C178.905 44.0585 179.511 41.3421 180.936 38.8843C182.142 36.8082 183.238 35.3982 184.206 34.1628C185.508 32.4877 186.663 31.0001 187.578 28.4906C187.694 28.1737 187.933 27.9149 188.242 27.7921C189.087 27.4622 189.984 27.1129 190.319 26.9771C190.345 26.9642 190.39 26.9512 190.435 26.9383C190.545 26.906 190.732 26.7896 190.828 26.8801C190.938 26.9577 190.886 27.1388 190.867 27.307C190.641 29.4478 188.475 32.2807 186.069 35.0813C183.529 38.037 182.639 40.857 181.774 43.5864C181.246 45.2486 180.704 46.9432 179.788 48.7347ZM171.798 60.4414C171.199 61.3017 170.599 62.1619 170.006 63.0027C164.969 70.0978 156.47 78.7323 144.108 87.2957C143.586 87.6579 143.205 88.0848 142.967 87.9101C142.831 87.7808 143.179 87.4186 143.702 86.7847C144.54 85.7758 145.314 84.7862 146.068 83.8225C149.196 79.8254 151.892 76.3781 156.954 73.6681C169.245 67.0903 171.624 56.1662 173.54 47.3895C173.804 46.1735 174.062 45.0028 174.333 43.8839C175.107 40.7341 176.912 37.8689 178.505 35.3464C179.459 33.833 180.356 32.3842 180.981 30.9936C181.091 30.7414 181.291 30.5473 181.542 30.4503C183.29 29.7518 184.522 29.2602 184.631 29.215C184.657 29.202 184.973 29.0791 185.334 28.9304C185.573 28.8334 185.766 28.7428 185.856 28.8334C185.927 28.9563 185.863 29.0662 185.773 29.2602C185.031 30.8513 184.148 31.9832 183.122 33.3091C182.129 34.5832 181.001 36.0256 179.75 38.1858C178.215 40.8311 177.557 43.7804 176.861 46.9044C175.951 50.9597 174.939 55.4871 171.798 60.4414ZM134.01 94.0804C133.926 94.1386 133.539 94.4685 133.455 94.5202C133.326 94.6043 133.229 94.5267 133.281 94.3197C133.758 92.3858 135.015 91.2604 135.46 89.7405C135.577 89.3395 135.66 88.7445 135.667 88.6604C137.273 87.1728 138.614 85.6787 139.626 84.23C140.31 83.2468 140.955 82.212 141.612 81.1513C144.211 76.9537 146.9 72.6073 153.136 70.0073C160.41 66.9674 167.471 62.0325 169.877 46.6068C170.76 40.954 172.695 36.1743 175.352 32.9792C175.397 32.921 175.461 32.8757 175.532 32.8499C176.583 32.4295 177.647 32.0091 178.66 31.6016C178.873 31.5175 179.04 31.4399 179.092 31.5563C179.131 31.6792 179.06 31.7762 178.937 31.9897C178.46 32.8369 177.918 33.7101 177.344 34.6156C175.693 37.2286 173.823 40.1908 172.998 43.5605C172.721 44.6859 172.469 45.8695 172.198 47.0984C170.348 55.5971 168.039 66.1784 156.309 72.4586C150.995 75.3044 148.074 79.0299 144.985 82.9817C142.044 86.7265 139.375 90.3291 134.01 94.0804ZM128.548 76.5721C128.154 77.7622 127.561 80.0453 127.026 82.1991C124.22 87.5544 118.107 94.1903 105.487 99.2158C100.051 101.383 93.467 102.728 84.9032 103.562C81.5112 103.892 78.8608 104.39 74.7595 103.892C69.9166 103.31 65.409 101.868 62.965 101.247C62.707 101.156 62.4426 101.072 62.1911 100.982C61.7591 100.826 61.83 100.141 62.2879 100.199C67.3307 100.794 77.4357 100.891 81.1501 100.671C89.6107 100.16 99.2192 98.0387 108.002 93.7764C112.555 91.5709 118.933 87.5091 121.847 83.4474C126.581 76.8632 128.277 69.8585 129.592 67.0451C131.985 61.929 138.008 59.8723 141.451 59.232C141.864 59.1544 142.296 59.0961 142.728 59.0121C153.336 56.9553 156.186 52.997 157.631 46.775C157.811 45.9989 157.85 45.0934 158.063 44.0521C158.708 40.8376 159.314 40.2231 161.074 39.1689C161.081 39.1689 161.107 39.1495 161.145 39.1301C161.294 39.0525 161.487 38.9037 161.635 38.9749C161.751 39.0395 161.603 39.2724 161.526 39.5117C160.894 41.5878 160.617 44.0068 160.507 45.2098C160.165 49.097 158.979 52.4214 157.089 54.8145C154.697 57.8349 150.357 59.9822 144.198 61.1852C140.561 61.8967 137.963 62.8927 135.983 64.3739C132.036 65.1371 130.05 72.0123 128.548 76.5721ZM125.613 88.738C125.426 89.7923 124.975 93.246 124.801 94.0416C124.794 94.048 124.717 94.3908 124.607 94.8307C113.097 101.24 102.56 106.453 86.3219 105.884C84.8452 105.832 83.6909 105.684 83.7425 105.308C83.8134 104.972 88.1146 104.545 89.5075 104.358C93.7959 103.782 98.0649 103.459 106.616 100.134C116.405 96.3312 123.098 91.0664 125.91 86.8882C125.736 88.2076 125.62 88.6992 125.613 88.738ZM124.143 96.7581C123.924 97.4566 123.247 99.1641 123.053 99.7785C123.008 99.8303 122.969 99.8691 122.924 99.9208C119.855 101.324 116.85 102.689 113.193 103.653C109.782 104.552 107.951 105.056 107.951 104.545C107.951 104.299 108.202 104.105 109.034 103.795C114.857 101.615 116.605 100.645 124.188 96.5964C124.162 96.6934 124.15 96.7516 124.143 96.7581ZM148.048 48.8835C148.674 48.2885 149.789 47.674 150.686 47.7064C151.253 47.7322 151.595 47.991 151.782 48.2044C152.298 48.7865 152.975 50.0283 151.775 51.8264C151.131 52.7965 150.202 53.4692 149.364 53.5921C149.28 53.605 149.196 53.6115 149.112 53.6115C148.248 53.6115 147.726 52.9323 147.403 52.5055C146.72 51.6129 147.184 49.7049 148.048 48.8835ZM163.622 38.0241C163.66 37.953 163.718 37.9077 163.789 37.8753C164.563 37.5131 165.453 37.0927 166.349 36.6594C166.582 36.5494 166.775 36.4201 166.898 36.4783C167.001 36.543 166.865 36.7241 166.781 36.9246C165.704 39.544 165.24 42.1505 164.802 44.6924C164.479 46.5422 164.183 48.2885 163.647 50.0218C160.017 61.9355 152.923 63.9211 145.411 66.0231C143.986 66.4241 142.696 66.961 141.483 67.5754C141.296 67.1615 141.167 66.8769 141.032 66.7217C140.484 66.062 138.852 65.3246 138.059 64.9883C137.917 64.9236 137.904 64.7296 138.04 64.652C139.588 63.7982 141.632 63.0997 144.45 62.5435C150.944 61.2758 155.554 58.9603 158.16 55.6747C160.217 53.0682 161.5 49.4915 161.868 45.3327C162.1 42.8038 162.674 39.6087 163.622 38.0241ZM168.903 35.6504C168.974 35.5146 169.09 35.4111 169.232 35.3529C169.967 35.0619 170.986 34.6479 172.16 34.1887C172.527 34.0399 172.611 34.027 172.721 34.0917C172.779 34.1628 172.74 34.234 172.566 34.5186C170.625 37.6878 169.232 41.7754 168.51 46.3869C166.214 61.14 159.507 65.842 152.601 68.7267C145.959 71.5014 143.025 76.2358 140.439 80.4204C139.794 81.4617 139.162 82.4772 138.498 83.4409C137.975 84.1847 137.369 84.9414 136.679 85.7046C136.299 86.1315 135.854 86.7524 135.602 86.6877C135.319 86.6295 135.338 86.2285 135.306 85.8857C135.241 85.2648 135.183 84.5145 135.17 84.3076C135.119 82.9687 136.963 83.5573 137.588 81.6687C138.214 79.7801 139.097 79.4761 140.561 76.2616C141.296 74.6447 141.741 72.6591 141.838 70.874C141.845 70.8546 141.851 70.8481 141.857 70.8222C142.006 70.4471 141.941 69.6904 141.812 68.966C143.025 68.3257 144.34 67.7759 145.778 67.3749C153.31 65.2664 161.1 63.0803 164.956 50.4487C165.511 48.6313 165.833 46.7621 166.149 44.9511C166.685 41.8789 167.239 38.7291 168.903 35.6504ZM192.17 23.0059C191.583 22.8054 191.299 22.8959 190.944 22.7731C190.59 22.6437 190.1 22.3074 189.506 22.0875C187.765 21.4536 185.553 23.3552 184.128 24.791C182.703 26.2269 173.32 29.0856 171.437 29.8359C169.554 30.5861 168.316 29.7001 166.891 30.2045C165.466 30.7026 162.396 33.2379 160.971 33.5096C159.553 33.7812 157.876 33.031 156.277 34.2081C154.684 35.3852 154.078 37.1574 153.104 37.3191C152.137 37.4808 149.331 37.4485 148.255 38.1017C147.171 38.755 145.172 41.5943 143.728 42.558C142.283 43.5153 126.871 48.1074 123.492 49.6984C120.113 51.2831 108.396 58.8956 106.151 63.4878C103.907 68.0799 90.4942 73.0148 84.3809 74.0497C78.2676 75.0845 79.912 76.4104 79.4219 78.7C78.9382 80.9896 70.2519 84.7474 65.8217 86.0215C61.3915 87.2892 56.9678 87.6061 53.4855 87.535C50.0032 87.4574 43.0452 86.5001 42.0972 84.9155C41.1493 83.3309 41.6394 81.1384 41.001 78.7065C40.3625 76.2746 39.7499 74.6835 37.8218 72.1029C35.8936 69.5287 33.5592 68.4098 31.2377 68.455C29.2387 68.4938 31.1088 70.0073 31.8826 70.8481C32.65 71.6889 33.398 73.1765 31.0249 74.8193C28.6518 76.4557 26.44 76.1905 26.2787 78.7065C26.1175 81.2224 28.3359 82.5354 26.1175 82.5354C23.9057 82.5354 19.1595 81.7399 14.8647 85.0708C10.5763 88.4017 8.674 87.9231 6.02361 88.24C3.37323 88.5569 2.23827 86.4937 1.28387 87.535C0.329474 88.5698 1.29032 90.148 9.67353 92.5281C18.0567 94.9083 23.2737 91.4157 28.3359 90.148C33.398 88.8803 34.346 87.6126 38.615 89.1261C39.1696 89.3201 39.8467 89.6047 40.6398 89.9475C40.6463 89.9475 40.6463 89.9539 40.6527 89.9539C42.2778 91.0211 43.8964 92.153 45.5666 93.3237C48.7974 95.5874 52.1313 97.9287 55.7619 99.9337C64.1064 104.532 76.0041 107.236 81.9626 107.928C83.2911 108.083 86.4509 108.387 90.765 108.387C98.7678 108.387 110.743 107.339 122.35 102.353C122.312 102.443 122.273 102.527 122.234 102.611C120.313 106.699 117.32 112.805 115.87 115.295C114.419 117.778 119.519 116.634 120.661 114.965C121.802 113.296 122.157 113.296 124.665 112.029C127.174 110.767 128.232 106.22 129.992 104.416C131.772 102.592 132.075 99.9855 130.998 98.0257C131.011 97.9805 131.017 97.9611 131.024 97.9158C136.957 94.5202 142.767 90.6072 148.113 86.5584C148.158 86.526 148.216 86.5519 148.222 86.6036C148.506 88.3823 150.84 93.3431 150.434 95.2769C149.957 97.5471 150.312 102.786 149.654 106.24C148.996 109.694 149.331 111.233 151.782 109.383C154.232 107.54 153.123 105.638 153.717 103.646C154.303 101.654 155.071 100.956 155.922 99.3516C156.78 97.7476 157.102 97.4436 155.954 96.2794C154.813 95.1152 155.774 93.9252 155.554 92.3082C155.335 90.6848 157.27 89.8957 157.579 88.2723C157.869 86.733 158.205 81.9921 156.238 80.0906C156.212 80.0647 156.212 80.0194 156.238 79.9936C162.951 74.2178 168.361 68.5779 171.508 64.154L171.515 64.1475C172.953 62.4788 174.088 60.8101 175.003 59.1414V59.1349C176.371 57.1429 177.731 55.1443 179.06 53.1781C179.891 51.9492 180.717 50.7333 181.517 49.5562C185.025 44.4143 188.436 39.4664 189.971 38.1729C192.776 35.8056 197.013 29.8553 195.762 26.7249C194.678 23.9761 192.757 23.2064 192.17 23.0059ZM162.938 106.136L162.932 106.143C162.841 106.259 162.745 106.369 162.635 106.466C161.861 107.152 160.694 107.21 159.843 106.563C158.869 105.826 158.688 104.429 159.424 103.459C159.43 103.452 159.469 103.4 159.475 103.394C160.217 102.43 161.584 102.282 162.545 103.025C163.506 103.763 163.667 105.166 162.938 106.136ZM148.719 51.5676C148.622 51.3219 148.783 50.4228 149.157 50.0671C149.622 49.6338 150.305 49.3298 150.576 49.3298C150.589 49.3298 150.595 49.3298 150.602 49.3298C150.789 49.5497 151.06 49.9766 150.428 50.9209C149.957 51.6259 149.377 51.9492 149.125 51.988C149.061 51.9686 148.912 51.8134 148.719 51.5676ZM168.955 96.3635L168.929 96.4088C168.8 96.6804 168.619 96.9068 168.406 97.0944C167.755 97.67 166.801 97.8317 165.975 97.4242C164.879 96.8874 164.428 95.5615 164.963 94.462L164.995 94.3973C165.537 93.3043 166.859 92.8515 167.949 93.3948C169.051 93.9381 169.496 95.264 168.955 96.3635ZM172.94 85.6141L172.921 85.6852C172.804 86.1185 172.572 86.4807 172.263 86.7589C171.728 87.231 170.973 87.4315 170.225 87.231C169.045 86.9141 168.355 85.6787 168.664 84.4951C168.974 83.3115 170.18 82.6065 171.36 82.917C172.54 83.221 173.249 84.4305 172.94 85.6141ZM174.752 74.3148L174.745 74.3795C174.707 74.9875 174.429 75.5308 174.004 75.8994C173.578 76.2746 173.011 76.488 172.405 76.4492C171.186 76.3716 170.264 75.3238 170.341 74.1014L170.348 74.0367C170.425 72.8208 171.47 71.8894 172.688 71.967C173.907 72.0446 174.829 73.0924 174.752 74.3148ZM136.937 123.147C137.227 124.02 136.95 124.945 136.305 125.514C136.092 125.701 135.834 125.857 135.551 125.954L135.499 125.973C134.345 126.368 133.094 125.753 132.694 124.595C132.301 123.438 132.913 122.183 134.068 121.782L134.138 121.756C135.299 121.368 136.55 121.989 136.937 123.147ZM139.284 19.2222C139.826 18.1227 141.148 17.6764 142.238 18.2197L142.283 18.2456C143.379 18.7824 143.831 20.1083 143.296 21.2079C143.167 21.473 142.986 21.7059 142.773 21.8934C142.128 22.4691 141.167 22.6243 140.342 22.2233L140.278 22.191C139.194 21.6412 138.749 20.3153 139.284 19.2222ZM128.838 15.8008C129.147 14.6172 130.353 13.9122 131.533 14.2226L131.604 14.242C132.784 14.559 133.455 15.762 133.145 16.9456C133.029 17.3789 132.797 17.7411 132.481 18.0192C131.939 18.4979 131.166 18.7048 130.418 18.5108C129.231 18.1939 128.528 16.9844 128.838 15.8008ZM148.867 24.6358C149.615 23.6656 151.002 23.5039 151.962 24.2542L151.988 24.2736C152.962 25.0109 153.149 26.4015 152.414 27.3717C152.324 27.4945 152.22 27.598 152.111 27.695C151.337 28.3742 150.17 28.4453 149.319 27.7985L149.241 27.7403C148.287 26.9901 148.119 25.5995 148.867 24.6358ZM60.3275 55.7135L60.3468 55.6423C60.6564 54.4587 61.8623 53.7861 63.0359 54.0965C64.216 54.4135 64.906 55.6488 64.5965 56.8324C64.4804 57.2722 64.2418 57.6474 63.9258 57.9319C63.397 58.4041 62.6425 58.6111 61.9074 58.417C60.7209 58.1066 60.018 56.8971 60.3275 55.7135ZM63.2616 77.7945L63.2745 77.8786C63.3712 78.6353 63.0746 79.3468 62.5458 79.8125C62.2234 80.097 61.8171 80.2911 61.3593 80.3493C60.1469 80.498 59.0442 79.6378 58.8959 78.4284L58.8894 78.3895C58.7282 77.1801 59.573 76.0611 60.7789 75.8994C61.9848 75.7378 63.094 76.585 63.2616 77.7945ZM58.5025 67.0127L58.509 66.948C58.5864 65.7321 59.631 64.8007 60.8498 64.8783C62.0686 64.956 62.9908 66.0037 62.9134 67.2262L62.9069 67.2908C62.8683 67.8988 62.591 68.4356 62.1654 68.8108C61.7397 69.1859 61.1787 69.3993 60.5661 69.3605C59.3473 69.2829 58.4251 68.2287 58.5025 67.0127Z" fill="#07324A"/>
<path opacity="0.5" d="M46.1019 53.5921C49.4294 52.0075 51.9121 49.9249 53.5436 47.3378C55.1751 44.7506 55.9876 41.9501 55.9876 38.9232C55.9876 35.2171 54.8591 32.0608 52.5957 29.4479C50.3322 26.8413 47.0885 25.095 42.8582 24.2154L53.434 12.7998V3.73193H16.5221V14.9277H36.6547L27.5363 24.804V33.9494H33.5916C38.7956 33.9494 41.3944 35.6052 41.3944 38.9232C41.3944 40.6307 40.6657 41.9501 39.2083 42.875C37.7509 43.7999 35.7776 44.2656 33.3014 44.2656C30.8702 44.2656 28.4004 43.8969 25.8984 43.166C23.3898 42.4352 21.1457 41.3874 19.1531 40.0227L13.8975 50.9209C16.4769 52.5314 19.5271 53.7732 23.0545 54.6528C26.5819 55.5325 30.1415 55.9723 33.7399 55.9723C38.6537 55.9723 42.7744 55.1767 46.1019 53.5921Z" fill="url(#paint0_linear)"/>
<path opacity="0.5" d="M83.2009 55.9722C87.5279 55.9722 91.3971 54.9245 94.802 52.8289C98.2069 50.7333 100.87 47.6676 102.792 43.6446C104.714 39.6217 105.674 34.8549 105.674 29.3379C105.674 23.8273 104.714 19.0606 102.792 15.0376C100.87 11.0147 98.2069 7.9554 94.802 5.85337C91.3971 3.7578 87.5344 2.71002 83.2009 2.71002C78.8223 2.71002 74.9338 3.7578 71.5289 5.85337C68.124 7.94893 65.4607 11.0147 63.539 15.0376C61.6173 19.0606 60.6565 23.8273 60.6565 29.3379C60.6565 34.8484 61.6173 39.6152 63.539 43.6446C65.4607 47.6676 68.124 50.7333 71.5289 52.8289C74.9273 54.9245 78.8223 55.9722 83.2009 55.9722ZM77.3262 18.1098C78.7578 15.7426 80.7182 14.559 83.2009 14.559C85.632 14.559 87.5666 15.7426 88.9982 18.1098C90.4298 20.477 91.1521 24.2219 91.1521 29.3379C91.1521 34.4604 90.4363 38.2052 88.9982 40.566C87.5666 42.9332 85.632 44.1168 83.2009 44.1168C80.7182 44.1168 78.7642 42.9332 77.3262 40.566C75.8882 38.1988 75.1724 34.4539 75.1724 29.3379C75.1724 24.2154 75.8882 20.477 77.3262 18.1098Z" fill="url(#paint1_linear)"/>
<path opacity="0.5" d="M119.745 27.2876L124.414 16.6028C125.388 14.3585 126.02 12.6769 126.31 11.5515C126.6 10.4325 126.748 9.30714 126.748 8.18822C126.748 5.74986 125.968 3.77719 124.414 2.26373C122.86 0.756731 120.887 0 118.507 0C116.076 0 114.083 0.756731 112.529 2.27019C110.969 3.78365 110.195 5.75633 110.195 8.19468C110.195 9.85044 110.569 11.3057 111.323 12.5475C112.078 13.7893 113.135 14.7336 114.496 15.3675L111.065 27.2941H119.745V27.2876Z" fill="url(#paint2_linear)"/>
<defs>
<linearGradient id="paint0_linear" x1="19.9107" y1="22.5394" x2="133.304" y2="64.2199" gradientUnits="userSpaceOnUse">
<stop stop-color="#F04B23"/>
<stop offset="0.4979" stop-color="#CDDC29"/>
<stop offset="1" stop-color="#00B8F2"/>
</linearGradient>
<linearGradient id="paint1_linear" x1="25.279" y1="7.93483" x2="138.672" y2="49.6154" gradientUnits="userSpaceOnUse">
<stop stop-color="#F04B23"/>
<stop offset="0.4979" stop-color="#CDDC29"/>
<stop offset="1" stop-color="#00B8F2"/>
</linearGradient>
<linearGradient id="paint2_linear" x1="34.2443" y1="-16.4555" x2="147.638" y2="25.2249" gradientUnits="userSpaceOnUse">
<stop stop-color="#F04B23"/>
<stop offset="0.4979" stop-color="#CDDC29"/>
<stop offset="1" stop-color="#00B8F2"/>
</linearGradient>
</defs>
</svg>
