<svg width="248" height="158" viewBox="0 0 248 158" fill="none" xmlns="http://www.w3.org/2000/svg">
<path d="M246.82 81.099C246.635 80.7962 246.423 80.5565 246.199 80.3672C245.776 80.0139 245.34 79.7742 244.865 79.5597C244.046 79.1938 243.108 78.9162 242.143 78.6891C240.69 78.3358 239.171 78.0961 237.995 77.9321C236.82 77.7681 236.001 77.6798 235.987 77.6798C232.936 77.3643 229.99 77.2255 227.097 77.2255C221.1 77.2255 215.42 77.8816 209.819 78.9288C208.854 79.055 208.154 79.2317 206.212 79.055C206.239 79.3957 204.944 79.5597 204.97 79.9003C200.4 80.9602 192.949 83.042 189.845 83.9252C189.845 83.9252 187.771 84.6066 186.754 84.922C181.153 86.701 175.578 88.8712 170.215 91.3567L170.123 91.3946C160.374 95.8863 152.263 100.605 145.301 105.791C141.985 108.264 138.775 110.901 135.684 113.462C133.28 115.443 130.876 117.424 128.419 119.342C127.164 120.326 125.882 121.285 124.588 122.218C123.412 123.051 122.223 123.985 120.929 124.653C119.436 125.423 117.824 125.625 116.279 124.855C116.847 123.871 117.719 123.177 118.696 122.357C120.955 120.465 123.597 119.014 125.935 117.209C128.511 115.216 131.021 113.147 133.531 111.077C136.662 108.503 139.898 105.829 143.28 103.305C150.426 97.9807 158.736 93.1484 168.696 88.5557L168.788 88.5179C174.297 85.9818 179.99 83.7612 185.724 81.9444C186.965 81.5532 188.207 81.1621 189.475 80.7836C188.683 76.7082 186.939 72.8095 185.208 69.6552C182.87 65.4033 180.545 62.5266 180.519 62.4887L164.508 42.9574C162.804 39.5381 161.629 35.16 160.902 31.6398C160.532 29.8608 160.281 28.3089 160.109 27.1986C160.03 26.6434 159.964 26.2018 159.938 25.899C159.911 25.7476 159.898 25.634 159.898 25.5583C159.885 25.4826 159.885 25.4448 159.885 25.4448L159.766 24.3345C158.352 24.7382 155.961 26.3154 155.063 27.8294C153.887 29.7724 153.518 31.4001 153.161 33.5702C152.487 37.797 152.342 42.1751 152.936 46.4145C153.28 48.8496 153.874 51.2468 154.759 53.5558C155.076 54.3759 154.64 55.2843 153.782 55.5871C153.597 55.6502 153.399 55.6881 153.214 55.6881C152.54 55.6881 151.906 55.2969 151.668 54.6535C149.713 49.5688 149.171 44.4966 149.277 40.0428C148.854 40.0049 148.432 39.9924 148.035 39.9924C144.39 39.9924 141.814 41.1027 141.734 41.1279L140.717 41.5569L141.285 42.4653L141.298 42.4905C141.483 42.7807 143.095 45.3925 144.641 48.5341C145.42 50.1113 146.173 51.8146 146.741 53.4296C146.952 54.0226 147.124 54.603 147.269 55.1581L144.786 59.7003C144.746 59.7129 144.706 59.7129 144.654 59.7255C134.891 61.7443 125.486 64.9112 116.239 68.5197C113.795 69.4786 111.378 70.4628 108.96 71.4974C107.785 72.0021 106.609 72.5194 105.433 73.0367C104.456 73.4656 103.32 73.8315 102.553 74.576C98.2338 77.0489 94.0462 79.5093 90.1625 82.6131L84.2048 87.7356L69.7927 100.113L68.3396 100.82L60.4797 104.617L45.8827 111.62C45.5128 111.784 44.8522 112.099 44.8522 112.099C44.8522 112.099 43.135 113.058 41.3252 114.169C41.2327 113.941 41.1667 113.727 41.0742 113.5C40.057 114.156 39.5418 115.443 38.5907 115.796C38.6039 115.834 38.6171 115.884 38.6435 115.922C38.3661 116.124 38.1151 116.313 37.9038 116.477C34.5616 119.203 31.9725 121.537 30.5062 123.594C29.5419 124.944 28.9738 126.029 28.67 126.66L13.1747 131.618C12.7256 131.807 12.2633 132.009 11.8009 132.198C10.1365 132.892 8.41914 133.599 6.74147 134.57C5.38084 135.353 4.25794 136.198 3.30683 137.144C1.74805 138.709 -0.10135 143.276 0.00432972 143.503C0.0835896 143.693 2.93698 145.85 6.72825 146.267C9.23814 146.544 11.7745 146.33 14.258 146.052C15.1562 145.951 15.9885 145.863 16.8339 145.8C18.1417 145.699 19.4759 145.661 20.7969 145.661C22.6595 145.661 24.5618 145.762 26.4112 145.951C26.9396 146.002 27.468 146.065 27.9831 146.128L28.8946 146.241C30.9422 146.506 33.0029 146.67 35.0505 146.872C35.7242 146.935 36.3979 147.011 37.0716 147.099C38.0888 147.225 39.1191 147.314 40.1363 147.453C47.0187 148.386 56.1997 148.916 65.2221 150.784C65.3146 150.859 65.407 150.922 65.5127 150.998C68.7623 151.124 71.1798 152.096 74.3634 153.156C76.3713 153.749 78.432 154.367 80.6117 155.048C86.8072 156.991 92.8969 157.723 98.5112 157.723C106.715 157.723 113.927 156.184 119.106 154.657C124.125 153.168 127.23 151.679 127.468 151.566C127.507 151.541 127.732 151.44 128.115 151.263C129.621 150.569 133.438 148.828 137.296 147.099C139.224 146.241 141.166 145.383 142.831 144.664C144.495 143.945 148.854 142.216 150.043 141.687C153.914 139.958 157.877 138.217 161.074 135.428C163.452 133.347 165.512 130.747 167.586 128.401C171.84 123.568 176.093 118.585 179.449 113.121C180.955 110.674 182.632 107.734 184.482 104.226C184.799 103.621 185.129 102.99 185.459 102.346C186.292 102.031 187.031 101.753 187.639 101.539C187.864 101.45 188.062 101.387 188.247 101.312C188.616 101.173 188.92 101.059 189.158 100.984C189.251 100.946 189.488 100.857 189.792 100.769C190.955 100.391 193.24 99.7093 196.014 98.8892C198.815 98.0564 201.615 97.1985 204.402 96.3153C204.402 96.3279 204.402 96.3405 204.389 96.3531C205.631 95.8358 206.609 95.6213 207.679 95.5456C207.692 95.4573 207.705 95.369 207.718 95.2681C213.57 93.426 219.422 91.5712 225.327 89.8931C227.309 89.3254 229.303 88.8207 231.324 88.3539C232.381 88.1141 244.746 85.2374 245.538 84.7201C245.935 84.4551 246.278 84.165 246.582 83.7865C246.727 83.5972 246.859 83.3701 246.952 83.1177C247.044 82.8654 247.097 82.5878 247.097 82.3102C247.163 81.8308 247.018 81.4144 246.82 81.099ZM37.0187 143.478C34.2182 143.92 31.3253 143.327 28.5512 142.973C27.9963 142.898 27.4415 142.835 26.8999 142.784C23.5182 142.431 20.0967 142.38 16.7018 142.633C13.571 142.86 10.4138 143.554 7.28304 143.062C6.99242 143.011 4.07305 142.406 4.17873 142.141C4.70713 140.753 5.39402 139.693 6.54329 138.684C8.84182 136.69 11.8537 135.693 14.641 134.495C13.8352 134.848 12.8841 136.097 13.0558 136.968C13.3464 138.406 15.0109 138.81 16.2923 139.1C19.2777 139.794 22.3821 139.819 25.4072 140.172C29.3173 140.627 33.5446 141.472 37.4811 141.106C37.6264 141.094 38.234 141.043 38.234 141.043C38.3529 141.611 38.6964 142.582 39.0399 143.087C38.7493 143.163 38.6568 143.213 37.0187 143.478ZM51.1402 137.018C48.3001 137.371 45.8827 135.744 44.9051 133.485C45.1033 131.353 46.6885 129.132 49.5286 128.779C52.3688 128.426 55.5259 130.243 56.1996 132.602C55.5392 134.949 53.9804 136.665 51.1402 137.018ZM231.245 84.9977C221.457 87.0164 212.13 90.4231 202.606 93.2493C193.491 95.9494 184.416 98.8639 175.829 102.876C171.444 104.92 167.164 107.305 163.227 110.068C161.576 111.229 154.006 116.553 152.408 117.84L154.958 118.092C154.997 118.092 156.754 118.269 159.409 118.269C162.619 118.269 165.895 118.067 169.039 117.436C170.664 117.108 172.302 116.679 173.755 115.91C173.887 115.847 174.284 115.708 174.35 115.582C173.65 117.298 171.655 119.354 170.426 120.729C167.362 124.199 164.429 127.795 161.021 130.987C157.481 134.306 153.293 136.804 148.802 138.797C144.72 140.614 140.493 142.116 136.424 143.97C132.038 145.976 127.692 148.096 123.174 149.837C121.51 150.481 119.819 151.061 118.088 151.578C118.075 151.578 118.075 151.591 118.062 151.591C113.135 153.042 106.305 154.48 98.6037 154.48C93.2933 154.48 87.5866 153.799 81.7874 151.97C79.9248 151.389 78.115 150.834 76.3713 150.304C77.9169 149.711 79.8587 148.815 82.2894 147.465C84.2709 146.355 86.3713 145.383 88.5906 144.765C89.4756 144.525 90.3871 144.349 91.3118 144.273C92.2497 144.197 93.148 144.336 94.0859 144.361C94.7728 144.387 95.4465 144.374 96.1334 144.324C97.3223 144.235 98.5112 144.046 99.6604 143.768C100.823 143.491 101.906 143.011 103.029 142.595C103.835 142.305 104.641 142.04 105.473 141.813C105.882 141.699 106.279 141.611 106.701 141.51C107.058 141.434 113.121 139.983 116.556 140.109C117.045 140.135 117.534 140.109 118.022 140.135C127.877 141.384 126.226 140.765 132.791 139.188C137.375 138.091 142.104 137.611 144.773 135.277C146.305 133.94 148.234 131.807 146.437 129.864C145.156 128.489 142.963 128.729 141.391 129.461C140.466 129.89 139.462 130.18 138.471 130.432C136.794 130.861 135.076 131.139 133.359 131.328C132.025 131.467 130.678 131.555 129.33 131.593C128.234 131.618 127.137 131.618 126.054 131.505C125.09 131.404 124.033 131.265 123.161 130.836C122.619 130.571 122.131 130.117 121.972 129.549C121.708 128.603 122.408 127.732 123.108 127.139C123.874 126.495 124.812 126.054 125.631 125.486C133.253 120.174 139.991 113.853 147.415 108.314C154.931 102.712 163.082 98.2205 171.642 94.2713C171.655 94.2587 171.668 94.2587 171.695 94.2461C176.939 91.8236 182.355 89.7165 187.89 87.9501C194.059 85.9818 200.347 84.3416 206.675 82.9285C213.398 81.4397 220.069 80.5186 227.176 80.5186C229.937 80.5186 232.778 80.6574 235.71 80.9602H235.736C235.987 80.9855 238.352 81.2378 240.571 81.7046C241.126 81.8182 241.668 81.9443 242.157 82.0831C242.487 82.1714 242.777 82.2724 243.042 82.3733C242.645 82.5878 236.106 84.0009 231.245 84.9977Z" fill="#07324A"/>
<path d="M51.3384 39.6268C52.8443 48.9761 54.5616 52.8875 54.7465 53.2786C59.5417 64.3943 62.4612 73.8572 64.1652 80.519C65.0239 83.85 65.5787 86.4869 65.909 88.2786L67.983 97.4891L82.0649 85.4019L88.2207 80.1153L88.2604 80.09C88.7888 79.6611 90.3343 78.4372 92.646 76.8474C92.7913 76.7465 92.646 75.4343 92.646 75.2577C92.646 72.6333 92.2101 70.1477 91.8534 67.5612C91.5496 65.4036 91.1137 62.8424 90.1229 60.1928C88.5906 56.13 87.7848 55.5623 87.3489 55.2595C85.1824 53.758 83.0424 52.1178 82.7914 50.1495C82.4876 47.7775 82.1045 45.2415 80.8759 42.5919C79.8984 40.4722 78.868 38.8319 78.7755 38.6805C78.6038 38.4156 78.4717 38.138 78.3132 37.873C75.3145 32.5612 72.3026 27.2494 69.304 21.9502C69.2775 21.9123 69.2643 21.8745 69.2379 21.8366C68.1415 21.3067 67.5735 20.2847 67.5074 18.758C67.4942 18.7707 67.481 18.7707 67.4677 18.7833C66.2788 16.7519 65.09 14.7332 63.9275 12.7018C62.9103 10.9228 62.012 9.09329 61.1005 7.27642C60.6778 6.43107 60.2551 5.59834 59.8192 4.75299L58.8945 3.01186C58.3793 2.0151 57.6263 0.652449 56.477 0.172997C54.9314 -0.470478 53.5576 0.816457 52.6329 1.81321C52.2102 2.26743 51.8139 2.72164 51.4704 3.22633C50.7967 4.22308 50.308 5.3334 49.9777 6.46894C49.304 8.76527 49.1984 11.1625 49.1984 13.5346C49.1984 16.323 49.3569 19.9188 49.6871 24.6629C49.9513 28.4859 50.2816 31.8673 50.6514 34.8323C50.6118 34.8828 50.5721 34.9332 50.5325 34.9963C50.9552 36.523 51.8271 38.0749 51.3384 39.6268ZM62.9235 20.31C62.9896 19.5656 63.0293 18.9599 63.1614 17.7613L75.8825 40.2451L75.909 40.2955L75.9222 40.3082C76.0147 40.4596 76.9526 41.961 77.8377 43.8788C78.8416 46.049 79.1983 48.1812 79.5021 50.528C79.9116 53.8085 82.7914 56.0165 85.407 57.8334C85.6712 58.0226 86.7148 60.4956 87.0186 61.2779C87.8376 63.4732 88.2604 65.6812 88.5774 67.9776C87.8905 67.6621 87.1771 67.3467 86.5827 66.8673C85.9882 66.4004 85.5522 65.7822 85.1427 65.1766C84.0992 63.6751 82.5536 62.7919 81.1402 61.6564C79.7135 60.5082 78.5113 59.1203 77.7187 57.5053C76.6091 55.2468 76.3713 52.7739 76.0147 50.3388C75.7637 48.6355 75.473 46.9196 74.8918 45.2793C74.469 44.0933 73.9407 42.9451 73.2934 41.86C73.0292 41.4184 71.6685 39.4754 71.1137 38.8824C69.1983 36.6744 66.9922 34.6809 65.4862 32.1701C64.0464 29.7476 63.3726 26.9971 63.0952 24.2465C62.9499 22.9596 62.8046 21.5969 62.9235 20.31Z" fill="#07324A"/>
<path d="M52.3159 132.06C52.0517 131.858 51.7611 131.669 51.4308 131.555C51.2987 131.505 51.1666 131.467 51.0345 131.454C50.4664 131.353 49.8588 131.442 49.3436 131.681C49.0266 131.833 48.7359 132.047 48.5246 132.312C48.366 132.501 48.2208 132.716 48.1283 132.943C48.1019 133.006 48.0754 133.082 48.049 133.158C48.049 133.17 48.0226 133.221 48.0358 133.233C48.0358 133.233 48.7888 134.457 50.4004 134.482C52.1045 134.508 53.2802 132.918 53.2802 132.918C53.2802 132.918 53.1349 132.766 53.1217 132.754C52.8575 132.501 52.5933 132.274 52.3159 132.06Z" fill="#07324A"/>
</svg>
