<svg width="195" height="171" viewBox="0 0 195 171" fill="none" xmlns="http://www.w3.org/2000/svg">
<path d="M76.5665 64.1065C76.7045 64.1442 76.8298 64.1819 76.9678 64.207C78.1093 64.5085 79.2758 64.8226 80.4549 65.0487C81.9476 65.2497 83.7288 65.5512 85.811 66.2924C86.3503 66.4557 87.5545 66.5813 88.8465 66.6693C90.013 66.5562 91.2548 66.1919 92.8478 65.7271C93.8387 65.4381 94.9175 65.1241 96.1467 64.8226C94.4283 64.3703 92.321 63.9432 90.8534 63.7171C88.7085 63.403 82.4242 62.8126 77.5574 62.7623C76.5037 62.7372 76.0773 62.9759 76.0146 63.0513C75.9769 63.2523 76.2404 63.7673 76.5665 64.1065Z" fill="#07324A"/>
<path d="M79.3012 73.7795C79.3137 73.7921 79.3262 73.8046 79.3388 73.8172C79.3388 73.8298 79.3513 73.8298 79.3513 73.8423C79.6775 74.2569 80.3172 74.9353 80.8942 75.5383C81.4962 76.1664 82.2615 76.5684 83.0768 76.9453C83.7165 77.2216 84.2433 77.4729 84.6949 77.7367C85.5102 78.1889 86.2628 78.7417 86.8021 79.6085C87.3791 80.5381 87.7931 81.5431 88.1192 82.5355C88.7589 84.0053 89.1227 85.2239 89.4739 86.4173C89.7624 87.3972 90.0509 88.4022 90.5275 89.6208C91.0167 90.6886 91.4809 91.4926 91.8572 91.8694L92.0704 92.083C92.3464 92.3594 92.6599 92.6734 92.7603 92.7237C92.7603 92.7237 92.7728 92.7237 92.7854 92.7362C93.1868 92.7362 93.6132 92.7739 94.0773 92.8493C94.7296 92.887 95.5324 93 96.3853 93.1508C96.4481 93.1634 96.5107 93.1634 96.5734 93.1759C97.9281 93.3267 99.2076 93.4774 100.362 93.9548C100.663 94.0176 100.926 94.0679 101.164 94.1055C101.315 93.9548 101.503 93.7035 101.716 93.3769C101.955 92.7865 102.218 92.1458 102.557 91.4298C102.971 90.5378 103.297 89.7715 103.573 89.1183C104.062 87.9625 104.488 86.9826 105.04 86.254C105.04 86.053 104.99 85.8269 104.89 85.5505C104.777 85.3621 104.677 85.1611 104.576 84.935C104.1 83.842 103.748 82.636 103.422 81.4677C103.084 80.2617 102.732 79.0306 102.231 77.9754C101.829 77.2593 101.277 76.3925 100.587 75.7518C100.236 75.4629 99.8975 75.2493 99.5713 75.0609C99.2578 74.9227 98.9442 74.7971 98.6055 74.6589C97.9658 74.4076 97.2634 74.1187 96.561 73.7544C95.6829 73.3273 94.7797 72.7117 93.9769 71.6062L93.5881 71.0786C93.563 71.0535 93.5505 71.0158 93.5254 70.9907C92.7352 69.9605 92.4467 69.9605 92.1205 69.9605C92.0955 69.9605 90.6404 69.9605 88.9847 69.86C88.7087 69.8852 88.4203 69.8977 88.1443 69.8977C87.1283 69.8977 86.0872 69.7344 84.9583 69.345C84.9458 69.345 84.9332 69.345 84.9206 69.3324C83.9422 69.0309 83.4782 68.8927 82.8385 69.4204C82.3116 70.3625 81.421 71.2922 80.543 72.1967C80.0789 72.6866 79.6273 73.1388 79.3138 73.5408C79.2887 73.5785 79.2635 73.6288 79.2384 73.6539C79.2259 73.679 79.2636 73.7293 79.3012 73.7795Z" fill="#07324A"/>
<path d="M42.2226 80.45C43.8031 80.6636 45.4463 80.8772 47.8295 80.9148C47.8421 80.9148 47.8421 80.9148 47.8547 80.9148C48.4191 80.9148 49.0714 80.9148 49.7612 80.9274C51.2539 80.9274 52.3201 80.8897 53.1731 80.852C53.7124 80.8269 54.1514 80.8143 54.5654 80.8143C54.8539 80.8143 55.1173 80.8269 55.3807 80.8395C55.4811 80.852 55.6065 80.8646 55.7319 80.8772C55.9326 80.9023 56.1584 80.9274 56.3967 80.94C56.6852 80.9023 56.9612 80.8771 57.2246 80.8646C57.3375 80.8269 57.4378 80.7892 57.5131 80.7138C57.8016 80.4626 57.9897 79.8847 58.0274 79.0556C58.0525 78.6662 58.1027 78.3019 58.1654 77.9501C58.1905 77.8119 58.203 77.6737 58.2281 77.5355C58.4664 76.0657 58.9681 74.9477 59.5953 74.1186C59.3444 74.0055 59.081 73.8924 58.8302 73.7543C58.6044 73.6412 58.3535 73.5156 58.1026 73.3899C56.911 72.7995 55.7695 72.2342 55.0797 71.4553C54.6406 71.3925 54.1891 71.4051 53.6622 71.5181C50.6267 72.1839 46.9139 73.8422 44.6937 74.8346L43.8407 75.2115C40.5042 76.6813 37.9704 77.8496 35.6122 79.6209C35.5621 79.6586 35.5119 79.6963 35.4742 79.734C35.9133 79.847 36.5906 79.9475 37.569 79.9852C39.4004 80.0857 40.8303 80.2742 42.2226 80.45Z" fill="#07324A"/>
<path d="M116.292 91.3034C116.329 91.4165 116.367 91.5547 116.404 91.6803C117.207 93.9792 117.997 96.6802 118.273 98.6525C118.273 98.6776 118.286 98.7153 118.286 98.753C118.612 100.411 118.838 102.157 118.813 103.866C118.813 103.878 118.813 103.904 118.813 103.916C118.863 104.306 118.913 104.67 118.963 105.022C119.164 104.682 119.39 104.343 119.641 104.004C120.456 102.836 121.472 101.391 121.66 98.7906C121.723 97.8736 121.823 96.9314 121.911 96.0018C122.199 93.0747 122.488 90.0472 121.898 88.4392C121.033 86.1152 120.004 83.9042 119.653 83.2509C119.641 83.2384 119.616 83.2258 119.603 83.2007C119.565 83.3012 119.528 83.4519 119.49 83.6278C119.302 84.8212 118.875 85.889 118.035 86.6553C117.784 86.894 117.571 87.1202 117.37 87.3463C116.806 87.9744 116.241 88.5146 115.426 88.7658C115.777 89.5698 116.041 90.4241 116.292 91.3034Z" fill="#07324A"/>
<path d="M23.1066 93.4272C23.1443 93.4272 23.1819 93.4272 23.2321 93.4272C23.3951 93.4147 23.5582 93.4147 23.7212 93.4147C28.0613 93.3267 31.7491 93.1509 34.0069 93.0127C34.1699 93.0001 34.333 92.9876 34.4961 92.975C34.5211 92.975 34.5462 92.975 34.5588 92.975H34.5964C34.8097 92.9624 35.0229 92.9499 35.2361 92.9373C37.4689 92.774 39.2124 92.3469 39.7769 89.7841C39.7769 89.7716 39.7894 89.759 39.7894 89.7465C39.8521 89.4701 39.9148 89.1937 39.9901 88.8922C40.3288 87.4852 40.7051 85.9024 40.8556 84.6084C40.9058 84.2064 40.981 83.8547 41.0814 83.5281C41.0563 83.5155 41.0061 83.5155 40.9559 83.5029C40.8681 83.4904 40.7803 83.4778 40.68 83.4652C36.5156 83.1386 29.3784 83.5783 27.5846 85.023C24.5868 87.4601 21.8272 90.3746 21.0495 91.9449C20.8864 92.2841 20.5979 92.8494 20.5101 93.1886C20.7986 93.2765 21.5011 93.4649 23.1066 93.4272Z" fill="#07324A"/>
<path d="M96.034 69.0938C96.1846 69.2948 96.3351 69.4958 96.4856 69.7093L96.5107 69.747C96.5358 69.7847 96.5609 69.8098 96.5985 69.8475C96.6612 69.9354 96.7239 70.0108 96.7992 70.0988L96.8117 70.1113C97.1253 70.4254 97.5142 70.7018 97.9532 70.9279C98.2668 71.0786 98.618 71.2168 99.0194 71.3676C99.6466 71.6062 100.362 71.8952 101.139 72.3223C101.666 72.5861 102.143 72.9253 102.569 73.3022C102.67 73.3901 102.77 73.4655 102.87 73.5534C103.824 74.3825 104.488 75.4127 105.015 76.5056C105.028 76.5307 105.04 76.5558 105.053 76.5684C105.517 77.3975 106.006 78.9553 106.571 80.7517C106.959 81.9828 107.361 83.2642 107.712 84.131C108.251 84.9224 109.092 85.0857 110.886 85.2616C111.663 85.337 112.466 85.4123 113.306 85.6259C113.357 85.6385 113.394 85.651 113.444 85.6636C113.67 85.5505 113.908 85.4375 114.134 85.3244C115.414 84.734 116.191 84.2943 116.354 83.3144C116.367 83.2139 116.392 83.1134 116.417 83.0129C116.517 82.2592 116.505 81.1286 116.292 79.4452C116.166 78.4653 113.256 74.2067 109.443 70.752C106.734 68.2898 103.56 67.9506 100.763 67.6616C100.349 67.6114 99.9476 67.5737 99.5587 67.5235C99.333 67.4983 99.0695 67.4858 98.7685 67.4983C98.3671 67.5737 97.9908 67.6616 97.6145 67.7496C97.188 67.9129 96.7114 68.1516 96.1971 68.541L95.8334 68.8048C95.8835 68.8928 95.9588 68.9933 96.034 69.0938Z" fill="#07324A"/>
<path d="M61.5774 71.5433C62.5683 71.8951 63.785 72.1338 65.541 72.2468C66.1682 72.2594 66.808 72.2845 67.3975 72.3097H67.41C68.2253 72.3097 69.0908 72.3473 69.9312 72.385C69.9563 72.385 69.9814 72.385 70.0065 72.385C70.4204 72.3725 70.8846 72.3473 71.3738 72.3222C72.8163 72.2468 74.1207 72.1966 75.2496 72.2594C75.9521 72.1338 76.504 71.9202 76.78 71.581C77.3068 70.8147 78.097 69.8851 79.1256 68.7168C79.3012 68.5032 79.4768 68.3148 79.6399 68.1389C79.5395 68.1264 79.4392 68.1138 79.3388 68.1012C78.0343 67.9254 76.9054 67.7872 75.8392 67.3726C75.6009 67.2847 75.3626 67.1591 75.1368 67.0083C73.2678 66.5184 71.4992 66.1415 69.9438 66.3174C67.0588 66.644 63.8853 67.3601 63.5341 67.4354C60.5488 68.252 59.5202 68.8801 58.6296 69.5585C59.1314 69.8725 59.5829 70.1992 59.9969 70.5007C60.5488 70.9278 61.0882 71.3047 61.5774 71.5433Z" fill="#07324A"/>
<path d="M115.15 99.2059C114.749 97.2336 114.197 95.3618 113.72 93.804C113.595 93.3895 113.482 93.0126 113.382 92.6483C112.88 91.191 112.378 89.9222 112.039 89.2062C111.676 88.7539 111.237 88.5404 110.635 88.4399L109.769 88.3268C109.606 88.3017 109.443 88.2891 109.28 88.264L108.239 88.1258C108.038 88.1007 107.888 88.0881 107.8 88.0881C107.662 88.4273 107.486 88.7288 107.336 89.0052C107.185 89.2941 107.035 89.5579 106.934 89.8343C106.031 92.1709 105.228 93.7789 104.501 94.9095C103.911 96.4673 103.836 97.4471 104.187 98.9923C104.288 99.3315 104.375 99.6832 104.451 100.06V100.073C104.614 100.651 104.814 101.316 105.053 102.108C106.094 105.55 106.445 109.18 106.784 112.698C106.809 112.974 106.834 113.251 106.872 113.514C107.009 114.595 107.135 115.625 107.21 116.605C107.26 117.057 107.311 117.509 107.373 117.949C107.449 118.439 107.511 118.803 107.586 119.067C108.026 118.703 108.603 118.163 109.104 117.685C109.757 117.07 110.497 116.366 111.362 115.625C114.774 112.698 115.564 108.904 115.664 104.13C115.564 103.314 115.489 102.409 115.388 101.404C115.301 100.537 115.225 99.7586 115.15 99.2059Z" fill="#07324A"/>
<path d="M103.71 113.853C103.71 113.828 103.698 113.79 103.698 113.765C103.046 108.564 102.281 104.934 101.352 100.725C101.34 100.688 101.34 100.663 101.327 100.638C101.252 100.361 101.189 100.097 101.127 99.8335C100.688 98.213 100.173 97.409 99.3328 96.9819C99.1572 96.9442 98.9691 96.9065 98.7809 96.8688C97.9154 96.6929 96.8744 96.4668 95.9211 96.3035C95.2563 96.2281 94.5288 96.1402 93.7385 96.002C93.2117 95.9769 92.7852 95.9392 92.434 95.8889C92.0326 95.914 91.6939 96.002 91.4054 96.1904C90.7532 98.1502 88.8842 100.914 87.4919 102.811C87.4794 102.823 87.4669 102.849 87.4543 102.861C85.3847 106.027 85.0209 106.956 85.0962 108.426C85.1338 108.778 85.1714 109.193 85.209 109.645L85.2341 109.909C85.2843 110.348 85.3345 110.775 85.3846 111.203C85.6857 113.702 86.0369 116.529 86.0369 123.162C86.062 123.702 86.087 124.267 86.0745 124.845C86.1498 126.73 86.3756 127.358 86.4885 127.559C86.7644 127.584 87.4292 127.446 87.9184 127.345C88.4954 127.232 89.1351 127.107 89.8877 127.019C93.726 126.566 98.944 124.544 102.13 122.773C103.986 121.742 104.338 120.273 104.037 116.793C103.911 115.8 103.798 114.821 103.71 113.853Z" fill="#07324A"/>
<path d="M82.0734 109.959C82.0232 109.519 81.9856 109.13 81.9605 108.753C81.9605 108.728 81.9605 108.678 81.948 108.653C81.7096 106.442 81.0699 105.977 76.1403 103.389C73.2929 101.894 72.5528 102.07 71.9508 102.811C71.8379 102.962 71.725 103.125 71.6247 103.263L71.4742 103.477C71.3989 103.59 71.3237 103.69 71.2358 103.804C71.1731 103.879 71.1229 103.967 71.0477 104.067C70.0693 105.462 68.3759 107.824 65.9926 109.57C65.3905 110.148 64.8763 110.575 64.4623 110.914C63.4714 111.743 63.1954 111.982 63.2456 113.992C63.2456 114.017 63.2582 114.054 63.2582 114.08C63.2958 114.657 63.3083 115.235 63.3334 115.788C63.3585 116.215 63.3836 116.693 63.4212 117.22C63.5466 119.218 63.5717 120.788 63.5968 122.044C63.6595 125.537 63.7348 125.838 64.9139 126.604C67.1717 128.062 73.0671 128.464 76.5919 128.702L76.9682 128.727C79.4267 128.891 81.1076 128.552 81.9731 127.697C82.663 127.019 82.8636 125.964 82.8887 124.808C82.8762 124.331 82.8636 123.803 82.8636 123.238C82.688 119.582 82.3619 113.426 82.0734 109.959Z" fill="#07324A"/>
<path d="M60.2851 119.707C60.2601 118.489 60.235 117.144 60.1723 115.75C60.1472 115.398 60.1347 115.072 60.1221 114.77C60.1096 114.607 60.1095 114.444 60.097 114.268C59.9841 112.233 58.9681 111.089 57.8518 110.311C57.3375 110.047 56.5723 109.607 55.619 109.042L54.6281 108.464C53.1605 107.61 51.141 106.429 48.8832 105.172C48.8205 105.135 48.7577 105.11 48.6825 105.072C47.7166 104.544 46.9515 104.331 46.362 104.331C45.4965 104.331 44.9697 104.783 44.5557 105.361C44.493 105.461 44.4303 105.562 44.3676 105.662L44.1543 106.002C42.8498 108.15 41.8087 109.858 38.7858 116.215C36.7663 120.461 37.7697 121.328 39.2875 122.647C39.8018 123.087 40.3286 123.551 40.7927 124.142C41.7836 125.398 46.964 125.486 49.7487 125.536C50.5389 125.549 51.279 125.561 51.9438 125.586H51.9563C51.994 125.586 55.0671 125.737 57.4754 125.586C59.3444 125.473 60.3729 124.833 60.5235 124.569C60.5235 124.506 60.511 124.443 60.511 124.368C60.373 123.388 60.3353 121.755 60.2851 119.707Z" fill="#07324A"/>
<path d="M68.6641 101.944C68.7394 101.831 68.8146 101.731 68.8899 101.63L69.0279 101.442C69.1408 101.291 69.2536 101.14 69.3665 100.99C69.8055 100.387 70.3449 99.6078 70.4704 99.1807C70.232 98.8917 70.0063 98.6028 69.793 98.3013C69.2035 97.4596 68.7017 96.3667 68.2627 95.1984C67.9366 94.3567 67.5728 93.3266 67.184 92.0327C66.8202 90.8895 66.469 89.8217 66.1554 89.0931C66.1178 89.0177 66.0802 88.9549 66.0551 88.8795C66.03 88.8418 66.0174 88.8041 65.9924 88.7539C65.9673 88.7162 65.9422 88.6785 65.9171 88.6408C65.591 88.1634 65.0893 87.7614 64.4747 87.3846C64.3869 87.3343 64.299 87.2841 64.2112 87.2338C63.9729 87.0956 63.722 86.9449 63.4335 86.7816C63.3457 86.7313 63.2579 86.6811 63.1701 86.6308C62.4175 86.2163 61.5646 85.7389 60.7367 85.161C60.3479 84.8846 60.0218 84.6083 59.7333 84.3193C59.1939 84.1058 58.5667 84.0053 57.7138 84.0304C57.3249 84.1058 56.9486 84.1309 56.5974 84.1309C56.5723 84.1309 56.5472 84.1309 56.5221 84.1309C55.318 84.2691 53.2985 84.2063 51.141 84.156C50.6393 84.1435 50.1376 84.1309 49.6484 84.1183C49.0839 84.1183 48.4693 84.1183 47.7919 84.1058C47.4909 84.1058 47.2275 84.1183 47.0143 84.1309C46.5125 84.1686 46.0233 84.1686 45.5968 84.156C45.346 84.156 45.1453 84.1435 44.9822 84.1435C44.6686 84.1435 44.468 84.156 44.33 84.2063C44.2673 85.3369 43.916 86.5931 43.5272 87.9624C43.3014 88.7664 43.0756 89.6081 42.8875 90.4498C42.6491 91.4548 42.4359 92.4598 42.461 92.8366C42.4861 93.113 42.8373 93.6783 43.2387 94.2562C43.3641 94.4321 43.5021 94.608 43.6401 94.8215C43.8031 95.0602 43.9662 95.2738 44.1042 95.4496C44.6185 96.1406 45.1077 96.7938 45.4589 97.4094C45.7474 97.9119 45.923 98.3767 46.0861 98.8038C46.4874 99.8465 46.7759 100.588 48.7954 101.555C49.1466 101.718 49.5104 101.907 49.8867 102.095C50.0623 102.183 50.2254 102.271 50.3634 102.346C50.3759 102.359 50.3884 102.359 50.401 102.372C52.295 103.377 54.4399 104.645 56.2336 105.713C56.5849 105.927 56.9235 106.128 57.2371 106.304C57.3876 106.392 57.5758 106.492 57.789 106.593C58.2406 106.831 58.8176 107.133 59.4322 107.535C59.8336 107.748 60.1597 107.962 60.4106 108.138C61.0377 108.565 61.2134 108.678 62.9444 107.761C63.2705 107.585 63.584 107.396 63.8851 107.183C66.6697 104.545 67.761 103.188 68.6641 101.944Z" fill="#07324A"/>
<path d="M88.4955 94.6076C88.4955 93.5649 88.483 93.0624 87.5798 90.7886V90.776C86.8774 89.2057 86.3255 87.5726 86.037 86.643C85.9116 86.2284 85.7861 85.7888 85.6482 85.324C85.4851 84.7461 85.322 84.1682 85.1338 83.6029C84.9959 83.2763 84.8704 82.9873 84.7576 82.711C84.3185 81.6683 84.1053 81.1658 83.5283 80.7261C83.152 80.4749 82.6628 80.2487 82.136 79.9975C81.9855 79.9347 81.8349 79.8593 81.6844 79.7839C78.699 78.5026 77.244 76.4423 76.8175 75.7263C76.5666 75.5755 76.0524 75.4876 75.4252 75.4373C74.5597 75.563 73.6189 75.6132 72.6531 75.6132C71.7876 75.6132 70.897 75.5755 70.019 75.5378C69.6677 75.5504 69.3416 75.5504 69.0656 75.5378C68.4636 75.5127 67.8991 75.4876 67.3472 75.4624C66.72 75.4624 66.143 75.4373 65.5786 75.3996C65.0016 75.3871 64.4873 75.3745 64.0357 75.3745C63.7472 75.3745 63.4838 75.3745 63.2455 75.3871C63.0699 75.3871 62.8692 75.4499 62.681 75.5629C62.6058 75.676 62.5431 75.7891 62.4678 75.8896C62.0162 76.5679 61.527 77.3343 61.3138 78.4146C61.2761 78.7036 61.2385 78.9674 61.2134 79.2061C61.2134 79.2061 61.2134 79.2061 61.2134 79.2186C61.2009 79.3568 61.1884 79.495 61.1758 79.6332C61.1131 80.5502 61.2385 81.1532 61.6399 81.6809C62.3549 82.0577 62.957 82.51 63.5465 82.9622C64.0106 83.314 64.4873 83.6908 65.0392 84.0175C65.403 84.2185 65.7667 84.432 66.1305 84.6582C67.272 85.3365 67.9995 85.9018 68.6267 86.9445C68.7772 87.1832 68.9277 87.4344 69.0406 87.6983C69.1535 87.9621 69.2663 88.2384 69.3792 88.5525C69.6426 89.2309 69.9186 90.06 70.2322 91.065C70.5458 92.0449 70.8845 93.0875 71.2357 94.0297C71.2357 94.0423 71.2482 94.0548 71.2482 94.08C71.2858 94.1679 71.3109 94.2433 71.3486 94.3312C72.0259 95.9895 72.5151 96.605 72.9666 97.1703L73.042 97.2708C74.2712 98.6904 75.9771 99.821 78.7493 101.102C79.6524 101.517 80.4049 101.957 81.0572 102.346C82.9262 103.452 82.9262 103.452 83.7164 102.509C84.0927 102.045 84.4816 101.567 84.8454 101.065C85.598 99.9089 86.1624 98.7532 86.6516 97.7482C87.1785 96.6427 87.7303 95.5121 88.4955 94.6076Z" fill="#07324A"/>
<path d="M41.5329 104.218C42.3984 102.886 43.4771 101.241 43.4269 100.713C43.3893 100.625 43.3516 100.537 43.314 100.449C42.5363 98.791 41.0437 96.668 41.0311 96.6554C40.8555 96.4167 40.6924 96.1781 40.5294 95.9519C40.5168 95.9394 40.5043 95.9268 40.4917 95.9142C40.1531 95.7509 38.2716 95.8891 36.7538 95.9896C36.4402 96.0147 36.0137 96.0399 35.512 96.0776C35.3489 96.0901 35.1859 96.1027 35.0479 96.1152L34.7594 96.1404C34.5713 96.1529 34.3706 96.1655 34.1699 96.1781C30.8584 96.3916 25.9414 96.668 23.8968 96.5926C23.8592 96.5926 23.8216 96.5926 23.7839 96.5926C23.5832 96.5926 23.3825 96.6052 23.1693 96.6052C21.8773 96.7057 20.7108 97.2835 19.3059 99.1679C19.0425 99.5197 18.7916 99.8463 18.5407 100.16C16.8599 102.296 16.4209 102.999 17.4495 104.871C19.2055 108.075 22.4418 112.911 24.2606 114.733C24.4613 114.934 24.6619 115.147 24.8626 115.348C26.5435 117.094 27.9985 118.589 31.5358 118.225C34.1197 117.961 34.7594 117.346 35.9134 114.833C35.9134 114.833 35.9134 114.833 35.9134 114.821C35.9134 114.821 35.9134 114.821 35.9134 114.808C36.1141 114.368 36.3399 113.866 36.5908 113.301C36.9545 112.484 37.3559 111.567 37.8325 110.537C39.0869 107.987 40.4416 105.901 41.5329 104.218Z" fill="#07324A"/>
<path d="M159.014 75.4371C160.206 75.0603 162.715 71.9448 162.915 70.877C162.777 70.5755 162.639 70.4624 162.439 70.4624C162.326 70.4624 162.188 70.5001 162.025 70.5503C159.34 71.4674 158.513 72.598 158.45 73.1256C158.349 73.9673 158.676 75.211 158.977 75.4371C158.989 75.4371 159.002 75.4371 159.014 75.4371Z" fill="#07324A"/>
<path d="M90.2893 25.4389C90.3269 25.4515 90.3645 25.4515 90.4021 25.464C90.3394 26.0042 90.2892 26.5318 90.239 27.072C89.7624 31.9839 88.4955 36.0918 88.8216 40.6897C89.1352 45.275 89.8502 51.619 89.499 55.2495C89.1478 58.8926 88.5081 60.8398 88.5081 60.8398L97.7776 62.7619H98.7936C98.7936 62.7619 99.8974 60.8901 100.851 58.566C103.033 53.2396 105.68 48.7548 106.194 45.9031C106.658 43.3152 108.251 37.2099 108.427 32.3231C108.753 32.499 109.067 32.6874 109.405 32.8633C109.255 31.7201 109.205 30.5518 109.179 29.484C108.954 29.3709 108.728 29.2328 108.502 29.1197C108.903 24.6349 111.186 20.3009 111.6 18.2029C112.077 15.8287 111.876 11.5574 110.71 7.43695C109.543 3.31648 106.219 0 104.802 0C103.384 0 102.118 1.89693 100.851 3.32904C99.5838 4.7486 95.3191 10.766 93.4251 13.781C92.0955 15.8789 91.3178 19.1451 90.8035 22.5998C90.7032 22.5747 90.6028 22.5495 90.5025 22.537C90.5526 23.5169 90.5652 24.5344 90.2893 25.4389Z" fill="#07324A"/>
<path d="M189.57 148.689C184.352 144.255 180.564 144.569 175.66 143.865C170.755 143.162 164.12 138.715 158.588 136.19C155.741 134.883 152.655 133.175 149.695 131.491C149.795 131.215 149.883 130.926 149.971 130.649C149.193 130.147 148.34 129.745 147.286 129.644C147.236 129.783 147.199 129.921 147.148 130.059C145.292 129.004 143.523 128.024 141.98 127.245C137.402 124.946 131.707 119.733 128.383 117.044C126.251 115.311 124.909 113.452 123.918 111.467C124.043 108.741 124.332 104.997 124.62 101.304C125.298 100.186 126.464 98.653 127.518 96.643C129.098 93.6406 130.842 92.9999 134.316 93.1883C137.791 93.3768 137.164 94.5828 140.638 93.6657C142.884 93.0753 145.932 91.5803 148.265 90.1985C149.682 87.6483 152.053 85.5001 154.7 84.7841C156.581 82.8997 158.826 80.8143 160.871 79.7968C164.508 77.9878 166.879 72.1086 167.506 70.689C168.134 69.2695 166.089 66.2545 167.983 64.8349C169.877 63.4154 171.621 58.1894 169.25 56.6568C166.879 55.1242 164.822 55.0237 161.511 54.8604C158.187 54.6971 156.932 52.3228 155.816 50.9032C154.712 49.4837 151.388 47.2601 146.496 48.3656C143.85 48.9686 140.651 50.6771 137.691 52.2851C136.838 53.2273 135.684 53.8805 134.291 54.1192C133.112 54.7222 132.046 55.2121 131.168 55.4885C127.53 56.594 125.95 59.1316 123.579 60.1115C121.209 61.1039 118.048 61.0285 116.154 62.134C114.26 63.2395 110.772 64.9857 107.16 65.2244C107.16 65.2244 109.192 66.2419 110.986 67.2218C112.779 68.2017 119.352 76.719 120.657 78.729C121.535 80.0857 122.915 82.1334 123.893 84.7841C123.529 83.955 123.115 83.0881 122.651 82.2088C123.027 82.9751 123.617 84.269 124.206 85.7137C124.533 86.7564 124.796 87.887 124.947 89.0804C125.423 92.9999 124.47 100.286 124.144 102.246C124.156 102.221 124.169 102.183 124.181 102.158C124.156 102.221 124.144 102.284 124.131 102.334C124.131 102.296 124.144 102.284 124.144 102.246C124.119 102.321 124.094 102.397 124.081 102.472C123.529 103.954 122.789 105.022 122.225 105.839C121.961 106.228 121.723 106.555 121.597 106.806C121.184 107.66 120.255 109.582 118.637 109.582C118.524 109.582 118.399 109.57 118.273 109.545C117.634 112.61 116.279 115.537 113.394 118.012C112.591 118.703 111.876 119.381 111.249 119.971C109.681 121.454 108.49 122.584 107.185 122.584C106.984 122.584 106.784 122.547 106.583 122.496C106.044 123.702 105.128 124.733 103.66 125.549C100.324 127.408 94.7044 129.644 90.2515 130.172C89.6243 130.247 89.0724 130.361 88.533 130.461C87.8682 130.599 87.1909 130.725 86.5386 130.725C85.8111 130.725 85.1212 130.562 84.494 130.046C84.4313 129.996 84.3686 129.933 84.3059 129.871C84.2683 129.908 84.2432 129.933 84.2055 129.971C82.8509 131.303 80.8565 131.956 78.1095 131.956C77.683 131.956 77.2314 131.943 76.7673 131.906L76.391 131.881C72.3144 131.604 66.1556 131.19 63.2079 129.28C62.4553 128.79 61.9159 128.288 61.5271 127.735C60.4985 128.288 59.1689 128.639 57.6888 128.74C56.7982 128.79 55.8575 128.815 54.9794 128.815C53.3362 128.815 51.969 128.753 51.831 128.74C51.1787 128.715 50.4638 128.702 49.7112 128.69C45.2708 128.614 40.2409 128.514 38.3343 126.077C38.0583 125.725 37.6569 125.386 37.243 125.022C35.951 123.903 34.8096 122.697 34.5587 120.788C33.8187 121.077 32.9406 121.278 31.887 121.378C31.4103 121.429 30.9588 121.454 30.5198 121.454C26.3804 121.454 24.3108 119.306 22.6049 117.547C22.4167 117.358 22.2286 117.157 22.0404 116.969C19.9331 114.859 16.584 109.834 14.69 106.391C12.6078 102.598 14.3638 100.361 16.0697 98.1882C16.3081 97.8867 16.5464 97.5852 16.7973 97.2586C17.299 96.5802 17.8258 96.0023 18.3526 95.5124C18.1269 95.3239 17.9262 95.1229 17.7631 94.8591C16.8223 93.3642 17.6377 91.7185 18.2398 90.5125C19.3812 88.2136 22.7679 84.8594 25.6153 82.548C26.9825 81.4299 29.4034 80.8395 31.9121 80.5128C31.7365 79.6586 31.9622 78.4526 33.7183 77.121C36.3399 75.1487 39.0368 73.8924 42.5614 72.3473L43.3893 71.9704C45.7224 70.9277 49.6234 69.169 52.9725 68.4404C53.7376 68.277 54.44 68.2394 55.0923 68.2896C55.2177 68.164 55.3557 68.0258 55.5313 67.9002C55.7947 67.7117 56.0331 67.5233 56.2714 67.3474C57.4505 66.4178 58.6546 65.4631 62.7062 64.345C62.7312 64.345 62.7438 64.3324 62.7689 64.3324C62.9194 64.2948 66.3437 63.5159 69.5549 63.1516C70.6587 63.026 71.75 63.0888 72.8538 63.2646C72.8412 62.9757 72.8537 62.6993 72.9039 62.423C73.0419 61.6943 73.6314 60.1617 76.0398 59.7095C71.5994 59.9607 66.9082 60.5135 62.7814 61.0034L61.6023 61.1416C54.001 62.0335 49.2973 63.3903 45.6973 64.5837C42.4611 65.6641 36.0639 69.0559 30.9337 71.782C29.8549 72.3598 28.8515 72.8875 27.9735 73.3397C26.5811 74.0683 25.4397 74.7467 24.4362 75.3874C24.4864 73.0382 24.223 69.3448 22.9561 65.8776C21.2126 61.129 17.9011 59.8602 16.4711 58.918C15.0537 57.9633 14.414 59.7848 13.6238 61.1667C12.8336 62.5486 10.9395 62.0335 11.7297 64.6716C12.52 67.3097 14.2635 69.5207 13.4733 71.2669C12.683 73.0131 13.3102 73.3271 14.113 75.2241C14.9032 77.121 14.7276 79.2064 16.3206 80.2113C16.3708 80.2365 16.4084 80.2742 16.4586 80.2993C16.0071 80.6762 15.6307 81.141 15.4927 81.744C15.2419 82.7866 15.7938 83.5781 16.145 84.0429C15.6684 84.4323 14.8029 85.0228 14.1255 85.475C11.2907 87.3845 8.36809 89.3568 8.59387 91.7813C8.68167 92.7612 6.93816 94.8843 3.43855 97.045C2.73612 97.4847 1.77026 98.1882 1.58211 99.3439C1.38141 100.537 2.12149 101.417 2.69849 102.133C3.13751 102.66 3.58905 103.213 3.81483 103.929C4.14096 105.01 3.38838 106.994 2.66086 108.904C2.02115 110.587 1.30614 112.484 1.01764 114.406C0.277579 119.356 4.88103 121.718 9.34648 124.004C9.79805 124.23 10.2496 124.469 10.7012 124.707C15.0286 126.969 18.6537 129.582 19.7575 130.536C19.8578 132.86 21.7017 134.004 26.9449 134.996C26.9951 135.009 27.0452 135.009 27.108 135.021C24.7749 137.823 22.216 135.863 18.9171 135.863C15.4928 135.863 14.1255 136.34 9.38411 138.074C4.6427 139.82 6.69982 143.137 4.47963 145.825C4.05316 146.34 3.70196 146.88 3.40092 147.42C3.15005 147.031 2.91173 146.629 2.66086 146.239C2.34728 147.383 1.74519 148.526 1.44415 149.656C1.69502 150.046 1.94587 150.435 2.20928 150.825C1.94587 152.181 1.84552 153.651 1.78281 155.234C1.63229 158.953 3.67687 158.161 3.36329 162.596C3.0497 167.03 7.47752 168.613 13.4733 169.882C16.3081 170.472 18.3903 170.397 20.2718 169.945C20.7359 170.309 21.2251 170.648 21.7017 171C22.931 170.937 24.1728 170.736 25.402 170.121C24.7749 169.681 24.1351 169.254 23.5205 168.789C24.4864 168.362 25.4898 167.859 26.5937 167.344C31.0215 165.284 30.8584 163.538 33.4298 159.907C36.0012 156.277 38.6102 154.204 45.0074 149.141C50.1753 145.046 51.0659 143.325 52.1195 141.516C52.4331 141.704 52.7843 141.893 53.2108 142.069C55.0547 142.81 62.0288 143.212 65.5284 143.375C65.5786 143.539 65.6413 143.702 65.7291 143.853C66.4441 145.096 68.012 145.435 69.6678 145.435C70.3326 145.435 71.0099 145.385 71.6621 145.31C75.0112 144.946 77.0683 144.481 78.3101 144.079C78.3603 144.129 78.398 144.167 78.4482 144.217C79.5896 145.272 81.4585 145.561 84.1804 145.109C87.3539 144.581 89.8501 143.224 91.418 142.144C92.7852 143.312 94.9678 142.747 95.7078 142.546C98.944 141.692 102.218 139.619 103.686 138.627C104.513 138.84 105.743 138.84 107.549 138.325C110.283 137.546 112.654 134.657 113.657 133.288C115.012 133.112 117.37 132.257 119.616 128.803C120.218 127.886 120.732 126.918 121.209 125.939C121.798 126.253 122.639 126.667 123.818 127.22C128.722 129.506 129.349 131.579 133.614 136.014C135.245 137.71 138.004 140.323 141.266 143.149C141.115 143.4 140.964 143.652 140.814 143.915C141.642 144.569 141.981 145.724 142.558 146.616C142.871 146.101 143.185 145.574 143.486 145.046C148.327 149.104 153.884 153.274 158.463 155.636C167.03 160.071 174.393 161.804 183.876 161.339C193.358 160.862 193.195 158.802 193.985 157.696C194.788 156.603 194.788 153.124 189.57 148.689ZM155.941 72.8246C156.18 70.9026 158.049 69.2443 161.21 68.164C163.028 67.5359 164.596 68.277 165.324 70.0735C165.575 70.689 165.474 71.4553 165.035 72.3975C164.182 74.2065 161.724 77.234 159.792 77.8496C159.504 77.9375 159.228 77.9878 158.952 77.9878C158.375 77.9878 157.835 77.7994 157.384 77.4099C156.004 76.2667 155.816 73.8296 155.941 72.8246Z" fill="#07324A"/>
</svg>
