<svg width="39" height="39" viewBox="0 0 39 39" fill="none" xmlns="http://www.w3.org/2000/svg">
<g clip-path="url(#clip0)">
<path d="M23.8754 38.5035C34.3704 36.0869 40.9191 25.6199 38.5024 15.125C36.0857 4.63006 25.6188 -1.91865 15.1238 0.49804C4.62892 2.91473 -1.91979 13.3817 0.496894 23.8766C2.91358 34.3715 13.3805 40.9202 23.8754 38.5035Z" fill="#07324A"/>
<path d="M27.7789 13.3993C27.1215 13.7168 26.425 13.923 25.684 14.0177C26.4362 13.533 27.0156 12.7697 27.2942 11.8504C26.5866 12.2961 25.8066 12.6193 24.9765 12.8031C24.3135 12.0398 23.3607 11.5607 22.3189 11.5607C20.3076 11.5607 18.6752 13.3157 18.6752 15.483C18.6752 15.7894 18.7086 16.0903 18.7643 16.3744C15.739 16.2184 13.0536 14.6473 11.254 12.2794C10.942 12.8588 10.7637 13.5274 10.7637 14.2517C10.7637 15.6111 11.4045 16.8201 12.385 17.511C11.7889 17.4887 11.2262 17.3216 10.7359 17.0207C10.7359 17.0374 10.7359 17.0597 10.7359 17.0764C10.7359 18.9763 11.9895 20.5586 13.6609 20.9263C13.3545 21.0154 13.0313 21.0544 12.697 21.0544C12.463 21.0544 12.2402 21.0377 12.0173 20.982C12.4797 22.5476 13.828 23.6841 15.4215 23.7064C14.1735 24.765 12.6023 25.3834 10.8975 25.3834C10.6022 25.3834 10.3125 25.3667 10.0283 25.3277C11.6385 26.4476 13.555 27.0994 15.6165 27.0994C22.3189 27.0994 25.9849 21.1213 25.9849 15.9343C25.9849 15.7671 25.9793 15.6 25.9737 15.4328C26.6702 14.8757 27.2886 14.1848 27.7789 13.3993Z" fill="white"/>
</g>
<defs>
<clipPath id="clip0">
<rect width="39" height="39" fill="white"/>
</clipPath>
</defs>
</svg>
