<svg width="376" height="723" viewBox="0 0 376 723" fill="none" xmlns="http://www.w3.org/2000/svg">
<path opacity="0.24" fill-rule="evenodd" clip-rule="evenodd" d="M375.003 14.8296C352.525 24.6621 328.772 16.1907 307.473 8.59413C293.911 3.75722 281.344 -0.725002 270.733 0.0982574C259.198 0.993172 251.228 6.57886 242.496 12.698C224.792 25.104 203.96 39.7027 143.954 21.851C114.222 13.0047 89.7817 17.6959 74.5361 26.0293C65.6114 30.9076 52.3619 25.1137 39.9418 19.6825C31.1451 15.8357 22.7644 12.1709 16.631 12.6086C16.631 12.6086 12.1807 12.6086 0 14.8296C0.217276 49.8966 0.196413 49.4507 0.100513 47.4011C0.0721621 46.7951 0.037253 46.0491 0 46.039C0.487241 61.0272 2.37243 173.997 0 179.226V250.622C0.379861 250.931 0.759754 251.238 1.13968 251.54C1.19296 262.876 1.16241 262.166 1.09783 260.666C1.06948 260.007 1.03457 259.196 0.997315 259.185C1.48456 275.477 3.36974 398.27 0.997315 403.954V451.972V481.558C1.05278 481.607 1.10825 481.656 1.16372 481.705C1.17713 486.239 1.14758 485.607 1.09783 484.544C1.06948 483.938 1.03457 483.192 0.997315 483.182C1.48456 498.17 3.36974 611.14 0.997315 616.369V687.764C43.8828 722.738 87.1816 711.489 130.945 700.119C157.836 693.132 184.901 686.101 212.155 689.718C226.435 691.613 239.555 697.164 255.249 703.804L255.25 703.804C268.537 709.426 283.67 715.828 302.914 721.454C326.243 728.275 376 710.31 376 710.31V506.064V451.972V225.262C375.668 225.42 375.335 225.573 375.003 225.723V14.8296Z" fill="url(#paint0_linear)"/>
<defs>
<linearGradient id="paint0_linear" x1="173.67" y1="566.275" x2="0.832188" y2="-368.606" gradientUnits="userSpaceOnUse">
<stop stop-color="#E63D11"/>
<stop offset="0.0457" stop-color="#E44F0F"/>
<stop offset="0.2025" stop-color="#DE8A09"/>
<stop offset="0.3365" stop-color="#D9B404"/>
<stop offset="0.441" stop-color="#D6CE01"/>
<stop offset="0.5031" stop-color="#D5D800"/>
<stop offset="0.5514" stop-color="#C9D60D"/>
<stop offset="0.6413" stop-color="#A9CF30"/>
<stop offset="0.763" stop-color="#75C569"/>
<stop offset="0.9103" stop-color="#2EB7B6"/>
<stop offset="1" stop-color="#00AEE9"/>
</linearGradient>
</defs>
</svg>
