<svg width="16" height="19" viewBox="0 0 16 19" fill="none" xmlns="http://www.w3.org/2000/svg">
<path d="M10.8976 4.41071C10.8976 5.9972 9.5859 7.32142 7.92048 7.32142C6.25505 7.32142 4.94336 5.9972 4.94336 4.41071C4.94336 2.82422 6.25505 1.5 7.92048 1.5C9.5859 1.5 10.8976 2.82422 10.8976 4.41071Z" stroke="#07324A" stroke-width="3" stroke-linecap="round" stroke-linejoin="round"/>
<path d="M14.1484 17.3729C14.1487 17.3743 14.149 17.3756 14.1493 17.3767C14.1467 17.3804 14.1428 17.3853 14.1372 17.3914C14.0944 17.4375 13.9912 17.5 13.8433 17.5H13.8348H13.8263H13.8177H13.8092H13.8006H13.792H13.7834H13.7748H13.7662H13.7575H13.7489H13.7402H13.7315H13.7228H13.7141H13.7053H13.6966H13.6878H13.6791H13.6703H13.6615H13.6526H13.6438H13.6349H13.6261H13.6172H13.6083H13.5994H13.5904H13.5815H13.5725H13.5636H13.5546H13.5456H13.5366H13.5275H13.5185H13.5094H13.5004H13.4913H13.4822H13.4731H13.4639H13.4548H13.4456H13.4365H13.4273H13.4181H13.4088H13.3996H13.3904H13.3811H13.3718H13.3625H13.3532H13.3439H13.3346H13.3252H13.3159H13.3065H13.2971H13.2877H13.2783H13.2689H13.2594H13.25H13.2405H13.231H13.2215H13.212H13.2025H13.1929H13.1834H13.1738H13.1642H13.1546H13.145H13.1354H13.1258H13.1161H13.1065H13.0968H13.0871H13.0774H13.0677H13.0579H13.0482H13.0384H13.0287H13.0189H13.0091H12.9992H12.9894H12.9796H12.9697H12.9599H12.95H12.9401H12.9302H12.9203H12.9103H12.9004H12.8904H12.8804H12.8704H12.8604H12.8504H12.8404H12.8304H12.8203H12.8102H12.8002H12.7901H12.78H12.7698H12.7597H12.7496H12.7394H12.7292H12.7191H12.7089H12.6987H12.6884H12.6782H12.6679H12.6577H12.6474H12.6371H12.6268H12.6165H12.6062H12.5958H12.5855H12.5751H12.5648H12.5544H12.544H12.5336H12.5231H12.5127H12.5022H12.4918H12.4813H12.4708H12.4603H12.4498H12.4393H12.4287H12.4182H12.4076H12.397H12.3864H12.3758H12.3652H12.3546H12.344H12.3333H12.3227H12.312H12.3013H12.2906H12.2799H12.2692H12.2584H12.2477H12.2369H12.2261H12.2154H12.2046H12.1938H12.1829H12.1721H12.1613H12.1504H12.1395H12.1287H12.1178H12.1069H12.096H12.085H12.0741H12.0631H12.0522H12.0412H12.0302H12.0192H12.0082H11.9972H11.9862H11.9751H11.9641H11.953H11.9419H11.9308H11.9197H11.9086H11.8975H11.8864H11.8752H11.864H11.8529H11.8417H11.8305H11.8193H11.8081H11.7969H11.7856H11.7744H11.7631H11.7518H11.7406H11.7293H11.718H11.7066H11.6953H11.684H11.6726H11.6613H11.6499H11.6385H11.6271H11.6157H11.6043H11.5929H11.5814H11.57H11.5585H11.547H11.5356H11.5241H11.5126H11.501H11.4895H11.478H11.4664H11.4549H11.4433H11.4317H11.4201H11.4085H11.3969H11.3853H11.3737H11.362H11.3504H11.3387H11.327H11.3153H11.3037H11.2919H11.2802H11.2685H11.2568H11.245H11.2333H11.2215H11.2097H11.1979H11.1861H11.1743H11.1625H11.1507H11.1388H11.127H11.1151H11.1032H11.0914H11.0795H11.0676H11.0556H11.0437H11.0318H11.0198H11.0079H10.9959H10.984H10.972H10.96H10.948H10.936H10.9239H10.9119H10.8999H10.8878H10.8758H10.8637H10.8516H10.8395H10.8274H10.8153H10.8032H10.7911H10.7789H10.7668H10.7546H10.7424H10.7303H10.7181H10.7059H10.6937H10.6815H10.6692H10.657H10.6447H10.6325H10.6202H10.608H10.5957H10.5834H10.5711H10.5588H10.5465H10.5341H10.5218H10.5094H10.4971H10.4847H10.4723H10.46H10.4476H10.4352H10.4228H10.4103H10.3979H10.3855H10.373H10.3606H10.3481H10.3356H10.3231H10.3106H10.2981H10.2856H10.2731H10.2606H10.248H10.2355H10.2229H10.2104H10.1978H10.1852H10.1726H10.16H10.1474H10.1348H10.1222H10.1095H10.0969H10.0843H10.0716H10.0589H10.0463H10.0336H10.0209H10.0082H9.99546H9.98274H9.97001H9.95728H9.94453H9.93178H9.91902H9.90625H9.89347H9.88069H9.86789H9.85509H9.84228H9.82946H9.81663H9.8038H9.79096H9.7781H9.76524H9.75238H9.7395H9.72662H9.71372H9.70082H9.68791H9.675H9.66207H9.64914H9.6362H9.62325H9.6103H9.59733H9.58436H9.57138H9.5584H9.5454H9.5324H9.51939H9.50637H9.49334H9.48031H9.46727H9.45422H9.44116H9.42809H9.41502H9.40194H9.38885H9.37576H9.36266H9.34955H9.33643H9.3233H9.31017H9.29703H9.28388H9.27073H9.25757H9.2444H9.23122H9.21803H9.20484H9.19164H9.17844H9.16522H9.152H9.13878H9.12554H9.1123H9.09905H9.08579H9.07253H9.05926H9.04598H9.03269H9.0194H9.0061H8.9928H8.97948H8.96616H8.95284H8.9395H8.92616H8.91281H8.89946H8.8861H8.87273H8.85935H8.84597H8.83258H8.81918H8.80578H8.79237H8.77896H8.76553H8.75211H8.73867H8.72523H8.71178H8.69832H8.68486H8.67139H8.65792H8.64443H8.63094H8.61745H8.60395H8.59044H8.57693H8.56341H8.54988H8.53634H8.52281H8.50926H8.49571H8.48215H8.46858H8.45501H8.44143H8.42785H8.41426H8.40066H8.38706H8.37345H8.35984H8.34622H8.33259H8.31896H8.30532H8.29167H8.27802H8.26437H8.2507H8.23703H8.22336H8.20968H8.19599H8.1823H8.1686H8.1549H8.14119H8.12747H8.11375H8.10002H8.08629H8.07255H8.05881H8.04506H8.0313H8.01754H8.00377H7.99H7.97622H7.96244H7.94865H7.93485H7.92105H7.90725H7.89346H7.87967H7.86588H7.85211H7.83833H7.82457H7.8108H7.79705H7.7833H7.76955H7.75581H7.74208H7.72835H7.71463H7.70092H7.68721H7.6735H7.6598H7.64611H7.63243H7.61874H7.60507H7.5914H7.57774H7.56408H7.55043H7.53679H7.52315H7.50951H7.49589H7.48227H7.46865H7.45504H7.44144H7.42785H7.41426H7.40067H7.38709H7.37352H7.35996H7.3464H7.33285H7.3193H7.30576H7.29223H7.2787H7.26518H7.25166H7.23816H7.22466H7.21116H7.19767H7.18419H7.17071H7.15725H7.14378H7.13033H7.11688H7.10344H7.09H7.07657H7.06315H7.04973H7.03632H7.02292H7.00952H6.99614H6.98275H6.96938H6.95601H6.94265H6.92929H6.91595H6.9026H6.88927H6.87594H6.86262H6.84931H6.836H6.8227H6.80941H6.79613H6.78285H6.76958H6.75631H6.74306H6.72981H6.71657H6.70333H6.6901H6.67688H6.66367H6.65046H6.63726H6.62407H6.61089H6.59771H6.58454H6.57138H6.55822H6.54507H6.53193H6.5188H6.50568H6.49256H6.47945H6.46635H6.45325H6.44016H6.42708H6.41401H6.40095H6.38789H6.37484H6.3618H6.34876H6.33574H6.32272H6.30971H6.29671H6.28371H6.27072H6.25774H6.24477H6.23181H6.21885H6.2059H6.19296H6.18003H6.16711H6.15419H6.14128H6.12838H6.11549H6.10261H6.08973H6.07686H6.064H6.05115H6.03831H6.02547H6.01264H5.99982H5.98701H5.97421H5.96142H5.94863H5.93585H5.92308H5.91032H5.89757H5.88483H5.87209H5.85936H5.84664H5.83393H5.82123H5.80854H5.79585H5.78318H5.77051H5.75785H5.7452H5.73256H5.71992H5.7073H5.69468H5.68207H5.66947H5.65688H5.6443H5.63173H5.61917H5.60661H5.59407H5.58153H5.569H5.55648H5.54397H5.53147H5.51897H5.50649H5.49402H5.48155H5.46909H5.45664H5.44421H5.43178H5.41935H5.40694H5.39454H5.38215H5.36976H5.35739H5.34502H5.33266H5.32032H5.30798H5.29565H5.28333H5.27102H5.25872H5.24643H5.23415H5.22187H5.20961H5.19736H5.18511H5.17288H5.16065H5.14843H5.13623H5.12403H5.11184H5.09966H5.0875H5.07534H5.06319H5.05105H5.03892H5.0268H5.01469H5.00259H4.9905H4.97842H4.96634H4.95428H4.94223H4.93019H4.91816H4.90614H4.89412H4.88212H4.87013H4.85815H4.84617H4.83421H4.82226H4.81032H4.79838H4.78646H4.77455H4.76265H4.75075H4.73887H4.727H4.71514H4.70329H4.69145H4.67962H4.6678H4.65599H4.64419H4.6324H4.62062H4.60885H4.59709H4.58534H4.5736H4.56188H4.55016H4.53845H4.52676H4.51507H4.5034H4.49173H4.48008H4.46843H4.4568H4.44518H4.43357H4.42197H4.41038H4.3988H4.38723H4.37567H4.36412H4.35259H4.34106H4.32955H4.31804H4.30655H4.29507H4.2836H4.27214H4.26069H4.24925H4.23782H4.22641H4.215H4.2036H4.19222H4.18085H4.16949H4.15814H4.1468H4.13547H4.12415H4.11285H4.10155H4.09027H4.079H4.06774H4.05649H4.04525H4.03402H4.02281H4.0116H4.00041H3.98923H3.97806H3.9669H3.95575H3.94461H3.93349H3.92238H3.91127H3.90019H3.88911H3.87804H3.86698H3.85594H3.84491H3.83389H3.82288H3.81188H3.8009H3.78992H3.77896H3.76801H3.75707H3.74615H3.73523H3.72433H3.71344H3.70256H3.69169H3.68084H3.66999H3.65916H3.64834H3.63754H3.62674H3.61596H3.60519H3.59443H3.58368H3.57294H3.56222H3.55151H3.54081H3.53012H3.51945H3.50879H3.49814H3.4875H3.47688H3.46626H3.45566H3.44507H3.4345H3.42393H3.41338H3.40284H3.39232H3.3818H3.3713H3.36081H3.35033H3.33987H3.32942H3.31898H3.30855H3.29814H3.28774H3.27735H3.26697H3.25661H3.24626H3.23592H3.2256H3.21528H3.20498H3.1947H3.18442H3.17416H3.16391H3.15368H3.14346H3.13325H3.12305H3.11286H3.10269H3.09254H3.08239H3.07226H3.06214H3.05203H3.04194H3.03186H3.02179H3.01174H3.0017H2.99167H2.98166H2.97166H2.96167H2.9517H2.94173H2.93179H2.92185H2.91193H2.90202H2.89213H2.88225H2.87238H2.86252H2.85268H2.84286H2.83304H2.82324H2.81345H2.80368H2.79392H2.78417H2.77444H2.76472H2.75502H2.74533H2.73565H2.72598H2.71633H2.70669H2.69707H2.68746H2.67786H2.66828H2.65871H2.64916H2.63962H2.63009H2.62058H2.61108H2.60159H2.59212H2.58267H2.57322H2.56379H2.55438H2.54498H2.53559H2.52622H2.51686H2.50751H2.49818H2.48887H2.47956H2.47027H2.461H2.45174H2.44249H2.43326H2.42405H2.41484H2.40566H2.39648H2.38732H2.37818H2.36905H2.35993H2.35083H2.34174H2.33267H2.32361H2.31456H2.30553H2.29652H2.28752H2.27853H2.26956H2.2606H2.25166H2.24273H2.23382H2.22492H2.21604H2.20717H2.19832H2.18948H2.18065H2.17184H2.16305H2.15427H2.14551H2.13676H2.12802H2.1193H2.11059H2.1019H2.09323H2.08457H2.07592H2.06729H2.05868H2.05008H2.04149H2.03292H2.02437H2.01583H2.00731H1.9988C1.85092 17.5 1.74766 17.4375 1.70493 17.3914C1.69927 17.3853 1.6954 17.3804 1.69283 17.3767C1.69308 17.3756 1.69337 17.3743 1.6937 17.3729C2.40122 14.464 4.94514 12.3572 7.92105 12.3572C10.897 12.3572 13.4409 14.464 14.1484 17.3729Z" stroke="#07324A" stroke-width="3" stroke-linecap="round" stroke-linejoin="round"/>
</svg>
