<svg width="23" height="28" viewBox="0 0 23 28" fill="none" xmlns="http://www.w3.org/2000/svg">
<path d="M16.499 6.40359C16.499 9.09072 14.2817 11.3072 11.499 11.3072C8.71639 11.3072 6.49902 9.09072 6.49902 6.40359C6.49902 3.71647 8.71639 1.5 11.499 1.5C14.2817 1.5 16.499 3.71647 16.499 6.40359Z" stroke="#07324A" stroke-width="3" stroke-linecap="round" stroke-linejoin="round"/>
<path d="M21.3575 25.8372C21.363 25.8709 21.359 25.8886 21.3554 25.8995C21.351 25.9132 21.3399 25.9365 21.3132 25.9646C21.2561 26.0247 21.1467 26.0848 21.0011 26.0848H20.9889H20.9767H20.9645H20.9523H20.94H20.9277H20.9153H20.9029H20.8905H20.8781H20.8656H20.8531H20.8406H20.828H20.8154H20.8028H20.7901H20.7774H20.7647H20.752H20.7392H20.7263H20.7135H20.7006H20.6877H20.6748H20.6618H20.6488H20.6357H20.6227H20.6096H20.5964H20.5833H20.5701H20.5569H20.5436H20.5303H20.517H20.5036H20.4903H20.4769H20.4634H20.4499H20.4364H20.4229H20.4094H20.3958H20.3821H20.3685H20.3548H20.3411H20.3274H20.3136H20.2998H20.2859H20.2721H20.2582H20.2443H20.2303H20.2163H20.2023H20.1883H20.1742H20.1601H20.146H20.1318H20.1176H20.1034H20.0892H20.0749H20.0606H20.0462H20.0319H20.0175H20.003H19.9886H19.9741H19.9596H19.9451H19.9305H19.9159H19.9013H19.8866H19.8719H19.8572H19.8425H19.8277H19.8129H19.7981H19.7832H19.7683H19.7534H19.7385H19.7235H19.7085H19.6935H19.6784H19.6633H19.6482H19.6331H19.6179H19.6027H19.5875H19.5722H19.557H19.5416H19.5263H19.5109H19.4956H19.4801H19.4647H19.4492H19.4337H19.4182H19.4026H19.387H19.3714H19.3558H19.3401H19.3244H19.3087H19.293H19.2772H19.2614H19.2456H19.2297H19.2138H19.1979H19.182H19.166H19.15H19.134H19.1179H19.1019H19.0858H19.0697H19.0535H19.0373H19.0211H19.0049H18.9886H18.9723H18.956H18.9397H18.9233H18.907H18.8905H18.8741H18.8576H18.8411H18.8246H18.8081H18.7915H18.7749H18.7583H18.7416H18.725H18.7083H18.6915H18.6748H18.658H18.6412H18.6244H18.6075H18.5907H18.5738H18.5568H18.5399H18.5229H18.5059H18.4889H18.4718H18.4547H18.4376H18.4205H18.4034H18.3862H18.369H18.3517H18.3345H18.3172H18.2999H18.2826H18.2652H18.2479H18.2305H18.213H18.1956H18.1781H18.1606H18.1431H18.1255H18.108H18.0904H18.0728H18.0551H18.0374H18.0198H18.002H17.9843H17.9665H17.9488H17.9309H17.9131H17.8953H17.8774H17.8595H17.8415H17.8236H17.8056H17.7876H17.7696H17.7515H17.7335H17.7154H17.6973H17.6791H17.661H17.6428H17.6246H17.6064H17.5881H17.5698H17.5515H17.5332H17.5149H17.4965H17.4781H17.4597H17.4413H17.4228H17.4043H17.3858H17.3673H17.3487H17.3302H17.3116H17.293H17.2743H17.2557H17.237H17.2183H17.1996H17.1808H17.162H17.1432H17.1244H17.1056H17.0867H17.0679H17.049H17.03H17.0111H16.9921H16.9731H16.9541H16.9351H16.916H16.897H16.8779H16.8588H16.8396H16.8205H16.8013H16.7821H16.7629H16.7436H16.7244H16.7051H16.6858H16.6664H16.6471H16.6277H16.6083H16.5889H16.5695H16.5501H16.5306H16.5111H16.4916H16.472H16.4525H16.4329H16.4133H16.3937H16.3741H16.3544H16.3348H16.3151H16.2953H16.2756H16.2559H16.2361H16.2163H16.1965H16.1766H16.1568H16.1369H16.117H16.0971H16.0772H16.0572H16.0372H16.0172H15.9972H15.9772H15.9572H15.9371H15.917H15.8969H15.8768H15.8566H15.8365H15.8163H15.7961H15.7758H15.7556H15.7353H15.7151H15.6948H15.6745H15.6541H15.6338H15.6134H15.593H15.5726H15.5522H15.5317H15.5113H15.4908H15.4703H15.4497H15.4292H15.4087H15.3881H15.3675H15.3469H15.3263H15.3056H15.2849H15.2643H15.2436H15.2228H15.2021H15.1813H15.1606H15.1398H15.119H15.0982H15.0773H15.0565H15.0356H15.0147H14.9938H14.9728H14.9519H14.9309H14.91H14.889H14.8679H14.8469H14.8259H14.8048H14.7837H14.7626H14.7415H14.7204H14.6992H14.678H14.6569H14.6357H14.6144H14.5932H14.572H14.5507H14.5294H14.5081H14.4868H14.4655H14.4441H14.4228H14.4014H14.38H14.3586H14.3371H14.3157H14.2942H14.2727H14.2513H14.2297H14.2082H14.1867H14.1651H14.1436H14.122H14.1004H14.0787H14.0571H14.0355H14.0138H13.9921H13.9704H13.9487H13.927H13.9052H13.8835H13.8617H13.8399H13.8181H13.7963H13.7745H13.7526H13.7308H13.7089H13.687H13.6651H13.6432H13.6213H13.5993H13.5773H13.5554H13.5334H13.5114H13.4893H13.4673H13.4453H13.4232H13.4011H13.379H13.3569H13.3348H13.3126H13.2905H13.2683H13.2462H13.224H13.2018H13.1795H13.1573H13.1351H13.1128H13.0905H13.0682H13.0459H13.0236H13.0013H12.979H12.9566H12.9342H12.9119H12.8895H12.8671H12.8446H12.8222H12.7997H12.7773H12.7548H12.7323H12.7098H12.6873H12.6648H12.6423H12.6197H12.5971H12.5746H12.552H12.5294H12.5068H12.4841H12.4615H12.4388H12.4162H12.3935H12.3708H12.3481H12.3254H12.3027H12.2799H12.2572H12.2344H12.2117H12.1889H12.1661H12.1433H12.1205H12.0976H12.0748H12.0519H12.0291H12.0062H11.9833H11.9604H11.9375H11.9146H11.8916H11.8687H11.8457H11.8227H11.7998H11.7768H11.7538H11.7307H11.7077H11.6847H11.6616H11.6386H11.6155H11.5924H11.5693H11.5462H11.5231H11.5H11.4769H11.4538H11.4307H11.4076H11.3845H11.3614H11.3384H11.3153H11.2923H11.2693H11.2462H11.2232H11.2002H11.1773H11.1543H11.1313H11.1084H11.0854H11.0625H11.0396H11.0167H10.9938H10.9709H10.9481H10.9252H10.9024H10.8795H10.8567H10.8339H10.8111H10.7883H10.7656H10.7428H10.7201H10.6973H10.6746H10.6519H10.6292H10.6065H10.5838H10.5612H10.5385H10.5159H10.4932H10.4706H10.448H10.4254H10.4029H10.3803H10.3577H10.3352H10.3127H10.2902H10.2677H10.2452H10.2227H10.2002H10.1778H10.1554H10.1329H10.1105H10.0881H10.0658H10.0434H10.021H9.9987H9.97637H9.95406H9.93176H9.90947H9.88719H9.86493H9.84269H9.82046H9.79824H9.77603H9.75384H9.73166H9.7095H9.68735H9.66521H9.64309H9.62099H9.59889H9.57681H9.55475H9.5327H9.51066H9.48864H9.46663H9.44464H9.42266H9.4007H9.37875H9.35681H9.33489H9.31299H9.2911H9.26922H9.24736H9.22551H9.20368H9.18186H9.16006H9.13828H9.11651H9.09475H9.07301H9.05128H9.02957H9.00788H8.9862H8.96453H8.94288H8.92125H8.89963H8.87803H8.85644H8.83487H8.81331H8.79177H8.77025H8.74874H8.72725H8.70577H8.68431H8.66287H8.64144H8.62002H8.59863H8.57725H8.55588H8.53454H8.5132H8.49189H8.47059H8.44931H8.42804H8.40679H8.38556H8.36434H8.34314H8.32195H8.30079H8.27964H8.2585H8.23739H8.21629H8.1952H8.17414H8.15309H8.13206H8.11104H8.09004H8.06907H8.0481H8.02715H8.00623H7.98531H7.96442H7.94354H7.92268H7.90184H7.88102H7.86021H7.83942H7.81865H7.7979H7.77716H7.75644H7.73574H7.71506H7.6944H7.67375H7.65312H7.63251H7.61192H7.59134H7.57079H7.55025H7.52973H7.50923H7.48874H7.46828H7.44783H7.42741H7.407H7.38661H7.36623H7.34588H7.32554H7.30523H7.28493H7.26465H7.24439H7.22415H7.20393H7.18373H7.16354H7.14338H7.12323H7.10311H7.083H7.06291H7.04284H7.02279H7.00276H6.98275H6.96276H6.94279H6.92283H6.9029H6.88299H6.86309H6.84322H6.82337H6.80353H6.78372H6.76392H6.74415H6.72439H6.70466H6.68494H6.66525H6.64557H6.62592H6.60628H6.58667H6.56708H6.5475H6.52795H6.50842H6.48891H6.46941H6.44994H6.43049H6.41106H6.39165H6.37226H6.3529H6.33355H6.31422H6.29492H6.27563H6.25637H6.23713H6.21791H6.19871H6.17953H6.16037H6.14123H6.12212H6.10302H6.08395H6.0649H6.04587H6.02686H6.00787H5.98891H5.96996H5.95104H5.93214H5.91326H5.8944H5.87557H5.85676H5.83796H5.81919H5.80045H5.78172H5.76302H5.74434H5.72568H5.70704H5.68843H5.66983H5.65126H5.63271H5.61419H5.59569H5.57721H5.55875H5.54031H5.5219H5.50351H5.48514H5.4668H5.44848H5.43018H5.4119H5.39365H5.37542H5.35721H5.33903H5.32086H5.30273H5.28461H5.26652H5.24845H5.23041H5.21238H5.19438H5.17641H5.15846H5.14053H5.12263H5.10474H5.08689H5.06905H5.05124H5.03346H5.0157H4.99796H4.98024H4.96255H4.94488H4.92724H4.90962H4.89203H4.87446H4.85691H4.83939H4.82189H4.80442H4.78697H4.76954H4.75214H4.73477H4.71742H4.70009H4.68279H4.66551H4.64826H4.63103H4.61383H4.59665H4.5795H4.56237H4.54526H4.52818H4.51113H4.4941H4.4771H4.46012H4.44317H4.42624H4.40934H4.39246H4.37561H4.35878H4.34198H4.3252H4.30845H4.29173H4.27503H4.25836H4.24171H4.22509H4.20849H4.19192H4.17538H4.15886H4.14237H4.1259H4.10946H4.09305H4.07666H4.0603H4.04396H4.02765H4.01137H3.99511H3.97888H3.96268H3.9465H3.93035H3.91422H3.89813H3.88205H3.86601H3.84999H3.834H3.81804H3.8021H3.78619H3.77031H3.75445H3.73862H3.72282H3.70704H3.69129H3.67557H3.65988H3.64421H3.62857H3.61296H3.59738H3.58182H3.56629H3.55079H3.53531H3.51987H3.50445H3.48906H3.47369H3.45836H3.44305H3.42777H3.41252H3.39729H3.38209H3.36693H3.35179H3.33667H3.32159H3.30653H3.29151H3.27651H3.26154H3.24659H3.23168H3.21679H3.20194H3.18711H3.17231H3.15754H3.14279H3.12808H3.11339H3.09874H3.08411H3.06951H3.05494H3.0404H3.02589H3.01141H2.99695H2.98253H2.96813H2.95377H2.93943H2.92512H2.91084H2.89659H2.88238H2.86819H2.85402H2.83989H2.82579H2.81172H2.79768H2.78367H2.76968H2.75573H2.74181H2.72792H2.71405H2.70022H2.68642H2.67264H2.6589H2.64519H2.63151H2.61785H2.60423H2.59064H2.57708H2.56355H2.55005H2.53658H2.52314H2.50973H2.49635H2.48301H2.46969H2.4564H2.44315H2.42992H2.41673H2.40357H2.39044H2.37734H2.36427H2.35123H2.33822H2.32524H2.3123H2.29938H2.2865H2.27365H2.26083H2.24804H2.23529H2.22256H2.20987H2.19721H2.18457H2.17198H2.15941H2.14687H2.13437H2.1219H2.10946H2.09705H2.08467H2.07233H2.06002H2.04774H2.03549H2.02328H2.01109H1.99894C1.85325 26.0848 1.74389 26.0247 1.68679 25.9646C1.66007 25.9365 1.64904 25.9132 1.64456 25.8995C1.64102 25.8886 1.63695 25.8709 1.64252 25.8371C2.45101 20.9388 6.58503 17.2628 11.5 17.2628C16.415 17.2628 20.549 20.9388 21.3575 25.8371L22.8375 25.5929L21.3575 25.8372Z" stroke="#07324A" stroke-width="3" stroke-linecap="round" stroke-linejoin="round"/>
</svg>
