<svg width="375" height="551" viewBox="0 0 375 551" fill="none" xmlns="http://www.w3.org/2000/svg">
<g opacity="0.3">
<path opacity="0.3" d="M-307.49 368.361C-320.074 334.548 -332.317 299.976 -334.371 263.953C-336.424 227.93 -326.975 189.698 -301.435 164.213C-275.894 138.728 -232.344 130.087 -202.631 150.553C-180.361 165.894 -169.917 193.087 -162.045 218.959C-154.173 244.83 -146.935 272.299 -128.173 291.773C-109.412 311.248 -74.6072 318.358 -55.9711 298.758C-44.2639 286.445 -41.8522 267.162 -29.376 255.629C-10.4858 238.162 20.971 247.51 40.5711 264.176C60.1711 280.842 74.6972 303.738 97.1788 316.253C138.509 339.26 198.541 311.711 208.049 265.377C216.509 224.151 190.241 184.244 184.725 142.521C175.76 74.7248 232.089 5.40073 300.286 0.302346C324.525 -1.5108 350.685 4.69426 367.101 22.6239C397.597 55.9391 381.523 109.004 362.305 149.878C343.088 190.752 322.67 240.668 347.744 278.236C370.612 312.504 429.218 313.075 452.754 279.262C463.765 263.438 468.512 241.733 485.484 232.594C504.486 222.359 528.391 234.212 542.75 250.325C557.109 266.438 566.554 286.828 582.837 300.996C606.36 321.462 643.106 324.991 670.095 309.376C697.083 293.761 712.336 260.143 706.312 229.549C703.104 213.244 694.619 198.45 690.258 182.414C685.901 166.377 686.716 147.007 699.133 135.961C716.582 120.443 745.728 131.36 759.833 149.972C773.938 168.584 778.838 192.451 789.56 213.196C800.283 233.941 821.619 253.102 844.445 248.178C875.523 241.472 882.504 198.92 908.121 180.089C937.974 158.147 983.515 178.025 1001.52 210.405C1019.53 242.784 1017.86 282.067 1015.71 319.054C1014.2 344.932 1012.7 370.807 1011.19 396.685C1009.87 419.177 1008.45 442.184 999.645 462.923C986.821 493.13 959.693 515.072 930.798 530.632C859.605 568.962 776.051 574.749 695.423 580.767C443.469 599.57 192.256 628.312 -57.4362 666.91C-114.239 675.69 -171.623 685.01 -228.916 680.43C-384.13 668.027 -523.175 542.186 -550.956 388.984C-554.565 369.077 -554.945 345.012 -538.898 332.7C-526.206 322.962 -507.611 324.956 -493.531 332.547C-479.45 340.137 -468.54 352.324 -456.781 363.165C-433.659 384.484 -406.322 401.216 -376.814 412.109C-359.424 418.53 -339.782 422.852 -322.643 415.795C-305.503 408.733 -297.029 383.607 -307.372 368.225" fill="url(#paint0_linear)"/>
</g>
<defs>
<linearGradient id="paint0_linear" x1="1198.29" y1="-54.6473" x2="-345.733" y2="643.47" gradientUnits="userSpaceOnUse">
<stop stop-color="#F04B23"/>
<stop offset="0.024" stop-color="#ED5724"/>
<stop offset="0.1249" stop-color="#E28625"/>
<stop offset="0.2211" stop-color="#D9AC27"/>
<stop offset="0.3101" stop-color="#D2C628"/>
<stop offset="0.3892" stop-color="#CED629"/>
<stop offset="0.4505" stop-color="#CDDC29"/>
<stop offset="0.5897" stop-color="#8BD069"/>
<stop offset="0.7308" stop-color="#50C6A4"/>
<stop offset="0.8513" stop-color="#25BECE"/>
<stop offset="0.9448" stop-color="#0ABAE8"/>
<stop offset="1" stop-color="#00B8F2"/>
</linearGradient>
</defs>
</svg>
