<svg width="375" height="551" viewBox="0 0 375 551" fill="none" xmlns="http://www.w3.org/2000/svg">
<g opacity="0.3">
<path opacity="0.3" d="M-722.49 368.361C-735.074 334.548 -747.317 299.976 -749.371 263.953C-751.424 227.93 -741.975 189.698 -716.435 164.213C-690.894 138.728 -647.344 130.087 -617.631 150.553C-595.361 165.894 -584.917 193.087 -577.045 218.959C-569.173 244.83 -561.935 272.299 -543.173 291.773C-524.412 311.248 -489.607 318.358 -470.971 298.758C-459.264 286.445 -456.852 267.162 -444.376 255.629C-425.486 238.162 -394.029 247.51 -374.429 264.176C-354.829 280.842 -340.303 303.738 -317.821 316.253C-276.491 339.26 -216.459 311.711 -206.951 265.377C-198.491 224.151 -224.759 184.244 -230.275 142.521C-239.24 74.7248 -182.911 5.40073 -114.714 0.302346C-90.475 -1.5108 -64.3148 4.69426 -47.899 22.6239C-17.4027 55.9391 -33.4774 109.004 -52.6947 149.878C-71.9119 190.752 -92.3299 240.668 -67.2556 278.236C-44.3876 312.504 14.2177 313.075 37.7538 279.262C48.7649 263.438 53.5118 241.733 70.4844 232.594C89.4858 222.359 113.391 234.212 127.75 250.325C142.109 266.438 151.554 286.828 167.837 300.996C191.36 321.462 228.106 324.991 255.095 309.376C282.083 293.761 297.336 260.143 291.312 229.549C288.104 213.244 279.619 198.45 275.258 182.414C270.901 166.377 271.716 147.007 284.133 135.961C301.582 120.443 330.728 131.36 344.833 149.972C358.938 168.584 363.838 192.451 374.56 213.196C385.283 233.941 406.619 253.102 429.445 248.178C460.523 241.472 467.504 198.92 493.121 180.089C522.974 158.147 568.515 178.025 586.521 210.405C604.527 242.784 602.864 282.067 600.71 319.054C599.203 344.932 597.696 370.807 596.185 396.685C594.873 419.177 593.447 442.184 584.645 462.923C571.821 493.13 544.693 515.072 515.798 530.632C444.605 568.962 361.051 574.749 280.423 580.767C28.4688 599.57 -222.744 628.312 -472.436 666.91C-529.239 675.69 -586.623 685.01 -643.916 680.43C-799.13 668.027 -938.175 542.186 -965.956 388.984C-969.565 369.077 -969.945 345.012 -953.898 332.7C-941.206 322.962 -922.611 324.956 -908.531 332.547C-894.45 340.137 -883.54 352.324 -871.781 363.165C-848.659 384.484 -821.322 401.216 -791.814 412.109C-774.424 418.53 -754.782 422.852 -737.643 415.795C-720.503 408.733 -712.029 383.607 -722.372 368.225" fill="url(#paint0_linear)"/>
</g>
<defs>
<linearGradient id="paint0_linear" x1="783.288" y1="-54.6473" x2="-760.733" y2="643.47" gradientUnits="userSpaceOnUse">
<stop stop-color="#F04B23"/>
<stop offset="0.024" stop-color="#ED5724"/>
<stop offset="0.1249" stop-color="#E28625"/>
<stop offset="0.2211" stop-color="#D9AC27"/>
<stop offset="0.3101" stop-color="#D2C628"/>
<stop offset="0.3892" stop-color="#CED629"/>
<stop offset="0.4505" stop-color="#CDDC29"/>
<stop offset="0.5897" stop-color="#8BD069"/>
<stop offset="0.7308" stop-color="#50C6A4"/>
<stop offset="0.8513" stop-color="#25BECE"/>
<stop offset="0.9448" stop-color="#0ABAE8"/>
<stop offset="1" stop-color="#00B8F2"/>
</linearGradient>
</defs>
</svg>
