<svg width="1205" height="667" viewBox="0 0 1205 667" fill="none" xmlns="http://www.w3.org/2000/svg">
<g opacity="0.3">
<path opacity="0.3" d="M-106.655 274.875C-110.403 233.492 -113.459 191.376 -103.31 150.849C-93.1605 110.321 -67.9034 70.9522 -27.0971 50.7433C13.7092 30.5344 71.0086 34.6213 100.803 66.5978C123.133 90.5647 126.55 123.948 127.23 155.06C127.91 186.173 127.238 218.855 143.739 246.3C160.24 273.744 201.089 292.529 231.218 276.671C250.146 266.709 259.952 246.115 279.562 237.257C309.256 223.841 345.144 244.053 363.681 268.651C382.218 293.249 392.237 323.153 415.828 344.058C459.197 382.489 543.698 370.81 571.887 322.49C596.968 279.498 578.323 227.078 586.17 179.153C598.918 101.278 693.543 42.1844 780.295 57.9212C811.129 63.5134 841.528 78.5856 855.653 103.584C881.89 150.032 843.147 203.745 804.789 242.975C766.431 282.205 723.388 331.07 741.371 380.526C757.77 425.638 830.574 444.644 871.821 414.586C891.119 400.518 904.69 377.974 929.056 373.177C956.337 367.803 981.935 388.422 994.138 410.764C1006.34 433.106 1010.91 458.643 1026.2 479.435C1048.28 509.47 1092.81 524.898 1131.94 516.071C1171.07 507.243 1201.93 474.804 1205.22 439.042C1206.97 419.984 1201.62 400.944 1201.85 381.822C1202.08 362.7 1209.92 341.509 1229.29 333.172C1256.5 321.462 1288.96 342.687 1299.96 367.716C1310.97 392.745 1308.65 420.707 1314.69 447.037C1320.73 473.368 1340.55 501.273 1370.72 502.977C1411.8 505.296 1435.51 460.372 1474.06 447.555C1518.99 432.62 1568.71 468.908 1579.72 510.403C1590.73 551.898 1574.8 594.871 1559.07 635.147C1548.06 663.327 1537.05 691.503 1526.04 719.681C1516.48 744.173 1506.58 769.199 1488.3 789.4C1461.67 818.825 1420.14 834.614 1378.65 842.782C1276.45 862.899 1170.32 843.11 1067.76 824.493C747.264 766.316 424.185 719.377 99.525 683.826C25.6679 675.738 -49.1034 668.065 -118.859 645.031C-307.835 582.634 -436.654 399.709 -417.219 221.375C-414.692 198.203 -406.676 171.44 -382.343 162.838C-363.097 156.037 -340.637 164.074 -325.774 176.893C-310.912 189.711 -301.62 206.626 -290.795 222.315C-269.512 253.169 -241.362 280.266 -208.446 301.578C-189.047 314.139 -166.104 325.083 -142.263 322.643C-118.421 320.199 -99.0016 295.036 -106.46 274.762" fill="url(#paint0_linear)"/>
</g>
<defs>
<linearGradient id="paint0_linear" x1="1918.33" y1="278.633" x2="-238.756" y2="642.162" gradientUnits="userSpaceOnUse">
<stop stop-color="#F04B23"/>
<stop offset="0.024" stop-color="#ED5724"/>
<stop offset="0.1249" stop-color="#E28625"/>
<stop offset="0.2211" stop-color="#D9AC27"/>
<stop offset="0.3101" stop-color="#D2C628"/>
<stop offset="0.3892" stop-color="#CED629"/>
<stop offset="0.4505" stop-color="#CDDC29"/>
<stop offset="0.5897" stop-color="#8BD069"/>
<stop offset="0.7308" stop-color="#50C6A4"/>
<stop offset="0.8513" stop-color="#25BECE"/>
<stop offset="0.9448" stop-color="#0ABAE8"/>
<stop offset="1" stop-color="#00B8F2"/>
</linearGradient>
</defs>
</svg>
